<?xml version="1.0" standalone="no"?>
<!DOCTYPE svg PUBLIC "-//W3C//DTD SVG 1.1//EN" "http://www.w3.org/Graphics/SVG/1.1/DTD/svg11.dtd" >
<svg>
<metadata>
Created by FontForge 20090622 at Sat May 30 18:59:12 2015
 By deploy user
Copyright (c) 2011 by Ramiz Guseynov. All rights reserved.
</metadata>
<defs>
<font id="DecimaNovaProLt" horiz-adv-x="580" >
  <font-face 
    font-family="Decima Nova Pro Lt"
    font-weight="300"
    font-stretch="normal"
    units-per-em="1000"
    panose-1="2 0 5 6 0 0 0 2 0 4"
    ascent="750"
    descent="-250"
    x-height="500"
    cap-height="700"
    bbox="-60 -218 1102 915"
    underline-thickness="50"
    underline-position="-50"
    unicode-range="U+0020-U+FB12"
  />
<missing-glyph horiz-adv-x="220" 
 />
    <glyph glyph-name="fi" unicode="fi" horiz-adv-x="513" 
d="M390 0v456h-240v-456h-50v456h-80v44h80v80q0 59 32.5 94.5t93.5 35.5l82 -8l-5 -40q-38 6 -78 6q-75 0 -75 -95v-73h290v-500h-50zM388 602v98h55v-98h-55z" />
    <glyph glyph-name="fl" unicode="fl" horiz-adv-x="508" 
d="M388 0v662q-91 6 -163 6q-75 0 -75 -95v-73h143v-44h-143v-456h-50v456h-80v44h80v80q0 59 32.5 94.5t93.5 35.5q36 0 89 -2.5t88 -5.5l35 -2v-700h-50z" />
    <glyph glyph-name=".notdef" horiz-adv-x="220" 
 />
    <glyph glyph-name=".null" horiz-adv-x="0" 
 />
    <glyph glyph-name="nonmarkingreturn" horiz-adv-x="333" 
 />
    <glyph glyph-name="space" unicode=" " horiz-adv-x="220" 
 />
    <glyph glyph-name="exclam" unicode="!" horiz-adv-x="242" 
d="M152 700l-8 -511h-45l-9 511h62zM91 0v79h61v-79h-61z" />
    <glyph glyph-name="quotedbl" unicode="&#x22;" horiz-adv-x="292" 
d="M60 492v208h54l-15 -208h-39zM178 492v208h54l-15 -208h-39z" />
    <glyph glyph-name="numbersign" unicode="#" 
d="M52 439v48h114l31 213h41l-31 -213h206l31 213h41l-31 -213h107v-48h-114l-25 -178h107v-48h-114l-31 -213h-41l31 213h-206l-31 -213h-41l31 213h-108v48h114l26 178h-107zM200 439l-25 -178h205l26 178h-206z" />
    <glyph glyph-name="dollar" unicode="$" 
d="M255 -48v52q-46 0 -88 5.5t-61 10.5l-19 5l3 47q78 -21 174 -21q101 0 142.5 29.5t41.5 99.5q0 42 -20.5 71t-53.5 44.5t-72.5 26.5t-79 24.5t-72.5 32.5t-53.5 55t-20.5 87q0 81 48.5 124.5t130.5 49.5v53h52v-53q36 -1 73 -5.5t56 -8.5l19 -4l-4 -47q-91 19 -168 19
q-153 0 -153 -126q0 -37 16 -63.5t42.5 -40.5t60 -26t68.5 -20t68.5 -22.5t60 -33.5t42.5 -53t16 -81q0 -164 -197 -178v-53h-52z" />
    <glyph glyph-name="percent" unicode="%" horiz-adv-x="839" 
d="M369 574v-94q0 -60 -42 -97t-103 -37q-60 0 -102 38t-42 96v94q0 59 41.5 96.5t102.5 37.5t103 -37t42 -97zM319 475v103q0 43 -26 66t-69 23q-44 0 -69.5 -23t-25.5 -66v-102q0 -43 25.5 -65.5t69.5 -22.5q43 0 69 22.5t26 64.5zM237 0l315 700h50l-316 -700h-49z
M759 218v-94q0 -60 -42 -97t-103 -37t-102.5 38t-41.5 96v94q0 60 41.5 97t102.5 37t103 -37t42 -97zM709 119v103q0 43 -26 66t-69 23q-44 0 -69.5 -23t-25.5 -66v-102q0 -43 25.5 -65.5t69.5 -22.5q43 0 69 22.5t26 64.5z" />
    <glyph glyph-name="ampersand" unicode="&#x26;" horiz-adv-x="560" 
d="M455 226v87h50v-90q0 -49 -12 -90t-24 -57l-12 -16l31 -60h-57l-12 23q-46 -33 -138 -33q-40 0 -75 10.5t-68.5 35t-53 72.5t-19.5 115q0 85 41.5 138.5t106.5 68.5l-108 214v56h362v-49h-306v-5l273 -540q21 37 21 120zM283 39q37 0 65.5 6.5t39.5 12.5l10 7l-163 320
q-114 -19 -114 -159q0 -91 35.5 -139t126.5 -48z" />
    <glyph glyph-name="quotesingle" unicode="'" horiz-adv-x="169" 
d="M60 492v208h54l-14 -208h-40z" />
    <glyph glyph-name="parenleft" unicode="(" horiz-adv-x="302" 
d="M257 -138v-52q-75 0 -123.5 53.5t-48.5 127.5v542q0 72 48.5 124.5t123.5 52.5v-53q-50 0 -83 -37t-33 -88v-542q0 -52 33 -90t83 -38z" />
    <glyph glyph-name="parenright" unicode=")" horiz-adv-x="302" 
d="M45 -190v52q50 0 83 38t33 90v542q0 51 -33 88t-83 37v53q75 0 123.5 -52.5t48.5 -124.5v-542q0 -74 -48.5 -127.5t-123.5 -53.5z" />
    <glyph glyph-name="asterisk" unicode="*" horiz-adv-x="433" 
d="M239 700v-140l131 44l13 -40l-132 -43l82 -113l-34 -25l-81 113l-81 -113l-34 24l81 114l-132 43l14 40l131 -44v140h42z" />
    <glyph glyph-name="plus" unicode="+" 
d="M265 496h48v-190h191v-48h-191v-190h-48v190h-190v48h190v190z" />
    <glyph glyph-name="comma" unicode="," horiz-adv-x="221" 
d="M78 0v79h63v-68q0 -55 -22 -80t-47 -25v27q16 0 25 16.5t9 37.5l-1 13h-27z" />
    <glyph glyph-name="hyphen" unicode="-" horiz-adv-x="358" 
d="M293 319v-48h-228v48h228z" />
    <glyph glyph-name="period" unicode="." horiz-adv-x="221" 
d="M80 0v79h61v-79h-61z" />
    <glyph glyph-name="slash" unicode="/" horiz-adv-x="295" 
d="M20 0l201 700h54l-201 -700h-54z" />
    <glyph glyph-name="zero" unicode="0" 
d="M518 495q3 -144 0 -290q-2 -93 -65 -154.5t-163 -61.5q-102 0 -164.5 61t-64.5 155q-3 145 0 290q2 94 65 155t164 61t163.5 -60.5t64.5 -155.5zM459 205q3 143 0 290q-2 71 -46.5 118.5t-122.5 47.5t-124.5 -47.5t-48.5 -118.5q-3 -143 0 -290q2 -71 48 -118.5
t125 -47.5q78 0 122.5 47t46.5 119z" />
    <glyph glyph-name="one" unicode="1" 
d="M92 0v49h199v600l-181 -81v53l172 79h66v-651h164v-49h-420z" />
    <glyph glyph-name="two" unicode="2" 
d="M109 638l-3 48q78 25 177 25q215 0 215 -196q0 -71 -20.5 -109t-75.5 -92l-262 -260v-5h361v-49h-423v64l269 271q56 57 74.5 91t18.5 92q0 143 -166 143q-32 0 -73.5 -5.5t-66.5 -11.5z" />
    <glyph glyph-name="three" unicode="3" 
d="M86 651v49h381v-55l-184 -228q214 -5 214 -200q0 -54 -16 -95.5t-40 -66t-57 -39.5t-63.5 -20.5t-62.5 -5.5q-49 0 -93 6t-63 12l-20 7l3 48q79 -24 168 -24q100 0 143 46.5t43 134.5q0 42 -12.5 72t-28 44.5t-44.5 22t-46.5 8.5t-49.5 1h-33v54l177 225v4h-316z" />
    <glyph glyph-name="four" unicode="4" 
d="M51 159v61l255 480h61l-262 -492h294v195h57v-195h72v-49h-72v-159h-57v159h-348z" />
    <glyph glyph-name="five" unicode="5" 
d="M84 11l3 49q83 -21 165 -21q111 0 151 42t40 140q0 85 -35.5 124.5t-132.5 39.5q-36 0 -77 -9.5t-64 -18.5l-23 -9l-31 42l24 310h359v-49h-310l-20 -246q62 29 155 29q212 0 212 -212q0 -232 -241 -232q-48 0 -91.5 5t-63.5 11z" />
    <glyph glyph-name="six" unicode="6" 
d="M461 691l-4 -48q-75 18 -159 18q-85 0 -129.5 -49.5t-46.5 -125.5l-1 -101q9 5 25.5 13t65.5 21.5t95 13.5q210 0 210 -214q0 -108 -61.5 -169t-162.5 -61q-107 0 -166.5 63.5t-61.5 163.5q-3 132 0 269q2 96 62.5 160.5t170.5 64.5q38 0 78.5 -5t62.5 -9zM300 384
q-43 0 -87.5 -12.5t-68.5 -25.5l-23 -12q0 -77 1 -118q2 -77 43.5 -127t126.5 -50t126.5 44t41.5 136q0 88 -38 126.5t-122 38.5z" />
    <glyph glyph-name="seven" unicode="7" 
d="M93 651v49h412v-51l-279 -649h-57l278 646v5h-354z" />
    <glyph glyph-name="eight" unicode="8" 
d="M510 524q0 -35 -11 -64.5t-26 -47t-30.5 -29.5t-26.5 -17l-11 -5q5 -2 13 -5.5t29 -17.5t37.5 -32t29.5 -50t13 -69q0 -95 -68 -146t-168 -51q-103 0 -171 50.5t-68 146.5q0 37 12.5 68.5t30.5 50.5t35.5 32t29.5 18l13 5q-4 2 -11 5t-25 16.5t-32 30.5t-25 46.5
t-11 64.5q0 80 60.5 132.5t161.5 52.5q98 0 158.5 -53.5t60.5 -131.5zM291 39q75 0 127 38t52 112q0 73 -53 110t-126 37q-74 0 -128 -37t-54 -110q0 -74 52.5 -112t129.5 -38zM455 524q0 60 -45.5 97.5t-118.5 37.5q-77 0 -122 -37.5t-45 -97.5q0 -66 44 -102.5t123 -36.5
q75 0 119.5 37t44.5 102z" />
    <glyph glyph-name="nine" unicode="9" 
d="M119 8l4 48q75 -18 159 -18q85 0 129.5 49.5t46.5 125.5l1 101q-9 -5 -25.5 -13t-65.5 -21.5t-95 -13.5q-210 0 -210 214q0 108 61.5 169t162.5 61q107 0 166.5 -63.5t61.5 -163.5q3 -132 0 -269q-2 -96 -62.5 -160.5t-170.5 -64.5q-38 0 -78.5 4.5t-62.5 9.5zM280 315
q43 0 87.5 12.5t68.5 24.5l23 13q0 77 -1 118q-2 77 -43.5 127t-126.5 50t-126.5 -44t-41.5 -136q0 -88 38 -126.5t122 -38.5z" />
    <glyph glyph-name="colon" unicode=":" horiz-adv-x="221" 
d="M80 0v79h61v-79h-61zM80 421v79h61v-79h-61z" />
    <glyph glyph-name="semicolon" unicode=";" horiz-adv-x="221" 
d="M80 421v79h61v-79h-61zM78 0v79h63v-85l-38 -101h-27l30 107h-28z" />
    <glyph glyph-name="less" unicode="&#x3c;" 
d="M78 265v53l424 213v-56l-378 -183l378 -184v-56z" />
    <glyph glyph-name="equal" unicode="=" 
d="M504 214v-48h-429v48h429zM504 418v-48h-429v48h429z" />
    <glyph glyph-name="greater" unicode="&#x3e;" 
d="M502 318v-53l-424 -213v56l378 184l-378 183v56z" />
    <glyph glyph-name="question" unicode="?" horiz-adv-x="502" 
d="M54 638l-4 47q75 25 177 25q101 0 163 -45.5t62 -136.5q0 -50 -13.5 -84.5t-35 -52t-47.5 -29.5t-52.5 -23t-48 -27t-35 -47t-13.5 -77h-50q0 55 13 92.5t34 57t46 32.5t50 23.5t46 24.5t34 41t13 68q0 134 -171 134q-37 0 -79 -5.5t-65 -11.5zM152 0v79h61v-79h-61z" />
    <glyph glyph-name="at" unicode="@" horiz-adv-x="856" 
d="M660 18q-22 0 -40 5.5t-28.5 13t-17 15t-8.5 12.5l-3 6q-97 -55 -164 -55q-70 0 -109 40.5t-41 100.5q-3 94 0 188q2 62 45 103.5t122 41.5q36 0 82 -7.5t74 -15.5l27 -8v-318q0 -40 13 -60t48 -20q37 0 54.5 28.5t19.5 70.5q5 128 0 269q-3 95 -84 165t-221 70
q-136 0 -219.5 -70.5t-86.5 -163.5q-5 -165 0 -332q3 -93 85.5 -161.5t220.5 -68.5q44 0 89.5 5.5t69.5 11.5l24 6l8 -43q-101 -24 -191 -24q-157 0 -255 80.5t-101 197.5q-5 163 0 328q3 117 102 198t254 81t254 -81.5t101 -196.5q3 -144 0 -260q-2 -75 -38.5 -113.5
t-85.5 -38.5zM295 340q-5 -89 0 -179q2 -45 28.5 -75t76.5 -30q30 0 68.5 13t61.5 27l23 13v315q-55 23 -137 23q-57 0 -88 -30.5t-33 -76.5z" />
    <glyph glyph-name="A" unicode="A" horiz-adv-x="575" 
d="M245 700h85l225 -700h-56l-69 217h-284l-69 -217h-57zM415 264l-124 388h-7l-123 -388h254z" />
    <glyph glyph-name="B" unicode="B" horiz-adv-x="569" 
d="M318 700q92 0 140 -46t48 -131q0 -56 -25 -94.5t-49 -49.5l-25 -11q5 -1 12.5 -3t26.5 -13.5t34 -28.5t27 -51t12 -78q0 -194 -224 -194h-215v700h238zM329 651h-192v-262h180q62 0 99 33.5t37 98.5q0 62 -31.5 96t-92.5 34zM137 341v-292h163q93 0 127.5 34t34.5 111
q0 147 -145 147h-180z" />
    <glyph glyph-name="C" unicode="C" horiz-adv-x="520" 
d="M472 60l3 -50q-92 -20 -157 -20q-109 0 -179 64.5t-72 157.5q-3 137 0 276q2 92 72.5 157t178.5 65q34 0 72 -4.5t59 -9.5l21 -4l-3 -50q-84 18 -149 18q-87 0 -138 -50t-53 -122q-3 -138 0 -276q2 -72 52.5 -122t138.5 -50q30 0 68.5 5t61.5 10z" />
    <glyph glyph-name="D" unicode="D" horiz-adv-x="603" 
d="M80 0v700h205q109 0 179 -60.5t72 -151.5q3 -139 0 -276q-2 -92 -71.5 -152t-179.5 -60h-205zM285 651h-148v-602h148q89 0 140 46t53 117q3 138 0 276q-2 71 -53.5 117t-139.5 46z" />
    <glyph glyph-name="E" unicode="E" horiz-adv-x="551" 
d="M80 700h411v-49h-354v-263h321v-48h-321v-291h364v-49h-421v700z" />
    <glyph glyph-name="F" unicode="F" horiz-adv-x="501" 
d="M80 700h391v-50h-335v-274h302v-49h-302v-327h-56v700z" />
    <glyph glyph-name="G" unicode="G" horiz-adv-x="600" 
d="M343 296v49h187v-322q-108 -33 -216 -33q-109 0 -176 64t-70 158q-4 137 0 276q3 93 70.5 157.5t175.5 64.5q52 0 103 -5t75 -11l25 -5l-4 -49q-108 20 -199 20q-86 0 -135.5 -50t-51.5 -122q-3 -138 0 -276q2 -72 52 -122t136 -50q39 0 79 5t60 10l20 5v236h-131z" />
    <glyph glyph-name="H" unicode="H" horiz-adv-x="631" 
d="M494 700h57v-700h-57v340h-357v-340h-57v700h57v-311h357v311z" />
    <glyph glyph-name="I" unicode="I" horiz-adv-x="217" 
d="M137 700v-700h-57v700h57z" />
    <glyph glyph-name="J" unicode="J" horiz-adv-x="275" 
d="M15 -3l1 45q16 -3 47 -3q22 0 37 7t23.5 17t13 28.5t5.5 34t1 40.5v534h57v-554q0 -82 -35.5 -119t-93.5 -37q-15 0 -29 1.5t-20 3.5z" />
    <glyph glyph-name="K" unicode="K" horiz-adv-x="519" 
d="M481 700l-278 -332l299 -368h-73l-293 367l277 333h68zM137 700v-700h-57v700h57z" />
    <glyph glyph-name="L" unicode="L" horiz-adv-x="473" 
d="M80 700h57v-651h316v-49h-373v700z" />
    <glyph glyph-name="M" unicode="M" horiz-adv-x="737" 
d="M657 700v-700h-56v632l-22 -53l-179 -306h-63l-179 307l-22 52v-632h-56v700h72l217 -379l215 379h73z" />
    <glyph glyph-name="N" unicode="N" horiz-adv-x="629" 
d="M493 700h56v-700h-78l-314 583l-21 52v-635h-56v700h78l314 -583l21 -53v636z" />
    <glyph glyph-name="O" unicode="O" horiz-adv-x="622" 
d="M311 710q107 0 174.5 -64.5t69.5 -157.5q3 -139 0 -276q-2 -93 -69 -157.5t-175 -64.5t-175 64.5t-69 157.5q-3 137 0 276q2 93 69.5 157.5t174.5 64.5zM311 39q87 0 134.5 50t49.5 123q3 138 0 276q-2 73 -50 123t-134 50t-134 -50t-50 -123q-3 -138 0 -276
q2 -73 49.5 -123t134.5 -50z" />
    <glyph glyph-name="P" unicode="P" horiz-adv-x="547" 
d="M80 0v700h254q78 0 123.5 -42t47.5 -106q3 -74 0 -149q-2 -64 -47.5 -106t-123.5 -42h-197v-255h-57zM448 398q3 79 0 158q-5 95 -112 95h-199v-347h199q108 0 112 94z" />
    <glyph glyph-name="Q" unicode="Q" horiz-adv-x="624" 
d="M310 710q107 0 174.5 -64.5t69.5 -157.5q3 -139 0 -276q-2 -72 -40 -124l57 -64l-41 -33l-52 57q-64 -58 -168 -58q-108 0 -175 64.5t-69 157.5q-3 137 0 276q2 93 69.5 157.5t174.5 64.5zM126 212q0 -48 23 -89q10 10 26 22t55 26.5t80 14.5q81 0 162 -61q20 38 22 87
q3 138 0 276q-2 73 -50 122.5t-134 49.5t-134 -49.5t-50 -122.5q-3 -138 0 -276zM310 40q40 0 72.5 11.5t45.5 22.5l12 11q-7 6 -18.5 15t-45 24t-64.5 15q-34 0 -67 -13.5t-49 -27.5l-17 -13q5 -5 14.5 -12.5t43 -20t73.5 -12.5z" />
    <glyph glyph-name="R" unicode="R" horiz-adv-x="578" 
d="M463 0l-143 266h-183v-266h-57v700h257q79 0 123.5 -41.5t47.5 -106.5q3 -68 0 -136q-2 -55 -35 -95t-95 -52l150 -269h-65zM451 411q3 72 0 145q-4 94 -112 94h-202v-333h206q104 0 108 94z" />
    <glyph glyph-name="S" unicode="S" horiz-adv-x="549" 
d="M455 691l-6 -49q-97 19 -180 19q-168 0 -168 -130q0 -44 22 -73.5t58 -44.5t78.5 -26.5t85.5 -25t79 -33.5t58 -58t22 -93q0 -93 -60 -140t-190 -47q-54 0 -103.5 5t-71.5 11l-22 5l3 49q84 -21 186 -21q109 0 154.5 31t45.5 103q0 44 -22 74t-57.5 46t-78.5 28
t-85.5 25.5t-78 33t-57.5 57t-22 91.5q0 91 60.5 136.5t163.5 45.5q45 0 91.5 -5t70.5 -9z" />
    <glyph glyph-name="T" unicode="T" horiz-adv-x="483" 
d="M20 651v49h443v-49h-193v-651h-57v651h-193z" />
    <glyph glyph-name="U" unicode="U" horiz-adv-x="634" 
d="M502 700h57v-488q0 -94 -66.5 -158t-175.5 -64q-110 0 -176 63.5t-66 158.5v488h57v-488q0 -73 49 -123t136 -50q86 0 135.5 50.5t49.5 122.5v488z" />
    <glyph glyph-name="V" unicode="V" horiz-adv-x="560" 
d="M79 700l199 -652h4l199 652h59l-216 -700h-87l-217 700h59z" />
    <glyph glyph-name="W" unicode="W" horiz-adv-x="863" 
d="M640 48l123 652h60l-138 -700h-93l-159 648h-4l-158 -648h-93l-138 700h60l123 -652h6l157 652h91l157 -652h6z" />
    <glyph glyph-name="X" unicode="X" horiz-adv-x="578" 
d="M100 700l189 -297l189 297h64l-220 -338l236 -362h-64l-205 317l-205 -317h-64l236 362l-220 338h64z" />
    <glyph glyph-name="Y" unicode="Y" horiz-adv-x="555" 
d="M81 700l194 -365h4l195 365h66l-234 -422v-278h-57v278l-234 422h66z" />
    <glyph glyph-name="Z" unicode="Z" horiz-adv-x="562" 
d="M505 643l-394 -590v-4h401v-49h-462v57l391 590v4h-379v49h443v-57z" />
    <glyph glyph-name="bracketleft" unicode="[" horiz-adv-x="301" 
d="M256 -128v-52h-171v880h171v-54h-115v-774h115z" />
    <glyph glyph-name="backslash" unicode="\" horiz-adv-x="295" 
d="M74 700l201 -700h-54l-201 700h54z" />
    <glyph glyph-name="bracketright" unicode="]" horiz-adv-x="301" 
d="M45 -180v52h115v774h-115v54h171v-880h-171z" />
    <glyph glyph-name="asciicircum" unicode="^" horiz-adv-x="474" 
d="M211 700h52l161 -361h-49l-138 316l-138 -316h-49z" />
    <glyph glyph-name="underscore" unicode="_" horiz-adv-x="553" 
d="M0 -75h552v-40h-552v40z" />
    <glyph glyph-name="grave" unicode="`" horiz-adv-x="188" 
d="M188 575h-58l-130 125h80z" />
    <glyph glyph-name="a" unicode="a" horiz-adv-x="477" 
d="M367 0l-5 59q-9 -8 -25 -19.5t-60.5 -30.5t-82.5 -19q-67 0 -105.5 42t-38.5 109t36.5 111t107.5 44h168v52q0 50 -30 84t-85 34q-34 0 -74.5 -5t-64.5 -9l-23 -5l-5 44q92 19 165 19q82 0 124.5 -44t42.5 -112v-354h-45zM197 34q37 0 78.5 20t64.5 40l22 21v137h-164
q-97 0 -97 -110q0 -48 23 -78t73 -30z" />
    <glyph glyph-name="b" unicode="b" horiz-adv-x="498" 
d="M70 14v686h50v-242q79 49 160 49q75 0 114.5 -42.5t41.5 -110.5q3 -103 0 -208q-2 -69 -46 -112.5t-130 -43.5q-48 0 -95.5 6t-70.5 12zM385 151q3 98 0 197q-2 51 -28 83.5t-79 32.5q-35 0 -74.5 -13t-61.5 -26l-22 -13v-362q50 -16 140 -16q60 0 91.5 33.5t33.5 83.5z
" />
    <glyph glyph-name="c" unicode="c" horiz-adv-x="399" 
d="M362 48l7 -42q-63 -16 -127 -16q-83 0 -130.5 44.5t-49.5 111.5q-3 104 0 208q2 67 50 111.5t131 44.5q24 0 53.5 -3t47.5 -6l17 -3l-5 -43q-67 11 -114 11q-58 0 -92.5 -33.5t-36.5 -82.5q-3 -100 0 -201q2 -48 36.5 -81.5t92.5 -33.5q29 0 59 3.5t45 6.5z" />
    <glyph glyph-name="d" unicode="d" horiz-adv-x="497" 
d="M427 700v-700h-46l-4 48l-26 -16t-59.5 -26t-77.5 -16q-75 0 -112.5 41.5t-39.5 109.5q-3 105 0 209q2 70 45.5 115t129.5 45q32 0 67 -6.5t54 -13.5l19 -6v216h50zM113 345q-3 -100 0 -198q4 -113 103 -113q36 0 76 15t62 31l23 15v342q-50 29 -140 29q-60 0 -91 -35.5
t-33 -85.5z" />
    <glyph glyph-name="e" unicode="e" horiz-adv-x="462" 
d="M388 54l7 -41q-60 -23 -157 -23q-83 0 -128.5 44t-47.5 112q-3 103 0 208q2 66 49 111t127 45q79 0 126.5 -45t47.5 -111v-120h-300q0 -56 1 -83q2 -50 34 -83.5t93 -33.5q37 0 74 5t56 10zM113 349l-1 -71h250q0 50 -1 71q-2 49 -35.5 83t-85.5 34q-60 0 -92.5 -32.5
t-34.5 -84.5z" />
    <glyph glyph-name="f" unicode="f" horiz-adv-x="323" 
d="M20 456v44h80v80q0 59 32.5 94.5t93.5 35.5l82 -8l-5 -40q-38 6 -78 6q-75 0 -75 -95v-73h143v-44h-143v-456h-50v456h-80z" />
    <glyph glyph-name="g" unicode="g" horiz-adv-x="450" 
d="M380 364v-71q0 -50 -39 -88t-104 -48v-29q0 -32 31 -50l98 -54q55 -31 55 -97q0 -117 -200 -117q-48 0 -92 10t-64 20l-20 9l12 41q77 -36 164 -36q73 0 111.5 16.5t38.5 56.5q0 27 -7.5 38t-28.5 23l-115 63q-34 19 -34 70v36q-67 9 -103 47t-36 89v71q0 56 47 96
t120 40q35 0 74 -13l30 38q21 26 60 26l47 -4l-6 -40h-35q-22 0 -38 -17l-19 -24q53 -38 53 -102zM331 296v63q0 43 -31.5 70t-86.5 27q-56 0 -86.5 -27t-30.5 -70v-63q0 -43 31.5 -69.5t86.5 -26.5q54 0 85.5 26.5t31.5 69.5z" />
    <glyph glyph-name="h" unicode="h" horiz-adv-x="500" 
d="M120 0h-50v700h50v-248l26.5 15.5t59.5 25t77 15.5q76 0 114 -42.5t38 -111.5v-354h-50v348q0 51 -25 83.5t-79 32.5q-35 0 -75 -15t-63 -29l-23 -15v-405z" />
    <glyph glyph-name="i" unicode="i" horiz-adv-x="195" 
d="M72 0v500h50v-500h-50zM70 602v98h55v-98h-55z" />
    <glyph glyph-name="j" unicode="j" horiz-adv-x="210" 
d="M84 602v98h56v-98h-56zM136 500v-556q0 -60 -33 -97t-93 -37l-51 6l4 43q24 -5 48 -5q75 0 75 96v550h50z" />
    <glyph glyph-name="k" unicode="k" horiz-adv-x="418" 
d="M70 0v700h50v-700h-50zM344 0l-223 264l209 236h63l-213 -234l228 -266h-64z" />
    <glyph glyph-name="l" unicode="l" horiz-adv-x="190" 
d="M70 0v700h50v-700h-50z" />
    <glyph glyph-name="m" unicode="m" horiz-adv-x="722" 
d="M390 0h-50v363q0 43 -21.5 72t-64.5 29q-28 0 -61.5 -15t-52.5 -31l-20 -15v-403h-50v500h46l4 -48q8 6 22 15.5t50.5 25t64.5 15.5q24 0 44.5 -6.5t33 -15t21.5 -17.5t12 -15l4 -7q7 7 20 17t50.5 27t72.5 17q67 0 104.5 -40.5t37.5 -113.5v-354h-50v346q0 54 -25 86
t-71 32q-28 0 -58.5 -14t-46.5 -28l-16 -15v-407z" />
    <glyph glyph-name="n" unicode="n" horiz-adv-x="520" 
d="M120 0h-50v500h46l4 -48l26.5 15.5t59.5 25t77 15.5q76 0 114 -42.5t38 -111.5v-354h-50v348q0 51 -25 83.5t-79 32.5q-35 0 -75 -15t-63 -29l-23 -15v-405z" />
    <glyph glyph-name="o" unicode="o" horiz-adv-x="493" 
d="M431 146q-2 -68 -51 -112t-133 -44q-88 0 -135.5 44t-49.5 112q-3 104 0 208q2 68 49.5 112t135.5 44q83 0 132.5 -45t51.5 -111q3 -105 0 -208zM380 350q-2 52 -36 84t-98 32q-62 0 -96.5 -32.5t-36.5 -82.5q-3 -100 0 -202q2 -50 36.5 -82.5t97.5 -32.5t97 32t36 83
q3 101 0 201z" />
    <glyph glyph-name="p" unicode="p" horiz-adv-x="497" 
d="M70 -180v680h46l4 -48l26 16t59.5 26t77.5 16q75 0 112.5 -41.5t39.5 -109.5q3 -105 0 -209q-2 -70 -45.5 -115t-129.5 -45q-32 0 -67 6.5t-54 13.5l-19 6v-196h-50zM384 155q3 100 0 198q-4 113 -103 113q-36 0 -76 -15t-63 -31l-22 -15v-342q50 -29 140 -29
q60 0 91 35.5t33 85.5z" />
    <glyph glyph-name="q" unicode="q" horiz-adv-x="498" 
d="M428 486v-666h-50v222q-79 -49 -160 -49q-75 0 -114.5 42.5t-41.5 110.5q-3 103 0 208q2 69 46 112.5t130 43.5q48 0 95.5 -6t70.5 -12zM113 349q-3 -98 0 -197q2 -51 28 -83.5t79 -32.5q35 0 74.5 13t61.5 26l22 13v362q-50 16 -140 16q-60 0 -91.5 -33.5t-33.5 -83.5z
" />
    <glyph glyph-name="r" unicode="r" horiz-adv-x="293" 
d="M278 510l-2 -44q-37 0 -76 -24.5t-60 -49.5l-20 -24v-368h-50v500h45l5 -72q3 3 8 8.5t22 20t34 25t43 19.5t51 9z" />
    <glyph glyph-name="s" unicode="s" horiz-adv-x="423" 
d="M340 495l-7 -44q-64 15 -127 15q-111 0 -111 -88q0 -39 28.5 -61t69.5 -33t82 -24t69.5 -44.5t28.5 -83.5q0 -71 -41.5 -106.5t-135.5 -35.5q-35 0 -71 5t-55 11l-19 5l7 44q71 -21 133 -21q74 0 102 22t28 71q0 40 -28.5 63t-69 34t-81 23.5t-69 44t-28.5 84.5
q0 68 43 101t118 33q31 0 64.5 -4t51.5 -8z" />
    <glyph glyph-name="t" unicode="t" horiz-adv-x="317" 
d="M20 456v44h81v120h50v-120h146v-44h-146v-329q0 -51 17.5 -72t54.5 -21l68 6l4 -40q-47 -10 -78 -10q-58 0 -87 33.5t-29 88.5v344h-81z" />
    <glyph glyph-name="u" unicode="u" horiz-adv-x="500" 
d="M380 500h50v-500h-46l-4 48l-26.5 -15.5t-59.5 -25t-77 -15.5q-76 0 -114 42.5t-38 111.5v354h50v-348q0 -51 25 -83.5t79 -32.5q35 0 75 15t63 29l23 15v405z" />
    <glyph glyph-name="v" unicode="v" horiz-adv-x="423" 
d="M66 500l143 -464h4l144 464h51l-158 -500h-78l-157 500h51z" />
    <glyph glyph-name="w" unicode="w" horiz-adv-x="646" 
d="M288 500h70l125 -461h4l79 461h50l-88 -500h-80l-122 443h-6l-122 -443h-80l-88 500h50l79 -461h4z" />
    <glyph glyph-name="x" unicode="x" horiz-adv-x="434" 
d="M90 500l127 -205l127 205h57l-156 -239l169 -261h-57l-140 223l-140 -223h-57l169 261l-156 239h57z" />
    <glyph glyph-name="y" unicode="y" horiz-adv-x="456" 
d="M185 22l-170 478h54l152 -433h4l163 433h53l-260 -680h-52l76 194z" />
    <glyph glyph-name="z" unicode="z" horiz-adv-x="409" 
d="M365 448l-268 -400v-4h272v-44h-329v52l269 400v4h-258v44h314v-52z" />
    <glyph glyph-name="braceleft" unicode="{" horiz-adv-x="315" 
d="M270 -138v-52q-73 0 -122.5 54t-49.5 128v183q0 21 -17.5 40.5t-40.5 19.5v50q23 0 40.5 20t17.5 42v186q0 71 49.5 124t122.5 53v-52q-51 0 -83 -37.5t-32 -88.5v-174q0 -21 -6.5 -38.5t-15.5 -28t-18 -18t-15 -10.5l-7 -3q3 -1 7 -3t14.5 -9.5t19 -17.5t15 -28t6.5 -39
v-172q0 -52 32 -90.5t83 -38.5z" />
    <glyph glyph-name="bar" unicode="|" horiz-adv-x="217" 
d="M85 -180v880h47v-880h-47z" />
    <glyph glyph-name="braceright" unicode="}" horiz-adv-x="315" 
d="M45 -190v52q51 0 83 38.5t32 90.5v172q0 21 6.5 38.5t15.5 28t18 18t16 10.5l6 2q-3 1 -7 3t-14.5 10t-19 18.5t-15 28t-6.5 38.5v174q0 51 -32 88.5t-83 37.5v52q73 0 122.5 -53t49.5 -124v-186q0 -22 17.5 -42t40.5 -20v-50q-23 0 -40.5 -19.5t-17.5 -40.5v-183
q0 -74 -49.5 -128t-122.5 -54z" />
    <glyph glyph-name="asciitilde" unicode="~" horiz-adv-x="564" 
d="M186 357q28 0 98 -38t98 -38q20 0 37 11t27 24.5t24 38.5l34 -23q-51 -100 -125 -100q-28 0 -99 38t-97 38q-29 0 -48.5 -18t-40.5 -56l-34 23q51 100 126 100z" />
    <glyph glyph-name="exclamdown" unicode="&#xa1;" horiz-adv-x="242" 
d="M144 311l8 -511h-62l9 511h45zM91 421v79h61v-79h-61z" />
    <glyph glyph-name="cent" unicode="&#xa2;" 
d="M294 570h52v-51l90 -11l-5 -43q-67 11 -114 11q-58 0 -92.5 -33.5t-36.5 -82.5q-3 -101 0 -201q2 -48 36.5 -81.5t92.5 -33.5q29 0 59 3.5t46 6.5l15 4l7 -42q-46 -12 -98 -15v-51h-52v51q-73 6 -114 49t-43 106q-3 104 0 208q2 62 43 105t114 50v51z" />
    <glyph glyph-name="sterling" unicode="&#xa3;" 
d="M81 337v45h57q-24 85 -24 145q0 183 229 183q27 0 60 -3.5t53 -6.5l20 -4l-3 -47q-71 12 -130 12q-172 0 -172 -134q0 -65 26 -145h254v-45h-244q15 -60 15 -109q0 -43 -19 -87.5t-39 -68.5l-19 -23h353v-49h-413v57l8.5 8.5t19.5 24t24.5 38t19 48.5t8.5 57
q0 42 -18 104h-66z" />
    <glyph glyph-name="currency" unicode="&#xa4;" 
d="M500 468l-64 -63q11 -27 11 -57v-105q0 -32 -12 -59l65 -63l-35 -35l-58 57q-44 -46 -118 -46q-70 0 -117 45l-57 -56l-35 35l64 63q-12 27 -12 59v105q0 30 11 57l-63 63l35 35l56 -56q44 47 118 47t119 -47l57 56zM393 240v110q0 47 -28.5 71.5t-75.5 24.5
q-48 0 -76 -24.5t-28 -71.5v-109q0 -47 28 -71.5t76 -24.5q47 0 75.5 24.5t28.5 70.5z" />
    <glyph glyph-name="yen" unicode="&#xa5;" 
d="M103 325v45h95l-150 330h59l181 -415h4l181 415h59l-151 -330h96v-45h-116l-40 -87h156v-45h-158v-193h-58v193h-158v45h156l-40 87h-116z" />
    <glyph glyph-name="brokenbar" unicode="&#xa6;" horiz-adv-x="217" 
d="M85 334v366h47v-366h-47zM85 -180v366h47v-366h-47z" />
    <glyph glyph-name="section" unicode="&#xa7;" horiz-adv-x="563" 
d="M420 138q56 -43 56 -125q0 -156 -206 -156q-34 0 -75.5 4t-66.5 8l-25 4l3 45q91 -15 161 -15q80 0 117 26.5t37 81.5q0 38 -19 62t-49 35t-66.5 18t-72.5 15.5t-66 22.5t-49 44t-19 76q0 34 16 70t31.5 55.5t17.5 19.5q-58 42 -58 125q0 156 206 156q34 0 75.5 -4
t66.5 -8l25 -4l-3 -45q-91 15 -161 15q-80 0 -117 -26.5t-37 -81.5q0 -38 19 -62t49 -35t66 -18t72.5 -15.5t66.5 -22.5t49 -44t19 -76q0 -34 -15.5 -70t-31.5 -55zM383 155q43 59 43 118q0 35 -16.5 58t-46 34t-59 17.5t-66.5 13.5t-58 16q-43 -59 -43 -118q0 -35 16.5 -58
t46 -34t59 -17.5t66.5 -13.5t58 -16z" />
    <glyph glyph-name="dieresis" unicode="&#xa8;" horiz-adv-x="231" 
d="M0 590v80h61v-80h-61zM170 590v80h61v-80h-61z" />
    <glyph glyph-name="copyright" unicode="&#xa9;" horiz-adv-x="840" 
d="M60 350q0 150 105.5 255t254.5 105q150 0 255 -105t105 -255q0 -149 -105 -254.5t-255 -105.5q-149 0 -254.5 105.5t-105.5 254.5zM105 350q0 -129 93 -222t222 -93q130 0 223 93t93 222q0 130 -93 223t-223 93q-129 0 -222 -93t-93 -223zM519 212l6 -40
q-39 -14 -100 -14q-67 0 -104 35.5t-39 90.5q-3 67 0 134q2 54 39.5 90t104.5 36q24 0 47.5 -2.5t34.5 -5.5l12 -2l-5 -40q-43 8 -91 8q-40 0 -65 -23.5t-27 -57.5q-3 -70 0 -142q2 -33 26.5 -56t65.5 -23q27 0 50.5 3t33.5 6z" />
    <glyph glyph-name="ordfeminine" unicode="&#xaa;" horiz-adv-x="354" 
d="M251 383l-3 34q-56 -41 -104 -41q-43 0 -68.5 27.5t-25.5 69.5q0 44 26 72t72 28h99v32q0 29 -19.5 50.5t-53.5 21.5q-23 0 -48.5 -3.5t-39.5 -6.5l-14 -3l-4 33q53 13 105 13q53 0 82 -28.5t29 -72.5v-226h-33zM146 413q20 0 45 11.5t41 22.5l15 11v82h-96
q-30 0 -45.5 -18.5t-15.5 -47.5q0 -61 56 -61zM60 290v34h224v-34h-224z" />
    <glyph glyph-name="guillemotleft" unicode="&#xab;" horiz-adv-x="455" 
d="M245 137h-60l-120 154l120 153h60l-120 -153zM385 137h-60l-120 154l120 153h60l-120 -153z" />
    <glyph glyph-name="logicalnot" unicode="&#xac;" 
d="M504 316v-238h-53v190h-376v48h429z" />
    <glyph glyph-name="uni00AD" unicode="&#xad;" horiz-adv-x="833" 
 />
    <glyph glyph-name="registered" unicode="&#xae;" horiz-adv-x="528" 
d="M313 383l-42 78h-40v-78h-38v227h90q27 0 42.5 -15.5t15.5 -37.5v-41q0 -39 -33 -51l49 -82h-44zM305 514v44q0 13 -22 13h-52v-74h52q22 0 22 17zM50 496q0 88 63 151t151 63t151 -63t63 -151t-63 -151t-151 -63t-151 63t-63 151zM89 496q0 -74 50.5 -124.5t124.5 -50.5
t124.5 50.5t50.5 124.5t-50.5 124.5t-124.5 50.5t-124.5 -50.5t-50.5 -124.5z" />
    <glyph glyph-name="macron" unicode="&#xaf;" horiz-adv-x="277" 
d="M0 599v46h277v-46h-277z" />
    <glyph glyph-name="degree" unicode="&#xb0;" horiz-adv-x="379" 
d="M50 571q0 58 41 98.5t98 40.5q58 0 99 -40.5t41 -98.5q0 -57 -41 -98t-99 -41q-57 0 -98 41t-41 98zM88 571q0 -41 30 -71.5t71 -30.5q42 0 72 30t30 72t-30 72t-72 30q-41 0 -71 -30.5t-30 -71.5z" />
    <glyph glyph-name="plusminus" unicode="&#xb1;" 
d="M504 47v-47h-429v47h429zM265 500h48v-157h191v-48h-191v-159h-48v159h-190v48h190v157z" />
    <glyph glyph-name="twosuperior" unicode="&#xb2;" horiz-adv-x="380" 
d="M76 653l-2 43q55 14 111 14q62 0 98.5 -30.5t36.5 -94.5q0 -40 -14 -67t-43 -56l-153 -155h209v-44h-259v52l160 169q30 32 40 51t10 52q0 39 -25 59.5t-65 20.5q-20 0 -46 -3.5t-42 -7.5z" />
    <glyph glyph-name="threesuperior" unicode="&#xb3;" horiz-adv-x="376" 
d="M64 656v44h237v-48l-102 -127q46 -3 81.5 -32.5t35.5 -93.5q0 -42 -13.5 -72t-36 -45.5t-45.5 -22t-47 -6.5q-30 0 -58.5 4.5t-41.5 8.5l-14 4l2 40q56 -13 109 -13q95 0 95 103q0 28 -8.5 45.5t-25 25t-30 9.5t-32.5 2h-25v42l106 132h-187z" />
    <glyph glyph-name="acute" unicode="&#xb4;" horiz-adv-x="188" 
d="M58 575h-58l108 125h80z" />
    <glyph glyph-name="mu" unicode="&#xb5;" horiz-adv-x="505" 
d="M71 -180l-1 680h50v-348q0 -51 25.5 -84.5t78.5 -33.5q35 0 75 15t63 31l23 15v405h50v-500h-46l-4 48l-26.5 -16t-59.5 -26t-77 -16q-31 0 -56.5 10t-35.5 20l-10 9v-209h-49z" />
    <glyph glyph-name="paragraph" unicode="&#xb6;" horiz-adv-x="489" 
d="M261 -180v499q-86 0 -148.5 56.5t-62.5 131.5q0 81 57 137t139 56h163v-880h-53v831h-51v-831h-44z" />
    <glyph glyph-name="periodcentered" unicode="&#xb7;" horiz-adv-x="221" 
d="M80 254v79h61v-79h-61z" />
    <glyph glyph-name="cedilla" unicode="&#xb8;" horiz-adv-x="220" 
d="M220 -110q0 -78 -82 -78q-13 0 -31 2t-30 4l-12 3l3 34q35 -7 57 -7q46 0 46 42q0 35 -46 35h-37l17 75h45l-9 -45q38 0 58.5 -14t20.5 -51z" />
    <glyph glyph-name="onesuperior" unicode="&#xb9;" horiz-adv-x="237" 
d="M50 622v42l70 36h47v-437h-45v393z" />
    <glyph glyph-name="ordmasculine" unicode="&#xba;" horiz-adv-x="353" 
d="M301 478q-2 -43 -35 -72.5t-88 -29.5q-57 0 -90.5 29.5t-35.5 72.5q-3 65 0 130q2 43 35.5 72.5t90.5 29.5q55 0 88 -29t35 -73q3 -65 0 -130zM260 605q-2 31 -23.5 50t-59.5 19q-36 0 -58.5 -19.5t-24.5 -48.5q-3 -63 0 -126q2 -29 24.5 -48t59.5 -19t58.5 19t23.5 49
q3 62 0 124zM58 290v34h236v-34h-236z" />
    <glyph glyph-name="guillemotright" unicode="&#xbb;" horiz-adv-x="455" 
d="M270 137h-60l120 154l-120 153h60l120 -153zM130 137h-60l120 154l-120 153h60l120 -153z" />
    <glyph glyph-name="onequarter" unicode="&#xbc;" horiz-adv-x="689" 
d="M354 98v39l151 300h49l-152 -300h152v113h45v-113h40v-39h-40v-98h-45v98h-200zM50 622v42l70 36h47v-437h-45v393zM127 0l315 700h50l-316 -700h-49z" />
    <glyph glyph-name="onehalf" unicode="&#xbd;" horiz-adv-x="766" 
d="M50 622v42l70 36h47v-437h-45v393zM450 433l2 -43q58 14 104 14q40 0 65 -20.5t25 -59.5q0 -33 -10 -52t-40 -51l-160 -169v-52h259v44h-209l153 155q29 29 43 56t14 67q0 64 -36.5 94.5t-98.5 30.5q-25 0 -52.5 -3.5t-42.5 -7.5zM127 0l315 700h50l-316 -700h-49z" />
    <glyph glyph-name="threequarters" unicode="&#xbe;" horiz-adv-x="810" 
d="M475 98v39l151 300h49l-152 -300h152v113h45v-113h40v-39h-40v-98h-45v98h-200zM74 656v44h237v-48l-102 -127q46 -3 81.5 -32.5t35.5 -93.5q0 -42 -13.5 -72t-36 -45.5t-45.5 -22t-47 -6.5q-30 0 -58.5 4.5t-41.5 8.5l-14 4l2 40q56 -13 109 -13q95 0 95 103
q0 28 -8.5 45.5t-25 25t-30 9.5t-32.5 2h-25v42l106 132h-187zM248 0l315 700h50l-316 -700h-49z" />
    <glyph glyph-name="questiondown" unicode="&#xbf;" horiz-adv-x="502" 
d="M452 -185l-4 47q-85 -23 -168 -23q-171 0 -171 134q0 41 13 68t34 41t46 24.5t50 23.5t46 32.5t34 57t13 92.5h-50q0 -46 -13.5 -77t-35 -47t-48 -27t-52.5 -23t-47.5 -29.5t-35 -52t-13.5 -84.5q0 -91 62 -136.5t163 -45.5q45 0 89.5 6t65.5 12zM350 500v-79h-61v79h61z
" />
    <glyph glyph-name="Agrave" unicode="&#xc0;" horiz-adv-x="575" 
d="M245 700h85l225 -700h-56l-69 217h-284l-69 -217h-57zM415 264l-124 388h-7l-123 -388h254zM322 775h-58l-130 125h80z" />
    <glyph glyph-name="Aacute" unicode="&#xc1;" horiz-adv-x="575" 
d="M245 700h85l225 -700h-56l-69 217h-284l-69 -217h-57zM415 264l-124 388h-7l-123 -388h254zM307 775h-58l108 125h80z" />
    <glyph glyph-name="Acircumflex" unicode="&#xc2;" horiz-adv-x="575" 
d="M245 700h85l225 -700h-56l-69 217h-284l-69 -217h-57zM415 264l-124 388h-7l-123 -388h254zM213 775h-54l98 125h60l98 -125h-54l-74 77z" />
    <glyph glyph-name="Atilde" unicode="&#xc3;" horiz-adv-x="575" 
d="M245 700h85l225 -700h-56l-69 217h-284l-69 -217h-57zM415 264l-124 388h-7l-123 -388h254zM187 783h-45q0 28 23 58.5t57 30.5q29 0 69.5 -24t58.5 -24q16 0 26 12.5t12 30.5h45q0 -29 -23 -59t-57 -30q-30 0 -70.5 24t-57.5 24q-16 0 -26 -12.5t-12 -30.5z" />
    <glyph glyph-name="Adieresis" unicode="&#xc4;" horiz-adv-x="575" 
d="M245 700h85l225 -700h-56l-69 217h-284l-69 -217h-57zM415 264l-124 388h-7l-123 -388h254zM172 790v80h61v-80h-61zM342 790v80h61v-80h-61z" />
    <glyph glyph-name="Aring" unicode="&#xc5;" horiz-adv-x="575" 
d="M245 700h85l225 -700h-56l-69 217h-284l-69 -217h-57zM415 264l-124 388h-7l-123 -388h254zM205 836q0 34 23.5 56.5t57.5 22.5q33 0 57.5 -23t24.5 -56t-24.5 -55.5t-57.5 -22.5q-34 0 -57.5 22.5t-23.5 55.5zM246 837q0 -16 12 -28t28 -12t28.5 12t12.5 28
q0 17 -12.5 29t-28.5 12t-28 -12t-12 -29z" />
    <glyph glyph-name="AE" unicode="&#xc6;" horiz-adv-x="944" 
d="M410 700h473v-49h-341v-263h309v-48h-309v-291h352v-49h-409v215h-295l-123 -215h-57zM485 262v390h-47l-221 -390h268z" />
    <glyph glyph-name="Ccedilla" unicode="&#xc7;" horiz-adv-x="520" 
d="M472 60l3 -50q-87 -19 -151 -20l-7 -35q38 0 58.5 -14t20.5 -51q0 -78 -82 -78q-13 0 -31 2t-30 4l-12 3l3 34q35 -7 57 -7q46 0 46 42q0 35 -46 35h-37l15 68q-94 11 -152 73t-60 146q-3 137 0 276q2 92 72.5 157t178.5 65q34 0 72 -4.5t59 -9.5l21 -4l-3 -50
q-84 18 -149 18q-87 0 -138 -50t-53 -122q-3 -138 0 -276q2 -72 52.5 -122t138.5 -50q30 0 68.5 5t61.5 10z" />
    <glyph glyph-name="Egrave" unicode="&#xc8;" horiz-adv-x="551" 
d="M80 700h411v-49h-354v-263h321v-48h-321v-291h364v-49h-421v700zM328 775h-58l-130 125h80z" />
    <glyph glyph-name="Eacute" unicode="&#xc9;" horiz-adv-x="551" 
d="M80 700h411v-49h-354v-263h321v-48h-321v-291h364v-49h-421v700zM316 775h-58l108 125h80z" />
    <glyph glyph-name="Ecircumflex" unicode="&#xca;" horiz-adv-x="551" 
d="M80 700h411v-49h-354v-263h321v-48h-321v-291h364v-49h-421v700zM201 775h-54l98 125h60l98 -125h-54l-74 77z" />
    <glyph glyph-name="Edieresis" unicode="&#xcb;" horiz-adv-x="551" 
d="M80 700h411v-49h-354v-263h321v-48h-321v-291h364v-49h-421v700zM160 790v80h61v-80h-61zM330 790v80h61v-80h-61z" />
    <glyph glyph-name="Igrave" unicode="&#xcc;" horiz-adv-x="217" 
d="M137 700v-700h-57v700h57zM140 775h-58l-130 125h80z" />
    <glyph glyph-name="Iacute" unicode="&#xcd;" horiz-adv-x="217" 
d="M137 700v-700h-57v700h57zM136 775h-58l108 125h80z" />
    <glyph glyph-name="Icircumflex" unicode="&#xce;" horiz-adv-x="217" 
d="M137 700v-700h-57v700h57zM35 775h-54l98 125h60l98 -125h-54l-74 77z" />
    <glyph glyph-name="Idieresis" unicode="&#xcf;" horiz-adv-x="217" 
d="M137 700v-700h-57v700h57zM-7 790v80h61v-80h-61zM163 790v80h61v-80h-61z" />
    <glyph glyph-name="Eth" unicode="&#xd0;" horiz-adv-x="616" 
d="M30 389h63v311h205q109 0 179 -60.5t72 -151.5q3 -139 0 -276q-2 -92 -71.5 -152t-179.5 -60h-205v340h-63v49zM298 651h-148v-262h153v-49h-153v-291h148q89 0 140 46t53 117q3 138 0 276q-2 71 -53.5 117t-139.5 46z" />
    <glyph glyph-name="Ntilde" unicode="&#xd1;" horiz-adv-x="631" 
d="M494 700h56v-700h-78l-314 583l-21 52v-635h-56v700h78l314 -583l21 -53v636zM215 783h-45q0 28 23 58.5t57 30.5q30 0 70 -24t58 -24q16 0 26 12.5t12 30.5h45q0 -29 -23 -59t-57 -30q-30 0 -70.5 24t-57.5 24q-16 0 -26 -12.5t-12 -30.5z" />
    <glyph glyph-name="Ograve" unicode="&#xd2;" horiz-adv-x="622" 
d="M311 710q107 0 174.5 -64.5t69.5 -157.5q3 -139 0 -276q-2 -93 -69 -157.5t-175 -64.5t-175 64.5t-69 157.5q-3 137 0 276q2 93 69.5 157.5t174.5 64.5zM311 39q87 0 134.5 50t49.5 123q3 138 0 276q-2 73 -50 123t-134 50t-134 -50t-50 -123q-3 -138 0 -276
q2 -73 49.5 -123t134.5 -50zM354 775h-58l-130 125h80z" />
    <glyph glyph-name="Oacute" unicode="&#xd3;" horiz-adv-x="622" 
d="M311 710q107 0 174.5 -64.5t69.5 -157.5q3 -139 0 -276q-2 -93 -69 -157.5t-175 -64.5t-175 64.5t-69 157.5q-3 137 0 276q2 93 69.5 157.5t174.5 64.5zM311 39q87 0 134.5 50t49.5 123q3 138 0 276q-2 73 -50 123t-134 50t-134 -50t-50 -123q-3 -138 0 -276
q2 -73 49.5 -123t134.5 -50zM341 775h-58l108 125h80z" />
    <glyph glyph-name="Ocircumflex" unicode="&#xd4;" horiz-adv-x="622" 
d="M311 710q107 0 174.5 -64.5t69.5 -157.5q3 -139 0 -276q-2 -93 -69 -157.5t-175 -64.5t-175 64.5t-69 157.5q-3 137 0 276q2 93 69.5 157.5t174.5 64.5zM311 39q87 0 134.5 50t49.5 123q3 138 0 276q-2 73 -50 123t-134 50t-134 -50t-50 -123q-3 -138 0 -276
q2 -73 49.5 -123t134.5 -50zM237 775h-54l98 125h60l98 -125h-54l-74 77z" />
    <glyph glyph-name="Otilde" unicode="&#xd5;" horiz-adv-x="622" 
d="M311 710q107 0 174.5 -64.5t69.5 -157.5q3 -139 0 -276q-2 -93 -69 -157.5t-175 -64.5t-175 64.5t-69 157.5q-3 137 0 276q2 93 69.5 157.5t174.5 64.5zM311 39q87 0 134.5 50t49.5 123q3 138 0 276q-2 73 -50 123t-134 50t-134 -50t-50 -123q-3 -138 0 -276
q2 -73 49.5 -123t134.5 -50zM210 783h-45q0 28 23 58.5t57 30.5q29 0 70 -24t58 -24q16 0 26 12.5t12 30.5h45q0 -29 -23 -59t-57 -30q-30 0 -70.5 24t-57.5 24q-16 0 -26 -12.5t-12 -30.5z" />
    <glyph glyph-name="Odieresis" unicode="&#xd6;" horiz-adv-x="622" 
d="M311 710q107 0 174.5 -64.5t69.5 -157.5q3 -139 0 -276q-2 -93 -69 -157.5t-175 -64.5t-175 64.5t-69 157.5q-3 137 0 276q2 93 69.5 157.5t174.5 64.5zM311 39q87 0 134.5 50t49.5 123q3 138 0 276q-2 73 -50 123t-134 50t-134 -50t-50 -123q-3 -138 0 -276
q2 -73 49.5 -123t134.5 -50zM195 790v80h61v-80h-61zM365 790v80h61v-80h-61z" />
    <glyph glyph-name="multiply" unicode="&#xd7;" 
d="M107 430l34 34l148 -148l150 149l34 -33l-150 -150l149 -149l-34 -34l-149 149l-149 -149l-34 33l149 150z" />
    <glyph glyph-name="Oslash" unicode="&#xd8;" horiz-adv-x="622" 
d="M70 0l46 75q-47 58 -49 137q-3 137 0 276q2 93 69.5 157.5t174.5 64.5q92 0 159 -52l26 42h56l-47 -76q47 -57 50 -136q3 -139 0 -276q-2 -93 -69 -157.5t-175 -64.5q-95 0 -160 51l-25 -41h-56zM311 39q87 0 134.5 50t49.5 123q3 138 0 276q-1 45 -21 84l-296 -486
q50 -47 133 -47zM127 212q0 -44 21 -84l295 485q-51 48 -132 48q-86 0 -134 -50t-50 -123q-3 -138 0 -276z" />
    <glyph glyph-name="Ugrave" unicode="&#xd9;" horiz-adv-x="634" 
d="M502 700h57v-488q0 -94 -66.5 -158t-175.5 -64q-110 0 -176 63.5t-66 158.5v488h57v-488q0 -73 49 -123t136 -50q86 0 135.5 50.5t49.5 122.5v488zM356 775h-58l-130 125h80z" />
    <glyph glyph-name="Uacute" unicode="&#xda;" horiz-adv-x="634" 
d="M502 700h57v-488q0 -94 -66.5 -158t-175.5 -64q-110 0 -176 63.5t-66 158.5v488h57v-488q0 -73 49 -123t136 -50q86 0 135.5 50.5t49.5 122.5v488zM349 775h-58l108 125h80z" />
    <glyph glyph-name="Ucircumflex" unicode="&#xdb;" horiz-adv-x="634" 
d="M502 700h57v-488q0 -94 -66.5 -158t-175.5 -64q-110 0 -176 63.5t-66 158.5v488h57v-488q0 -73 49 -123t136 -50q86 0 135.5 50.5t49.5 122.5v488zM243 775h-54l98 125h60l98 -125h-54l-74 77z" />
    <glyph glyph-name="Udieresis" unicode="&#xdc;" horiz-adv-x="634" 
d="M502 700h57v-488q0 -94 -66.5 -158t-175.5 -64q-110 0 -176 63.5t-66 158.5v488h57v-488q0 -73 49 -123t136 -50q86 0 135.5 50.5t49.5 122.5v488zM201 790v80h61v-80h-61zM371 790v80h61v-80h-61z" />
    <glyph glyph-name="Yacute" unicode="&#xdd;" horiz-adv-x="555" 
d="M81 700l194 -365h4l195 365h66l-234 -422v-278h-57v278l-234 422h66zM300 775h-58l108 125h80z" />
    <glyph glyph-name="Thorn" unicode="&#xde;" horiz-adv-x="547" 
d="M80 0v700h57v-100h197q78 0 123.5 -42t47.5 -106q3 -69 0 -139q-2 -64 -47.5 -106t-123.5 -42h-197v-165h-57zM448 308q3 74 0 148q-5 95 -112 95h-199v-337h199q108 0 112 94z" />
    <glyph glyph-name="germandbls" unicode="&#xdf;" horiz-adv-x="519" 
d="M202 3l7 41q46 -10 99 -10q120 0 120 95q0 39 -17.5 65.5t-42.5 41.5l-50 30.5t-42.5 43t-17.5 67.5q0 28 12.5 52t30 39t35.5 26t30 16l13 4v35q0 53 -34 85t-96 32t-95.5 -37t-33.5 -91v-538h-50v545q0 68 47 116.5t133 48.5q78 0 128 -44.5t50 -109.5v-62
q-5 -1 -13 -4t-28.5 -13.5t-36.5 -23t-29 -33t-13 -43.5q0 -24 12.5 -42.5t31.5 -29.5t41.5 -26t41.5 -31t31.5 -45.5t12.5 -68.5q0 -143 -181 -143q-22 0 -46 3t-37 6z" />
    <glyph glyph-name="agrave" unicode="&#xe0;" horiz-adv-x="477" 
d="M367 0l-5 59q-9 -8 -25 -19.5t-60.5 -30.5t-82.5 -19q-67 0 -105.5 42t-38.5 109t36.5 111t107.5 44h168v52q0 50 -30 84t-85 34q-34 0 -74.5 -5t-64.5 -9l-23 -5l-5 44q92 19 165 19q82 0 124.5 -44t42.5 -112v-354h-45zM197 34q37 0 78.5 20t64.5 40l22 21v137h-164
q-97 0 -97 -110q0 -48 23 -78t73 -30zM284 575h-58l-130 125h80z" />
    <glyph glyph-name="aacute" unicode="&#xe1;" horiz-adv-x="477" 
d="M367 0l-5 59q-9 -8 -25 -19.5t-60.5 -30.5t-82.5 -19q-67 0 -105.5 42t-38.5 109t36.5 111t107.5 44h168v52q0 50 -30 84t-85 34q-34 0 -74.5 -5t-64.5 -9l-23 -5l-5 44q92 19 165 19q82 0 124.5 -44t42.5 -112v-354h-45zM197 34q37 0 78.5 20t64.5 40l22 21v137h-164
q-97 0 -97 -110q0 -48 23 -78t73 -30zM265 575h-58l108 125h80z" />
    <glyph glyph-name="acircumflex" unicode="&#xe2;" horiz-adv-x="477" 
d="M367 0l-5 59q-9 -8 -25 -19.5t-60.5 -30.5t-82.5 -19q-67 0 -105.5 42t-38.5 109t36.5 111t107.5 44h168v52q0 50 -30 84t-85 34q-34 0 -74.5 -5t-64.5 -9l-23 -5l-5 44q92 19 165 19q82 0 124.5 -44t42.5 -112v-354h-45zM197 34q37 0 78.5 20t64.5 40l22 21v137h-164
q-97 0 -97 -110q0 -48 23 -78t73 -30zM164 575h-54l98 125h60l98 -125h-54l-74 77z" />
    <glyph glyph-name="atilde" unicode="&#xe3;" horiz-adv-x="477" 
d="M367 0l-5 59q-9 -8 -25 -19.5t-60.5 -30.5t-82.5 -19q-67 0 -105.5 42t-38.5 109t36.5 111t107.5 44h168v52q0 50 -30 84t-85 34q-34 0 -74.5 -5t-64.5 -9l-23 -5l-5 44q92 19 165 19q82 0 124.5 -44t42.5 -112v-354h-45zM197 34q37 0 78.5 20t64.5 40l22 21v137h-164
q-97 0 -97 -110q0 -48 23 -78t73 -30zM138 583h-45q0 28 23 58.5t57 30.5q29 0 70 -24t58 -24q16 0 26 12.5t12 30.5h45q0 -29 -23 -59t-57 -30q-30 0 -70.5 24t-57.5 24q-16 0 -26 -12.5t-12 -30.5z" />
    <glyph glyph-name="adieresis" unicode="&#xe4;" horiz-adv-x="477" 
d="M367 0l-5 59q-9 -8 -25 -19.5t-60.5 -30.5t-82.5 -19q-67 0 -105.5 42t-38.5 109t36.5 111t107.5 44h168v52q0 50 -30 84t-85 34q-34 0 -74.5 -5t-64.5 -9l-23 -5l-5 44q92 19 165 19q82 0 124.5 -44t42.5 -112v-354h-45zM197 34q37 0 78.5 20t64.5 40l22 21v137h-164
q-97 0 -97 -110q0 -48 23 -78t73 -30zM123 590v80h61v-80h-61zM293 590v80h61v-80h-61z" />
    <glyph glyph-name="aring" unicode="&#xe5;" horiz-adv-x="477" 
d="M367 0l-5 59q-9 -8 -25 -19.5t-60.5 -30.5t-82.5 -19q-67 0 -105.5 42t-38.5 109t36.5 111t107.5 44h168v52q0 50 -30 84t-85 34q-34 0 -74.5 -5t-64.5 -9l-23 -5l-5 44q92 19 165 19q82 0 124.5 -44t42.5 -112v-354h-45zM197 34q37 0 78.5 20t64.5 40l22 21v137h-164
q-97 0 -97 -110q0 -48 23 -78t73 -30zM156 636q0 34 23.5 56.5t57.5 22.5q33 0 57.5 -23t24.5 -56t-24.5 -55.5t-57.5 -22.5q-34 0 -57.5 22.5t-23.5 55.5zM197 637q0 -16 12 -28t28 -12t28.5 12t12.5 28q0 17 -12 29t-29 12q-16 0 -28 -12t-12 -29z" />
    <glyph glyph-name="ae" unicode="&#xe6;" horiz-adv-x="762" 
d="M688 53l7 -43q-67 -21 -156 -21q-34 0 -63.5 8.5t-46 20.5t-28.5 24t-17 20l-4 9q-10 -9 -27.5 -22.5t-66.5 -36.5t-93 -23q-67 0 -105 41.5t-38 108.5q0 65 36 104.5t107 39.5h168q0 38 -1 66q-2 50 -30.5 84t-83.5 34q-27 0 -67.5 -5t-66.5 -10l-27 -5l-6 44
q108 20 171 20q29 0 54.5 -7.5t40 -18t25.5 -21t15 -18.5l4 -7l5.5 8t16.5 17t29 21.5t42.5 17.5t56.5 8q79 0 126 -45t47 -112v-115h-300q0 -60 1 -88q2 -49 35 -83.5t90 -34.5q31 0 68.5 5t59.5 10zM197 34q37 0 79 21t66 43l23 21l-5 120h-162q-53 0 -75 -25t-22 -74
q0 -106 96 -106zM413 349l-1 -66h250q0 46 -1 66q-3 49 -35.5 83.5t-84.5 34.5q-60 0 -93 -33t-35 -85z" />
    <glyph glyph-name="ccedilla" unicode="&#xe7;" horiz-adv-x="399" 
d="M362 48l7 -42q-56 -14 -116 -16l-7 -35q38 0 58.5 -14t20.5 -51q0 -78 -82 -78q-13 0 -31 2t-30 4l-12 3l3 34q35 -7 57 -7q46 0 46 42q0 35 -46 35h-37l15 67q-68 9 -106 51.5t-40 102.5q-3 104 0 208q2 67 50 111.5t131 44.5q24 0 53.5 -3t47.5 -6l17 -3l-5 -43
q-67 11 -114 11q-58 0 -92.5 -33.5t-36.5 -82.5q-3 -100 0 -201q2 -48 36.5 -81.5t92.5 -33.5q29 0 59 3.5t45 6.5z" />
    <glyph glyph-name="egrave" unicode="&#xe8;" horiz-adv-x="462" 
d="M388 54l7 -41q-60 -23 -157 -23q-83 0 -128.5 44t-47.5 112q-3 103 0 208q2 66 49 111t127 45q79 0 126.5 -45t47.5 -111v-120h-300q0 -56 1 -83q2 -50 34 -83.5t93 -33.5q37 0 74 5t56 10zM113 349l-1 -71h250q0 50 -1 71q-2 49 -35.5 83t-85.5 34q-60 0 -92.5 -32.5
t-34.5 -84.5zM287 575h-58l-130 125h80z" />
    <glyph glyph-name="eacute" unicode="&#xe9;" horiz-adv-x="462" 
d="M388 54l7 -41q-60 -23 -157 -23q-83 0 -128.5 44t-47.5 112q-3 103 0 208q2 66 49 111t127 45q79 0 126.5 -45t47.5 -111v-120h-300q0 -56 1 -83q2 -50 34 -83.5t93 -33.5q37 0 74 5t56 10zM113 349l-1 -71h250q0 50 -1 71q-2 49 -35.5 83t-85.5 34q-60 0 -92.5 -32.5
t-34.5 -84.5zM271 575h-58l108 125h80z" />
    <glyph glyph-name="ecircumflex" unicode="&#xea;" horiz-adv-x="462" 
d="M388 54l7 -41q-60 -23 -157 -23q-83 0 -128.5 44t-47.5 112q-3 103 0 208q2 66 49 111t127 45q79 0 126.5 -45t47.5 -111v-120h-300q0 -56 1 -83q2 -50 34 -83.5t93 -33.5q37 0 74 5t56 10zM113 349l-1 -71h250q0 50 -1 71q-2 49 -35.5 83t-85.5 34q-60 0 -92.5 -32.5
t-34.5 -84.5zM171 575h-54l98 125h60l98 -125h-54l-74 77z" />
    <glyph glyph-name="edieresis" unicode="&#xeb;" horiz-adv-x="462" 
d="M388 54l7 -41q-60 -23 -157 -23q-83 0 -128.5 44t-47.5 112q-3 103 0 208q2 66 49 111t127 45q79 0 126.5 -45t47.5 -111v-120h-300q0 -56 1 -83q2 -50 34 -83.5t93 -33.5q37 0 74 5t56 10zM113 349l-1 -71h250q0 50 -1 71q-2 49 -35.5 83t-85.5 34q-60 0 -92.5 -32.5
t-34.5 -84.5zM127 590v80h61v-80h-61zM297 590v80h61v-80h-61z" />
    <glyph glyph-name="igrave" unicode="&#xec;" horiz-adv-x="195" 
d="M72 0v500h50v-500h-50zM129 575h-58l-130 125h80z" />
    <glyph glyph-name="iacute" unicode="&#xed;" horiz-adv-x="195" 
d="M72 0v500h50v-500h-50zM119 575h-58l108 125h80z" />
    <glyph glyph-name="icircumflex" unicode="&#xee;" horiz-adv-x="195" 
d="M72 0v500h50v-500h-50zM24 575h-54l98 125h60l98 -125h-54l-74 77z" />
    <glyph glyph-name="idieresis" unicode="&#xef;" horiz-adv-x="195" 
d="M72 0v500h50v-500h-50zM-18 590v80h61v-80h-61zM152 590v80h61v-80h-61z" />
    <glyph glyph-name="eth" unicode="&#xf0;" horiz-adv-x="508" 
d="M443 668v-43l-57 -26q51 -86 54 -180q5 -136 0 -275q-2 -66 -52.5 -110t-132.5 -44q-88 0 -137 43.5t-51 110.5q-2 83 0 167q2 67 51 110.5t137 43.5q33 0 66.5 -8.5t50.5 -16.5l18 -8q0 23 -13.5 68.5t-35.5 78.5l-85 -39v43l63 28q-62 55 -133 55l-26 -1l-4 43
q28 2 34 2q98 0 173 -78zM390 148q4 118 0 237q-56 38 -136 38q-61 0 -98 -32.5t-39 -81.5q-3 -81 0 -162q2 -49 39 -81t99 -32q60 0 96.5 34.5t38.5 79.5z" />
    <glyph glyph-name="ntilde" unicode="&#xf1;" horiz-adv-x="520" 
d="M120 0h-50v500h46l4 -48l26.5 15.5t59.5 25t77 15.5q76 0 114 -42.5t38 -111.5v-354h-50v348q0 51 -25 83.5t-79 32.5q-35 0 -75 -15t-63 -29l-23 -15v-405zM159 583h-45q0 28 23 58.5t57 30.5q30 0 70 -24t58 -24q16 0 26 12.5t12 30.5h45q0 -29 -23 -59t-57 -30
q-30 0 -70.5 24t-57.5 24q-16 0 -26 -12.5t-12 -30.5z" />
    <glyph glyph-name="ograve" unicode="&#xf2;" horiz-adv-x="493" 
d="M431 146q-2 -68 -51 -112t-133 -44q-88 0 -135.5 44t-49.5 112q-3 104 0 208q2 68 49.5 112t135.5 44q83 0 132.5 -45t51.5 -111q3 -105 0 -208zM380 350q-2 52 -36 84t-98 32q-62 0 -96.5 -32.5t-36.5 -82.5q-3 -100 0 -202q2 -50 36.5 -82.5t97.5 -32.5t97 32t36 83
q3 101 0 201zM284 575h-58l-130 125h80z" />
    <glyph glyph-name="oacute" unicode="&#xf3;" horiz-adv-x="493" 
d="M431 146q-2 -68 -51 -112t-133 -44q-88 0 -135.5 44t-49.5 112q-3 104 0 208q2 68 49.5 112t135.5 44q83 0 132.5 -45t51.5 -111q3 -105 0 -208zM380 350q-2 52 -36 84t-98 32q-62 0 -96.5 -32.5t-36.5 -82.5q-3 -100 0 -202q2 -50 36.5 -82.5t97.5 -32.5t97 32t36 83
q3 101 0 201zM260 575h-58l108 125h80z" />
    <glyph glyph-name="ocircumflex" unicode="&#xf4;" horiz-adv-x="493" 
d="M431 146q-2 -68 -51 -112t-133 -44q-88 0 -135.5 44t-49.5 112q-3 104 0 208q2 68 49.5 112t135.5 44q83 0 132.5 -45t51.5 -111q3 -105 0 -208zM380 350q-2 52 -36 84t-98 32q-62 0 -96.5 -32.5t-36.5 -82.5q-3 -100 0 -202q2 -50 36.5 -82.5t97.5 -32.5t97 32t36 83
q3 101 0 201zM172 575h-54l98 125h60l98 -125h-54l-74 77z" />
    <glyph glyph-name="otilde" unicode="&#xf5;" horiz-adv-x="493" 
d="M431 146q-2 -68 -51 -112t-133 -44q-88 0 -135.5 44t-49.5 112q-3 104 0 208q2 68 49.5 112t135.5 44q83 0 132.5 -45t51.5 -111q3 -105 0 -208zM380 350q-2 52 -36 84t-98 32q-62 0 -96.5 -32.5t-36.5 -82.5q-3 -100 0 -202q2 -50 36.5 -82.5t97.5 -32.5t97 32t36 83
q3 101 0 201zM146 583h-45q0 28 23 58.5t57 30.5q29 0 70 -24t58 -24q16 0 26 12.5t12 30.5h45q0 -29 -23 -59t-57 -30q-30 0 -70.5 24t-57.5 24q-16 0 -26 -12.5t-12 -30.5z" />
    <glyph glyph-name="odieresis" unicode="&#xf6;" horiz-adv-x="493" 
d="M431 146q-2 -68 -51 -112t-133 -44q-88 0 -135.5 44t-49.5 112q-3 104 0 208q2 68 49.5 112t135.5 44q83 0 132.5 -45t51.5 -111q3 -105 0 -208zM380 350q-2 52 -36 84t-98 32q-62 0 -96.5 -32.5t-36.5 -82.5q-3 -100 0 -202q2 -50 36.5 -82.5t97.5 -32.5t97 32t36 83
q3 101 0 201zM131 590v80h61v-80h-61zM301 590v80h61v-80h-61z" />
    <glyph glyph-name="divide" unicode="&#xf7;" 
d="M251 78v74h75v-74h-75zM251 412v73h75v-73h-75zM75 306h429v-48h-429v48z" />
    <glyph glyph-name="oslash" unicode="&#xf8;" horiz-adv-x="493" 
d="M62 0l33 51q-31 39 -33 95q-3 104 0 208q2 68 49.5 112t135.5 44q71 0 119 -35l16 25h50l-35 -54q32 -40 34 -92q3 -105 0 -208q-2 -68 -51 -112t-133 -44q-73 0 -121 32l-14 -22h-50zM113 149q0 -25 12 -51l216 338q-35 30 -95 30q-62 0 -96.5 -32.5t-36.5 -82.5
q-3 -100 0 -202zM380 350q-2 27 -12 51l-216 -338q35 -29 95 -29q63 0 97 32t36 83q3 101 0 201z" />
    <glyph glyph-name="ugrave" unicode="&#xf9;" horiz-adv-x="500" 
d="M380 500h50v-500h-46l-4 48l-26.5 -15.5t-59.5 -25t-77 -15.5q-76 0 -114 42.5t-38 111.5v354h50v-348q0 -51 25 -83.5t79 -32.5q35 0 75 15t63 29l23 15v405zM297 575h-58l-130 125h80z" />
    <glyph glyph-name="uacute" unicode="&#xfa;" horiz-adv-x="500" 
d="M380 500h50v-500h-46l-4 48l-26.5 -15.5t-59.5 -25t-77 -15.5q-76 0 -114 42.5t-38 111.5v354h50v-348q0 -51 25 -83.5t79 -32.5q35 0 75 15t63 29l23 15v405zM269 575h-58l108 125h80z" />
    <glyph glyph-name="ucircumflex" unicode="&#xfb;" horiz-adv-x="500" 
d="M380 500h50v-500h-46l-4 48l-26.5 -15.5t-59.5 -25t-77 -15.5q-76 0 -114 42.5t-38 111.5v354h50v-348q0 -51 25 -83.5t79 -32.5q35 0 75 15t63 29l23 15v405zM176 575h-54l98 125h60l98 -125h-54l-74 77z" />
    <glyph glyph-name="udieresis" unicode="&#xfc;" horiz-adv-x="500" 
d="M380 500h50v-500h-46l-4 48l-26.5 -15.5t-59.5 -25t-77 -15.5q-76 0 -114 42.5t-38 111.5v354h50v-348q0 -51 25 -83.5t79 -32.5q35 0 75 15t63 29l23 15v405zM134 590v80h61v-80h-61zM304 590v80h61v-80h-61z" />
    <glyph glyph-name="yacute" unicode="&#xfd;" horiz-adv-x="456" 
d="M185 22l-170 478h54l152 -433h4l163 433h53l-260 -680h-52l76 194zM258 575h-58l108 125h80z" />
    <glyph glyph-name="thorn" unicode="&#xfe;" horiz-adv-x="497" 
d="M70 -180v880h50v-248l26 16t59.5 26t77.5 16q75 0 112.5 -41.5t39.5 -109.5q3 -105 0 -209q-2 -70 -45.5 -115t-129.5 -45q-32 0 -67 6.5t-54 13.5l-19 6v-196h-50zM384 155q3 100 0 198q-4 113 -103 113q-36 0 -76 -15t-63 -31l-22 -15v-342q50 -29 140 -29
q60 0 91 35.5t33 85.5z" />
    <glyph glyph-name="ydieresis" unicode="&#xff;" horiz-adv-x="456" 
d="M185 22l-170 478h54l152 -433h4l163 433h53l-260 -680h-52l76 194zM110 590v80h61v-80h-61zM280 590v80h61v-80h-61z" />
    <glyph glyph-name="Amacron" unicode="&#x100;" horiz-adv-x="575" 
d="M245 700h85l225 -700h-56l-69 217h-284l-69 -217h-57zM415 264l-124 388h-7l-123 -388h254zM149 799v46h277v-46h-277z" />
    <glyph glyph-name="amacron" unicode="&#x101;" horiz-adv-x="477" 
d="M367 0l-5 59q-9 -8 -25 -19.5t-60.5 -30.5t-82.5 -19q-67 0 -105.5 42t-38.5 109t36.5 111t107.5 44h168v52q0 50 -30 84t-85 34q-34 0 -74.5 -5t-64.5 -9l-23 -5l-5 44q92 19 165 19q82 0 124.5 -44t42.5 -112v-354h-45zM197 34q37 0 78.5 20t64.5 40l22 21v137h-164
q-97 0 -97 -110q0 -48 23 -78t73 -30zM100 599v46h277v-46h-277z" />
    <glyph glyph-name="Abreve" unicode="&#x102;" horiz-adv-x="575" 
d="M245 700h85l225 -700h-56l-69 217h-284l-69 -217h-57zM415 264l-124 388h-7l-123 -388h254zM158 878h50q0 -24 23 -39t57 -15q35 0 57 15t22 39h50q0 -46 -33 -73t-96 -27q-64 0 -97 27.5t-33 72.5z" />
    <glyph glyph-name="abreve" unicode="&#x103;" horiz-adv-x="477" 
d="M367 0l-5 59q-9 -8 -25 -19.5t-60.5 -30.5t-82.5 -19q-67 0 -105.5 42t-38.5 109t36.5 111t107.5 44h168v52q0 50 -30 84t-85 34q-34 0 -74.5 -5t-64.5 -9l-23 -5l-5 44q92 19 165 19q82 0 124.5 -44t42.5 -112v-354h-45zM197 34q37 0 78.5 20t64.5 40l22 21v137h-164
q-97 0 -97 -110q0 -48 23 -78t73 -30zM109 678h50q0 -24 23 -39t57 -15q35 0 57 15t22 39h50q0 -46 -33 -73t-96 -27q-64 0 -97 27.5t-33 72.5z" />
    <glyph glyph-name="Aogonek" unicode="&#x104;" horiz-adv-x="575" 
d="M245 700h85l225 -700q-8 -7 -19.5 -18.5t-31 -40t-19.5 -48.5q0 -19 12.5 -31.5t33.5 -12.5l40 5l5 -34q-35 -10 -64 -10q-38 0 -59.5 23t-21.5 54q0 29 17 57t34 42l17 14l-69 217h-284l-69 -217h-57zM415 264l-124 388h-7l-123 -388h254z" />
    <glyph glyph-name="aogonek" unicode="&#x105;" horiz-adv-x="477" 
d="M428 -146l5 -34q-35 -10 -64 -10q-38 0 -59.5 23t-21.5 54q0 29 20 57t40 42l19 14l-5 59q-9 -8 -25 -19.5t-60.5 -30.5t-82.5 -19q-67 0 -105.5 42t-38.5 109t36.5 111t107.5 44h168v52q0 50 -30 84t-85 34q-34 0 -74.5 -5t-64.5 -9l-23 -5l-5 44q92 19 165 19
q82 0 124.5 -44t42.5 -112v-354q-8 -7 -19.5 -18.5t-31 -40t-19.5 -48.5q0 -19 12.5 -31.5t33.5 -12.5zM197 34q37 0 78.5 20t64.5 40l22 21v137h-164q-97 0 -97 -110q0 -48 23 -78t73 -30z" />
    <glyph glyph-name="Cacute" unicode="&#x106;" horiz-adv-x="520" 
d="M472 60l3 -50q-92 -20 -157 -20q-109 0 -179 64.5t-72 157.5q-3 137 0 276q2 92 72.5 157t178.5 65q34 0 72 -4.5t59 -9.5l21 -4l-3 -50q-84 18 -149 18q-87 0 -138 -50t-53 -122q-3 -138 0 -276q2 -72 52.5 -122t138.5 -50q30 0 68.5 5t61.5 10zM340 775h-58l108 125h80
z" />
    <glyph glyph-name="cacute" unicode="&#x107;" horiz-adv-x="399" 
d="M362 48l7 -42q-63 -16 -127 -16q-83 0 -130.5 44.5t-49.5 111.5q-3 104 0 208q2 67 50 111.5t131 44.5q24 0 53.5 -3t47.5 -6l17 -3l-5 -43q-67 11 -114 11q-58 0 -92.5 -33.5t-36.5 -82.5q-3 -100 0 -201q2 -48 36.5 -81.5t92.5 -33.5q29 0 59 3.5t45 6.5zM270 575h-58
l108 125h80z" />
    <glyph glyph-name="Ccircumflex" unicode="&#x108;" horiz-adv-x="520" 
d="M472 60l3 -50q-92 -20 -157 -20q-109 0 -179 64.5t-72 157.5q-3 137 0 276q2 92 72.5 157t178.5 65q34 0 72 -4.5t59 -9.5l21 -4l-3 -50q-84 18 -149 18q-87 0 -138 -50t-53 -122q-3 -138 0 -276q2 -72 52.5 -122t138.5 -50q30 0 68.5 5t61.5 10zM250 775h-54l98 125h60
l98 -125h-54l-74 77z" />
    <glyph glyph-name="ccircumflex" unicode="&#x109;" horiz-adv-x="399" 
d="M362 48l7 -42q-63 -16 -127 -16q-83 0 -130.5 44.5t-49.5 111.5q-3 104 0 208q2 67 50 111.5t131 44.5q24 0 53.5 -3t47.5 -6l17 -3l-5 -43q-67 11 -114 11q-58 0 -92.5 -33.5t-36.5 -82.5q-3 -100 0 -201q2 -48 36.5 -81.5t92.5 -33.5q29 0 59 3.5t45 6.5zM175 575h-54
l98 125h60l98 -125h-54l-74 77z" />
    <glyph glyph-name="Cdotaccent" unicode="&#x10a;" horiz-adv-x="520" 
d="M472 60l3 -50q-92 -20 -157 -20q-109 0 -179 64.5t-72 157.5q-3 137 0 276q2 92 72.5 157t178.5 65q34 0 72 -4.5t59 -9.5l21 -4l-3 -50q-84 18 -149 18q-87 0 -138 -50t-53 -122q-3 -138 0 -276q2 -72 52.5 -122t138.5 -50q30 0 68.5 5t61.5 10zM288 790v80h61v-80h-61z
" />
    <glyph glyph-name="cdotaccent" unicode="&#x10b;" horiz-adv-x="399" 
d="M362 48l7 -42q-63 -16 -127 -16q-83 0 -130.5 44.5t-49.5 111.5q-3 104 0 208q2 67 50 111.5t131 44.5q24 0 53.5 -3t47.5 -6l17 -3l-5 -43q-67 11 -114 11q-58 0 -92.5 -33.5t-36.5 -82.5q-3 -100 0 -201q2 -48 36.5 -81.5t92.5 -33.5q29 0 59 3.5t45 6.5zM214 590v80
h61v-80h-61z" />
    <glyph glyph-name="Ccaron" unicode="&#x10c;" horiz-adv-x="520" 
d="M472 60l3 -50q-92 -20 -157 -20q-109 0 -179 64.5t-72 157.5q-3 137 0 276q2 92 72.5 157t178.5 65q34 0 72 -4.5t59 -9.5l21 -4l-3 -50q-84 18 -149 18q-87 0 -138 -50t-53 -122q-3 -138 0 -276q2 -72 52.5 -122t138.5 -50q30 0 68.5 5t61.5 10zM395 900h54l-98 -125
h-60l-98 125h54l74 -77z" />
    <glyph glyph-name="ccaron" unicode="&#x10d;" horiz-adv-x="399" 
d="M362 48l7 -42q-63 -16 -127 -16q-83 0 -130.5 44.5t-49.5 111.5q-3 104 0 208q2 67 50 111.5t131 44.5q24 0 53.5 -3t47.5 -6l17 -3l-5 -43q-67 11 -114 11q-58 0 -92.5 -33.5t-36.5 -82.5q-3 -100 0 -201q2 -48 36.5 -81.5t92.5 -33.5q29 0 59 3.5t45 6.5zM326 700h54
l-98 -125h-60l-98 125h54l74 -77z" />
    <glyph glyph-name="Dcaron" unicode="&#x10e;" horiz-adv-x="603" 
d="M80 0v700h205q109 0 179 -60.5t72 -151.5q3 -139 0 -276q-2 -92 -71.5 -152t-179.5 -60h-205zM285 651h-148v-602h148q89 0 140 46t53 117q3 138 0 276q-2 71 -53.5 117t-139.5 46zM343 900h54l-98 -125h-60l-98 125h54l74 -77z" />
    <glyph glyph-name="dcaron" unicode="&#x10f;" horiz-adv-x="551" 
d="M427 700v-700h-46l-4 48l-26 -16t-59.5 -26t-77.5 -16q-75 0 -112.5 41.5t-39.5 109.5q-3 105 0 209q2 70 45.5 115t129.5 45q32 0 67 -6.5t54 -13.5l19 -6v216h50zM113 345q-3 -100 0 -198q4 -113 103 -113q36 0 76 15t62 31l23 15v342q-50 29 -140 29q-60 0 -91 -35.5
t-33 -85.5zM488 621v79h63v-68q0 -55 -22 -80t-47 -25v27q16 0 25 16.5t9 37.5l-1 13h-27z" />
    <glyph glyph-name="Dcroat" unicode="&#x110;" horiz-adv-x="616" 
d="M30 389h63v311h205q109 0 179 -60.5t72 -151.5q3 -139 0 -276q-2 -92 -71.5 -152t-179.5 -60h-205v340h-63v49zM298 651h-148v-262h153v-49h-153v-291h148q89 0 140 46t53 117q3 138 0 276q-2 71 -53.5 117t-139.5 46z" />
    <glyph glyph-name="dcroat" unicode="&#x111;" horiz-adv-x="497" 
d="M427 700v-66h56v-46h-56v-588h-46l-4 48l-26 -16t-59.5 -26t-77.5 -16q-75 0 -112.5 41.5t-39.5 109.5q-3 105 0 209q2 70 45.5 115t129.5 45q32 0 67 -6.5t54 -13.5l19 -6v104h-122v46h122v66h50zM113 345q-3 -100 0 -198q4 -113 103 -113q36 0 76 15t62 31l23 15v342
q-50 29 -140 29q-60 0 -91 -35.5t-33 -85.5z" />
    <glyph glyph-name="Emacron" unicode="&#x112;" horiz-adv-x="551" 
d="M80 700h411v-49h-354v-263h321v-48h-321v-291h364v-49h-421v700zM137 799v46h277v-46h-277z" />
    <glyph glyph-name="emacron" unicode="&#x113;" horiz-adv-x="462" 
d="M388 54l7 -41q-60 -23 -157 -23q-83 0 -128.5 44t-47.5 112q-3 103 0 208q2 66 49 111t127 45q79 0 126.5 -45t47.5 -111v-120h-300q0 -56 1 -83q2 -50 34 -83.5t93 -33.5q37 0 74 5t56 10zM113 349l-1 -71h250q0 50 -1 71q-2 49 -35.5 83t-85.5 34q-60 0 -92.5 -32.5
t-34.5 -84.5zM101 599v46h277v-46h-277z" />
    <glyph glyph-name="Ebreve" unicode="&#x114;" horiz-adv-x="551" 
d="M80 700h411v-49h-354v-263h321v-48h-321v-291h364v-49h-421v700zM146 878h50q0 -24 23 -39t57 -15q35 0 57 15t22 39h50q0 -46 -33 -73t-96 -27q-64 0 -97 27.5t-33 72.5z" />
    <glyph glyph-name="ebreve" unicode="&#x115;" horiz-adv-x="462" 
d="M388 54l7 -41q-60 -23 -157 -23q-83 0 -128.5 44t-47.5 112q-3 103 0 208q2 66 49 111t127 45q79 0 126.5 -45t47.5 -111v-120h-300q0 -56 1 -83q2 -50 34 -83.5t93 -33.5q37 0 74 5t56 10zM113 349l-1 -71h250q0 50 -1 71q-2 49 -35.5 83t-85.5 34q-60 0 -92.5 -32.5
t-34.5 -84.5zM110 678h50q0 -24 23 -39t57 -15q35 0 57 15t22 39h50q0 -46 -33 -73t-96 -27q-64 0 -97 27.5t-33 72.5z" />
    <glyph glyph-name="Edotaccent" unicode="&#x116;" horiz-adv-x="551" 
d="M80 700h411v-49h-354v-263h321v-48h-321v-291h364v-49h-421v700zM245 790v80h61v-80h-61z" />
    <glyph glyph-name="edotaccent" unicode="&#x117;" horiz-adv-x="462" 
d="M388 54l7 -41q-60 -23 -157 -23q-83 0 -128.5 44t-47.5 112q-3 103 0 208q2 66 49 111t127 45q79 0 126.5 -45t47.5 -111v-120h-300q0 -56 1 -83q2 -50 34 -83.5t93 -33.5q37 0 74 5t56 10zM113 349l-1 -71h250q0 50 -1 71q-2 49 -35.5 83t-85.5 34q-60 0 -92.5 -32.5
t-34.5 -84.5zM209 590v80h61v-80h-61z" />
    <glyph glyph-name="Eogonek" unicode="&#x118;" horiz-adv-x="551" 
d="M80 700h411v-49h-354v-263h321v-48h-321v-291h364v-49q-8 -7 -19.5 -18.5t-31 -40t-19.5 -48.5q0 -19 12.5 -31.5t33.5 -12.5l40 5l5 -34q-35 -10 -64 -10q-38 0 -59.5 23t-21.5 54q0 29 17.5 57t35.5 42l18 14h-368v700z" />
    <glyph glyph-name="eogonek" unicode="&#x119;" horiz-adv-x="462" 
d="M388 54l7 -41q-20 -7 -50 -13q-8 -7 -19.5 -18.5t-31 -40t-19.5 -48.5q0 -19 12.5 -31.5t33.5 -12.5l40 5l5 -34q-35 -10 -64 -10q-38 0 -59.5 23t-21.5 54q0 54 60 105q-28 -2 -43 -2q-83 0 -128.5 44t-47.5 112q-3 103 0 208q2 66 49 111t127 45q79 0 126.5 -45
t47.5 -111v-120h-300q0 -56 1 -83q2 -50 34 -83.5t93 -33.5q37 0 74 5t56 10zM113 349l-1 -71h250q0 50 -1 71q-2 49 -35.5 83t-85.5 34q-60 0 -92.5 -32.5t-34.5 -84.5z" />
    <glyph glyph-name="Ecaron" unicode="&#x11a;" horiz-adv-x="551" 
d="M80 700h411v-49h-354v-263h321v-48h-321v-291h364v-49h-421v700zM349 900h54l-98 -125h-60l-98 125h54l74 -77z" />
    <glyph glyph-name="ecaron" unicode="&#x11b;" horiz-adv-x="462" 
d="M388 54l7 -41q-60 -23 -157 -23q-83 0 -128.5 44t-47.5 112q-3 103 0 208q2 66 49 111t127 45q79 0 126.5 -45t47.5 -111v-120h-300q0 -56 1 -83q2 -50 34 -83.5t93 -33.5q37 0 74 5t56 10zM113 349l-1 -71h250q0 50 -1 71q-2 49 -35.5 83t-85.5 34q-60 0 -92.5 -32.5
t-34.5 -84.5zM313 700h54l-98 -125h-60l-98 125h54l74 -77z" />
    <glyph glyph-name="Gcircumflex" unicode="&#x11c;" horiz-adv-x="600" 
d="M343 296v49h187v-322q-108 -33 -216 -33q-109 0 -176 64t-70 158q-4 137 0 276q3 93 70.5 157.5t175.5 64.5q52 0 103 -5t75 -11l25 -5l-4 -49q-108 20 -199 20q-86 0 -135.5 -50t-51.5 -122q-3 -138 0 -276q2 -72 52 -122t136 -50q39 0 79 5t60 10l20 5v236h-131z
M248 775h-54l98 125h60l98 -125h-54l-74 77z" />
    <glyph glyph-name="gcircumflex" unicode="&#x11d;" horiz-adv-x="450" 
d="M380 364v-71q0 -50 -39 -88t-104 -48v-29q0 -32 31 -50l98 -54q55 -31 55 -97q0 -117 -200 -117q-48 0 -92 10t-64 20l-20 9l12 41q77 -36 164 -36q73 0 111.5 16.5t38.5 56.5q0 27 -7.5 38t-28.5 23l-115 63q-34 19 -34 70v36q-67 9 -103 47t-36 89v71q0 56 47 96
t120 40q35 0 74 -13l30 38q21 26 60 26l47 -4l-6 -40h-35q-22 0 -38 -17l-19 -24q53 -38 53 -102zM331 296v63q0 43 -31.5 70t-86.5 27q-56 0 -86.5 -27t-30.5 -70v-63q0 -43 31.5 -69.5t86.5 -26.5q54 0 85.5 26.5t31.5 69.5zM143 575h-54l98 125h60l98 -125h-54l-74 77z
" />
    <glyph glyph-name="Gbreve" unicode="&#x11e;" horiz-adv-x="600" 
d="M343 296v49h187v-322q-108 -33 -216 -33q-109 0 -176 64t-70 158q-4 137 0 276q3 93 70.5 157.5t175.5 64.5q52 0 103 -5t75 -11l25 -5l-4 -49q-108 20 -199 20q-86 0 -135.5 -50t-51.5 -122q-3 -138 0 -276q2 -72 52 -122t136 -50q39 0 79 5t60 10l20 5v236h-131z
M197 878h50q0 -24 23 -39t57 -15q35 0 57 15t22 39h50q0 -46 -33 -73t-96 -27q-64 0 -97 27.5t-33 72.5z" />
    <glyph glyph-name="gbreve" unicode="&#x11f;" horiz-adv-x="450" 
d="M380 364v-71q0 -50 -39 -88t-104 -48v-29q0 -32 31 -50l98 -54q55 -31 55 -97q0 -117 -200 -117q-48 0 -92 10t-64 20l-20 9l12 41q77 -36 164 -36q73 0 111.5 16.5t38.5 56.5q0 27 -7.5 38t-28.5 23l-115 63q-34 19 -34 70v36q-67 9 -103 47t-36 89v71q0 56 47 96
t120 40q35 0 74 -13l30 38q21 26 60 26l47 -4l-6 -40h-35q-22 0 -38 -17l-19 -24q53 -38 53 -102zM331 296v63q0 43 -31.5 70t-86.5 27q-56 0 -86.5 -27t-30.5 -70v-63q0 -43 31.5 -69.5t86.5 -26.5q54 0 85.5 26.5t31.5 69.5zM87 678h50q0 -24 23 -39t57 -15q35 0 57 15
t22 39h50q0 -46 -33 -73t-96 -27q-64 0 -97 27.5t-33 72.5z" />
    <glyph glyph-name="Gdotaccent" unicode="&#x120;" horiz-adv-x="600" 
d="M343 296v49h187v-322q-108 -33 -216 -33q-109 0 -176 64t-70 158q-4 137 0 276q3 93 70.5 157.5t175.5 64.5q52 0 103 -5t75 -11l25 -5l-4 -49q-108 20 -199 20q-86 0 -135.5 -50t-51.5 -122q-3 -138 0 -276q2 -72 52 -122t136 -50q39 0 79 5t60 10l20 5v236h-131z
M291 790v80h61v-80h-61z" />
    <glyph glyph-name="gdotaccent" unicode="&#x121;" horiz-adv-x="450" 
d="M380 364v-71q0 -50 -39 -88t-104 -48v-29q0 -32 31 -50l98 -54q55 -31 55 -97q0 -117 -200 -117q-48 0 -92 10t-64 20l-20 9l12 41q77 -36 164 -36q73 0 111.5 16.5t38.5 56.5q0 27 -7.5 38t-28.5 23l-115 63q-34 19 -34 70v36q-67 9 -103 47t-36 89v71q0 56 47 96
t120 40q35 0 74 -13l30 38q21 26 60 26l47 -4l-6 -40h-35q-22 0 -38 -17l-19 -24q53 -38 53 -102zM331 296v63q0 43 -31.5 70t-86.5 27q-56 0 -86.5 -27t-30.5 -70v-63q0 -43 31.5 -69.5t86.5 -26.5q54 0 85.5 26.5t31.5 69.5zM186 590v80h61v-80h-61z" />
    <glyph glyph-name="Gcommaaccent" unicode="&#x122;" horiz-adv-x="600" 
d="M343 296v49h187v-322q-108 -33 -216 -33q-109 0 -176 64t-70 158q-4 137 0 276q3 93 70.5 157.5t175.5 64.5q52 0 103 -5t75 -11l25 -5l-4 -49q-108 20 -199 20q-86 0 -135.5 -50t-51.5 -122q-3 -138 0 -276q2 -72 52 -122t136 -50q39 0 79 5t60 10l20 5v236h-131z
M286 -124v79h63v-68q0 -55 -22 -80t-47 -25v27q16 0 25 16.5t9 37.5l-1 13h-27z" />
    <glyph glyph-name="gcommaaccent" unicode="&#x123;" horiz-adv-x="450" 
d="M380 364v-71q0 -50 -39 -88t-104 -48v-29q0 -32 31 -50l98 -54q55 -31 55 -97q0 -117 -200 -117q-48 0 -92 10t-64 20l-20 9l12 41q77 -36 164 -36q73 0 111.5 16.5t38.5 56.5q0 27 -7.5 38t-28.5 23l-115 63q-34 19 -34 70v36q-67 9 -103 47t-36 89v71q0 56 47 96
t120 40q35 0 74 -13l30 38q21 26 60 26l47 -4l-6 -40h-35q-22 0 -38 -17l-19 -24q53 -38 53 -102zM331 296v63q0 43 -31.5 70t-86.5 27q-56 0 -86.5 -27t-30.5 -70v-63q0 -43 31.5 -69.5t86.5 -26.5q54 0 85.5 26.5t31.5 69.5zM246 654v-79h-63v68q0 55 22 80t47 25v-27
q-16 0 -25 -16.5t-9 -37.5l1 -13h27z" />
    <glyph glyph-name="Hcircumflex" unicode="&#x124;" horiz-adv-x="631" 
d="M494 700h57v-700h-57v340h-357v-340h-57v700h57v-311h357v311zM241 775h-54l98 125h60l98 -125h-54l-74 77z" />
    <glyph glyph-name="hcircumflex" unicode="&#x125;" horiz-adv-x="500" 
d="M120 0h-50v700h50v-248l26.5 15.5t59.5 25t77 15.5q76 0 114 -42.5t38 -111.5v-354h-50v348q0 51 -25 83.5t-79 32.5q-35 0 -75 -15t-63 -29l-23 -15v-405zM56 775h-54l98 125h60l98 -125h-54l-74 77z" />
    <glyph glyph-name="Hbar" unicode="&#x126;" horiz-adv-x="631" 
d="M494 700h57v-132h55v-46h-55v-522h-57v340h-357v-340h-57v522h-55v46h55v132h57v-132h357v132zM137 389h357v133h-357v-133z" />
    <glyph glyph-name="hbar" unicode="&#x127;" horiz-adv-x="500" 
d="M14 589v44h56v67h50v-67h171v-44h-171v-145l26.5 15.5t59.5 25t77 15.5q76 0 114 -42.5t38 -111.5v-346h-50v340q0 51 -25 83.5t-79 32.5q-35 0 -75 -15t-63 -29l-23 -15v-397h-50v589h-56z" />
    <glyph glyph-name="Itilde" unicode="&#x128;" horiz-adv-x="217" 
d="M137 700v-700h-57v700h57zM8 783h-45q0 28 23 58.5t57 30.5q30 0 70.5 -24t57.5 -24q16 0 26 12.5t12 30.5h45q0 -29 -23 -59t-57 -30q-30 0 -70.5 24t-57.5 24q-16 0 -26 -12.5t-12 -30.5z" />
    <glyph glyph-name="itilde" unicode="&#x129;" horiz-adv-x="195" 
d="M72 0v500h50v-500h-50zM-3 583h-45q0 28 23 58.5t57 30.5q30 0 70 -24t58 -24q16 0 26 12.5t12 30.5h45q0 -29 -23 -59t-57 -30q-30 0 -70.5 24t-57.5 24q-16 0 -26 -12.5t-12 -30.5z" />
    <glyph glyph-name="Imacron" unicode="&#x12a;" horiz-adv-x="217" 
d="M137 700v-700h-57v700h57zM-30 799v46h277v-46h-277z" />
    <glyph glyph-name="imacron" unicode="&#x12b;" horiz-adv-x="195" 
d="M72 0v500h50v-500h-50zM-41 599v46h277v-46h-277z" />
    <glyph glyph-name="Ibreve" unicode="&#x12c;" horiz-adv-x="217" 
d="M137 700v-700h-57v700h57zM-21 878h50q0 -24 23 -39t57 -15q35 0 57 15t22 39h50q0 -46 -33 -73t-96 -27q-64 0 -97 27.5t-33 72.5z" />
    <glyph glyph-name="ibreve" unicode="&#x12d;" horiz-adv-x="195" 
d="M72 0v500h50v-500h-50zM-32 678h50q0 -24 23 -39t57 -15q35 0 57 15t22 39h50q0 -46 -33 -73t-96 -27q-64 0 -97 27.5t-33 72.5z" />
    <glyph glyph-name="Iogonek" unicode="&#x12e;" horiz-adv-x="217" 
d="M137 700v-700q-8 -7 -19.5 -18.5t-31 -40t-19.5 -48.5q0 -19 12.5 -31.5t33.5 -12.5l40 5l5 -34q-35 -10 -64 -10q-38 0 -59.5 23t-21.5 54q0 29 16.5 57t33.5 42l17 14v700h57z" />
    <glyph glyph-name="iogonek" unicode="&#x12f;" horiz-adv-x="195" 
d="M72 0v500h50v-500q-8 -7 -19.5 -18.5t-31 -40t-19.5 -48.5q0 -19 12.5 -31.5t33.5 -12.5l40 5l5 -34q-35 -10 -64 -10q-38 0 -59.5 23t-21.5 54q0 29 18.5 57t37.5 42zM70 602v98h55v-98h-55z" />
    <glyph glyph-name="Idotaccent" unicode="&#x130;" horiz-adv-x="217" 
d="M137 700v-700h-57v700h57zM78 790v80h61v-80h-61z" />
    <glyph glyph-name="dotlessi" unicode="&#x131;" horiz-adv-x="195" 
d="M72 0v500h50v-500h-50z" />
    <glyph glyph-name="IJ" unicode="&#x132;" horiz-adv-x="462" 
d="M202 -3l1 45q16 -3 47 -3q22 0 37 7t23.5 17t13 28.5t5.5 34t1 40.5v534h57v-554q0 -82 -35.5 -119t-93.5 -37q-15 0 -29 1.5t-21 3.5zM137 700v-700h-57v700h57z" />
    <glyph glyph-name="ij" unicode="&#x133;" horiz-adv-x="390" 
d="M72 0v500h50v-500h-50zM70 602v98h55v-98h-55zM264 602v98h56v-98h-56zM316 500v-556q0 -60 -33 -97t-93 -37l-51 6l4 43q24 -5 48 -5q75 0 75 96v550h50z" />
    <glyph glyph-name="Jcircumflex" unicode="&#x134;" horiz-adv-x="275" 
d="M15 -3l1 45q16 -3 47 -3q22 0 37 7t23.5 17t13 28.5t5.5 34t1 40.5v534h57v-554q0 -82 -35.5 -119t-93.5 -37q-15 0 -29 1.5t-20 3.5zM97 775h-54l98 125h60l98 -125h-54l-74 77z" />
    <glyph glyph-name="jcircumflex" unicode="&#x135;" horiz-adv-x="210" 
d="M136 500v-556q0 -60 -33 -97t-93 -37l-51 6l4 43q24 -5 48 -5q75 0 75 96v550h50zM34 575h-54l98 125h60l98 -125h-54l-74 77z" />
    <glyph glyph-name="Kcommaaccent" unicode="&#x136;" horiz-adv-x="519" 
d="M481 700l-278 -332l299 -368h-73l-293 367l277 333h68zM137 700v-700h-57v700h57zM231 -124v79h63v-68q0 -55 -22 -80t-47 -25v27q16 0 25 16.5t9 37.5l-1 13h-27z" />
    <glyph glyph-name="kcommaaccent" unicode="&#x137;" horiz-adv-x="418" 
d="M70 0v700h50v-700h-50zM344 0l-223 264l209 236h63l-213 -234l228 -266h-64zM180 -124v79h63v-68q0 -55 -22 -80t-47 -25v27q16 0 25 16.5t9 37.5l-1 13h-27z" />
    <glyph glyph-name="kgreenlandic" unicode="&#x138;" horiz-adv-x="418" 
d="M70 0v500h50v-500h-50zM344 0l-223 264l209 236h63l-213 -234l228 -266h-64z" />
    <glyph glyph-name="Lacute" unicode="&#x139;" horiz-adv-x="473" 
d="M80 700h57v-651h316v-49h-373v700zM143 775h-58l108 125h80z" />
    <glyph glyph-name="lacute" unicode="&#x13a;" horiz-adv-x="190" 
d="M70 0v700h50v-700h-50zM127 775h-58l108 125h80z" />
    <glyph glyph-name="Lcommaaccent" unicode="&#x13b;" horiz-adv-x="473" 
d="M80 700h57v-651h316v-49h-373v700zM208 -124v79h63v-68q0 -55 -22 -80t-47 -25v27q16 0 25 16.5t9 37.5l-1 13h-27z" />
    <glyph glyph-name="lcommaaccent" unicode="&#x13c;" horiz-adv-x="190" 
d="M70 0v700h50v-700h-50zM66 -124v79h63v-68q0 -55 -22 -80t-47 -25v27q16 0 25 16.5t9 37.5l-1 13h-27z" />
    <glyph glyph-name="Lcaron" unicode="&#x13d;" horiz-adv-x="473" 
d="M80 700h57v-651h316v-49h-373v700zM331 621v79h63v-68q0 -55 -22 -80t-47 -25v27q16 0 25 16.5t9 37.5l-1 13h-27z" />
    <glyph glyph-name="lcaron" unicode="&#x13e;" horiz-adv-x="257" 
d="M70 0v700h50v-700h-50zM194 621v79h63v-68q0 -55 -22 -80t-47 -25v27q16 0 25 16.5t9 37.5l-1 13h-27z" />
    <glyph glyph-name="Ldot" unicode="&#x13f;" horiz-adv-x="473" 
d="M80 700h57v-651h316v-49h-373v700zM332 312v79h61v-79h-61z" />
    <glyph glyph-name="ldot" unicode="&#x140;" horiz-adv-x="267" 
d="M70 0v700h50v-700h-50zM206 254v79h61v-79h-61z" />
    <glyph glyph-name="Lslash" unicode="&#x141;" horiz-adv-x="478" 
d="M20 299l64 35v366h57v-332l208 118v-55l-208 -119v-263h317v-49h-374v280l-64 -36v55z" />
    <glyph glyph-name="lslash" unicode="&#x142;" horiz-adv-x="229" 
d="M71 0v330l-61 -34v50l61 34v320h50v-291l93 53v-50l-93 -53v-359h-50z" />
    <glyph glyph-name="Nacute" unicode="&#x143;" horiz-adv-x="629" 
d="M493 700h56v-700h-78l-314 583l-21 52v-635h-56v700h78l314 -583l21 -53v636zM331 775h-58l108 125h80z" />
    <glyph glyph-name="nacute" unicode="&#x144;" horiz-adv-x="520" 
d="M120 0h-50v500h46l4 -48l26.5 15.5t59.5 25t77 15.5q76 0 114 -42.5t38 -111.5v-354h-50v348q0 51 -25 83.5t-79 32.5q-35 0 -75 -15t-63 -29l-23 -15v-405zM312 575h-58l108 125h80z" />
    <glyph glyph-name="Ncommaaccent" unicode="&#x145;" horiz-adv-x="629" 
d="M493 700h56v-700h-78l-314 583l-21 52v-635h-56v700h78l314 -583l21 -53v636zM286 -124v79h63v-68q0 -55 -22 -80t-47 -25v27q16 0 25 16.5t9 37.5l-1 13h-27z" />
    <glyph glyph-name="ncommaaccent" unicode="&#x146;" horiz-adv-x="520" 
d="M120 0h-50v500h46l4 -48l26.5 15.5t59.5 25t77 15.5q76 0 114 -42.5t38 -111.5v-354h-50v348q0 51 -25 83.5t-79 32.5q-35 0 -75 -15t-63 -29l-23 -15v-405zM231 -124v79h63v-68q0 -55 -22 -80t-47 -25v27q16 0 25 16.5t9 37.5l-1 13h-27z" />
    <glyph glyph-name="Ncaron" unicode="&#x147;" horiz-adv-x="629" 
d="M493 700h56v-700h-78l-314 583l-21 52v-635h-56v700h78l314 -583l21 -53v636zM388 900h54l-98 -125h-60l-98 125h54l74 -77z" />
    <glyph glyph-name="ncaron" unicode="&#x148;" horiz-adv-x="520" 
d="M120 0h-50v500h46l4 -48l26.5 15.5t59.5 25t77 15.5q76 0 114 -42.5t38 -111.5v-354h-50v348q0 51 -25 83.5t-79 32.5q-35 0 -75 -15t-63 -29l-23 -15v-405zM354 700h54l-98 -125h-60l-98 125h54l74 -77z" />
    <glyph glyph-name="napostrophe" unicode="&#x149;" horiz-adv-x="535" 
d="M135 0h-50v500h46l4 -48l26.5 15.5t59.5 25t77 15.5q76 0 114 -42.5t38 -111.5v-354h-50v348q0 51 -25 83.5t-79 32.5q-35 0 -75 -15t-63 -29l-23 -15v-405zM0 621v79h63v-68q0 -55 -22 -80t-47 -25v27q16 0 25 16.5t9 37.5l-1 13h-27z" />
    <glyph glyph-name="Eng" unicode="&#x14a;" horiz-adv-x="629" 
d="M493 700h56v-734q0 -82 -35.5 -119t-93.5 -37q-15 0 -29 2t-21 4l-6 1l1 45q16 -3 47 -3q22 0 37.5 7t23.5 17t13 28t6 34.5t1 40.5l-336 597l-21 52v-635h-56v700h78l314 -560l21 -53v613z" />
    <glyph glyph-name="eng" unicode="&#x14b;" horiz-adv-x="520" 
d="M120 0h-50v500h46l4 -48l26.5 15.5t59.5 25t77 15.5q76 0 114 -42.5t38 -111.5v-400q0 -60 -33 -97t-93 -37l-51 6l4 43q24 -5 48 -5q75 0 75 96v388q0 51 -25 83.5t-79 32.5q-35 0 -75 -15t-63 -29l-23 -15v-405z" />
    <glyph glyph-name="Omacron" unicode="&#x14c;" horiz-adv-x="622" 
d="M311 710q107 0 174.5 -64.5t69.5 -157.5q3 -139 0 -276q-2 -93 -69 -157.5t-175 -64.5t-175 64.5t-69 157.5q-3 137 0 276q2 93 69.5 157.5t174.5 64.5zM311 39q87 0 134.5 50t49.5 123q3 138 0 276q-2 73 -50 123t-134 50t-134 -50t-50 -123q-3 -138 0 -276
q2 -73 49.5 -123t134.5 -50zM172 799v46h277v-46h-277z" />
    <glyph glyph-name="omacron" unicode="&#x14d;" horiz-adv-x="493" 
d="M431 146q-2 -68 -51 -112t-133 -44q-88 0 -135.5 44t-49.5 112q-3 104 0 208q2 68 49.5 112t135.5 44q83 0 132.5 -45t51.5 -111q3 -105 0 -208zM380 350q-2 52 -36 84t-98 32q-62 0 -96.5 -32.5t-36.5 -82.5q-3 -100 0 -202q2 -50 36.5 -82.5t97.5 -32.5t97 32t36 83
q3 101 0 201zM108 599v46h277v-46h-277z" />
    <glyph glyph-name="Obreve" unicode="&#x14e;" horiz-adv-x="622" 
d="M311 710q107 0 174.5 -64.5t69.5 -157.5q3 -139 0 -276q-2 -93 -69 -157.5t-175 -64.5t-175 64.5t-69 157.5q-3 137 0 276q2 93 69.5 157.5t174.5 64.5zM311 39q87 0 134.5 50t49.5 123q3 138 0 276q-2 73 -50 123t-134 50t-134 -50t-50 -123q-3 -138 0 -276
q2 -73 49.5 -123t134.5 -50zM181 878h50q0 -24 23 -39t57 -15q35 0 57 15t22 39h50q0 -46 -33 -73t-96 -27q-64 0 -97 27.5t-33 72.5z" />
    <glyph glyph-name="obreve" unicode="&#x14f;" horiz-adv-x="493" 
d="M431 146q-2 -68 -51 -112t-133 -44q-88 0 -135.5 44t-49.5 112q-3 104 0 208q2 68 49.5 112t135.5 44q83 0 132.5 -45t51.5 -111q3 -105 0 -208zM380 350q-2 52 -36 84t-98 32q-62 0 -96.5 -32.5t-36.5 -82.5q-3 -100 0 -202q2 -50 36.5 -82.5t97.5 -32.5t97 32t36 83
q3 101 0 201zM117 678h50q0 -24 23 -39t57 -15q35 0 57 15t22 39h50q0 -46 -33 -73t-96 -27q-64 0 -97 27.5t-33 72.5z" />
    <glyph glyph-name="Ohungarumlaut" unicode="&#x150;" horiz-adv-x="622" 
d="M311 710q107 0 174.5 -64.5t69.5 -157.5q3 -139 0 -276q-2 -93 -69 -157.5t-175 -64.5t-175 64.5t-69 157.5q-3 137 0 276q2 93 69.5 157.5t174.5 64.5zM311 39q87 0 134.5 50t49.5 123q3 138 0 276q-2 73 -50 123t-134 50t-134 -50t-50 -123q-3 -138 0 -276
q2 -73 49.5 -123t134.5 -50zM276 775h-58l108 125h80zM414 775h-58l108 125h80z" />
    <glyph glyph-name="ohungarumlaut" unicode="&#x151;" horiz-adv-x="493" 
d="M431 146q-2 -68 -51 -112t-133 -44q-88 0 -135.5 44t-49.5 112q-3 104 0 208q2 68 49.5 112t135.5 44q83 0 132.5 -45t51.5 -111q3 -105 0 -208zM380 350q-2 52 -36 84t-98 32q-62 0 -96.5 -32.5t-36.5 -82.5q-3 -100 0 -202q2 -50 36.5 -82.5t97.5 -32.5t97 32t36 83
q3 101 0 201zM210 575h-58l108 125h80zM348 575h-58l108 125h80z" />
    <glyph glyph-name="OE" unicode="&#x152;" horiz-adv-x="899" 
d="M839 700v-49h-333v-263h300v-48h-300v-291h343v-49h-531q-110 0 -179.5 60t-71.5 152q-3 137 0 276q2 91 72 151.5t179 60.5h521zM318 651q-88 0 -139.5 -46t-53.5 -117q-3 -138 0 -276q2 -71 53 -117t140 -46h131v602h-131z" />
    <glyph glyph-name="oe" unicode="&#x153;" horiz-adv-x="772" 
d="M698 54l7 -41q-57 -23 -154 -23q-108 0 -151 73q-48 -73 -156 -73q-88 0 -134 43.5t-48 112.5q-3 104 0 208q2 68 48 112t134 44q108 0 157 -76q46 76 150 76q79 0 125 -44.5t46 -111.5v-120h-294q0 -56 1 -83q2 -51 32.5 -84t91.5 -33q37 0 73.5 5t53.5 10zM374 350
q-2 52 -34.5 84t-96.5 32q-62 0 -95 -32t-35 -83q-3 -100 0 -202q2 -51 35.5 -83t95.5 -32q63 0 95.5 31.5t34.5 83.5q3 101 0 201zM429 349l-1 -71h244q0 50 -1 71q-2 49 -34 83t-84 34q-59 0 -90.5 -32.5t-33.5 -84.5z" />
    <glyph glyph-name="Racute" unicode="&#x154;" horiz-adv-x="578" 
d="M463 0l-143 266h-183v-266h-57v700h257q79 0 123.5 -41.5t47.5 -106.5q3 -68 0 -136q-2 -55 -35 -95t-95 -52l150 -269h-65zM451 411q3 72 0 145q-4 94 -112 94h-202v-333h206q104 0 108 94zM279 775h-58l108 125h80z" />
    <glyph glyph-name="racute" unicode="&#x155;" horiz-adv-x="293" 
d="M278 510l-2 -44q-37 0 -76 -24.5t-60 -49.5l-20 -24v-368h-50v500h45l5 -72q3 3 8 8.5t22 20t34 25t43 19.5t51 9zM176 575h-58l108 125h80z" />
    <glyph glyph-name="Rcommaaccent" unicode="&#x156;" horiz-adv-x="578" 
d="M463 0l-143 266h-183v-266h-57v700h257q79 0 123.5 -41.5t47.5 -106.5q3 -68 0 -136q-2 -55 -35 -95t-95 -52l150 -269h-65zM451 411q3 72 0 145q-4 94 -112 94h-202v-333h206q104 0 108 94zM248 -124v79h63v-68q0 -55 -22 -80t-47 -25v27q16 0 25 16.5t9 37.5l-1 13h-27
z" />
    <glyph glyph-name="rcommaaccent" unicode="&#x157;" horiz-adv-x="293" 
d="M278 510l-2 -44q-37 0 -76 -24.5t-60 -49.5l-20 -24v-368h-50v500h45l5 -72q3 3 8 8.5t22 20t34 25t43 19.5t51 9zM66 -124v79h63v-68q0 -55 -22 -80t-47 -25v27q16 0 25 16.5t9 37.5l-1 13h-27z" />
    <glyph glyph-name="Rcaron" unicode="&#x158;" horiz-adv-x="578" 
d="M463 0l-143 266h-183v-266h-57v700h257q79 0 123.5 -41.5t47.5 -106.5q3 -68 0 -136q-2 -55 -35 -95t-95 -52l150 -269h-65zM451 411q3 72 0 145q-4 94 -112 94h-202v-333h206q104 0 108 94zM348 900h54l-98 -125h-60l-98 125h54l74 -77z" />
    <glyph glyph-name="rcaron" unicode="&#x159;" horiz-adv-x="293" 
d="M278 510l-2 -44q-37 0 -76 -24.5t-60 -49.5l-20 -24v-368h-50v500h45l5 -72q3 3 8 8.5t22 20t34 25t43 19.5t51 9zM230 700h54l-98 -125h-60l-98 125h54l74 -77z" />
    <glyph glyph-name="Sacute" unicode="&#x15a;" horiz-adv-x="549" 
d="M455 691l-6 -49q-97 19 -180 19q-168 0 -168 -130q0 -44 22 -73.5t58 -44.5t78.5 -26.5t85.5 -25t79 -33.5t58 -58t22 -93q0 -93 -60 -140t-190 -47q-54 0 -103.5 5t-71.5 11l-22 5l3 49q84 -21 186 -21q109 0 154.5 31t45.5 103q0 44 -22 74t-57.5 46t-78.5 28
t-85.5 25.5t-78 33t-57.5 57t-22 91.5q0 91 60.5 136.5t163.5 45.5q45 0 91.5 -5t70.5 -9zM301 775h-58l108 125h80z" />
    <glyph glyph-name="sacute" unicode="&#x15b;" horiz-adv-x="423" 
d="M340 495l-7 -44q-64 15 -127 15q-111 0 -111 -88q0 -39 28.5 -61t69.5 -33t82 -24t69.5 -44.5t28.5 -83.5q0 -71 -41.5 -106.5t-135.5 -35.5q-35 0 -71 5t-55 11l-19 5l7 44q71 -21 133 -21q74 0 102 22t28 71q0 40 -28.5 63t-69 34t-81 23.5t-69 44t-28.5 84.5
q0 68 43 101t118 33q31 0 64.5 -4t51.5 -8zM244 575h-58l108 125h80z" />
    <glyph glyph-name="Scircumflex" unicode="&#x15c;" horiz-adv-x="549" 
d="M455 691l-6 -49q-97 19 -180 19q-168 0 -168 -130q0 -44 22 -73.5t58 -44.5t78.5 -26.5t85.5 -25t79 -33.5t58 -58t22 -93q0 -93 -60 -140t-190 -47q-54 0 -103.5 5t-71.5 11l-22 5l3 49q84 -21 186 -21q109 0 154.5 31t45.5 103q0 44 -22 74t-57.5 46t-78.5 28
t-85.5 25.5t-78 33t-57.5 57t-22 91.5q0 91 60.5 136.5t163.5 45.5q45 0 91.5 -5t70.5 -9zM200 775h-54l98 125h60l98 -125h-54l-74 77z" />
    <glyph glyph-name="scircumflex" unicode="&#x15d;" horiz-adv-x="423" 
d="M340 495l-7 -44q-64 15 -127 15q-111 0 -111 -88q0 -39 28.5 -61t69.5 -33t82 -24t69.5 -44.5t28.5 -83.5q0 -71 -41.5 -106.5t-135.5 -35.5q-35 0 -71 5t-55 11l-19 5l7 44q71 -21 133 -21q74 0 102 22t28 71q0 40 -28.5 63t-69 34t-81 23.5t-69 44t-28.5 84.5
q0 68 43 101t118 33q31 0 64.5 -4t51.5 -8zM137 575h-54l98 125h60l98 -125h-54l-74 77z" />
    <glyph glyph-name="Scedilla" unicode="&#x15e;" horiz-adv-x="549" 
d="M455 691l-6 -49q-97 19 -180 19q-168 0 -168 -130q0 -44 22 -73.5t58 -44.5t78.5 -26.5t85.5 -25t79 -33.5t58 -58t22 -93q0 -87 -52.5 -134t-165.5 -52l-7 -36q38 0 58.5 -14t20.5 -51q0 -78 -82 -78q-13 0 -31 2t-30 4l-12 3l3 34q35 -7 57 -7q46 0 46 42q0 35 -46 35
h-37l14 65q-51 1 -96.5 6t-65.5 10l-21 5l3 49q84 -21 186 -21q109 0 154.5 31t45.5 103q0 44 -22 74t-57.5 46t-78.5 28t-85.5 25.5t-78 33t-57.5 57t-22 91.5q0 91 60.5 136.5t163.5 45.5q45 0 91.5 -5t70.5 -9z" />
    <glyph glyph-name="scedilla" unicode="&#x15f;" horiz-adv-x="423" 
d="M340 495l-7 -44q-64 15 -127 15q-111 0 -111 -88q0 -39 28.5 -61t69.5 -33t82 -24t69.5 -44.5t28.5 -83.5q0 -66 -36 -101t-116 -40l-7 -36q38 0 58.5 -14t20.5 -51q0 -78 -82 -78q-13 0 -31 2t-30 4l-12 3l3 34q35 -7 57 -7q46 0 46 42q0 35 -46 35h-37l15 66
q-31 1 -62 6t-47 9l-16 5l7 44q71 -21 133 -21q74 0 102 22t28 71q0 40 -28.5 63t-69 34t-81 23.5t-69 44t-28.5 84.5q0 68 43 101t118 33q31 0 64.5 -4t51.5 -8z" />
    <glyph glyph-name="Scaron" unicode="&#x160;" horiz-adv-x="549" 
d="M455 691l-6 -49q-97 19 -180 19q-168 0 -168 -130q0 -44 22 -73.5t58 -44.5t78.5 -26.5t85.5 -25t79 -33.5t58 -58t22 -93q0 -93 -60 -140t-190 -47q-54 0 -103.5 5t-71.5 11l-22 5l3 49q84 -21 186 -21q109 0 154.5 31t45.5 103q0 44 -22 74t-57.5 46t-78.5 28
t-85.5 25.5t-78 33t-57.5 57t-22 91.5q0 91 60.5 136.5t163.5 45.5q45 0 91.5 -5t70.5 -9zM348 900h54l-98 -125h-60l-98 125h54l74 -77z" />
    <glyph glyph-name="scaron" unicode="&#x161;" horiz-adv-x="423" 
d="M340 495l-7 -44q-64 15 -127 15q-111 0 -111 -88q0 -39 28.5 -61t69.5 -33t82 -24t69.5 -44.5t28.5 -83.5q0 -71 -41.5 -106.5t-135.5 -35.5q-35 0 -71 5t-55 11l-19 5l7 44q71 -21 133 -21q74 0 102 22t28 71q0 40 -28.5 63t-69 34t-81 23.5t-69 44t-28.5 84.5
q0 68 43 101t118 33q31 0 64.5 -4t51.5 -8zM285 700h54l-98 -125h-60l-98 125h54l74 -77z" />
    <glyph glyph-name="Tcommaaccent" unicode="&#x162;" horiz-adv-x="483" 
d="M20 651v49h443v-49h-193v-651h-57v651h-193zM213 -124v79h63v-68q0 -55 -22 -80t-47 -25v27q16 0 25 16.5t9 37.5l-1 13h-27z" />
    <glyph glyph-name="tcommaaccent" unicode="&#x163;" horiz-adv-x="317" 
d="M20 456v44h81v120h50v-120h146v-44h-146v-329q0 -51 17.5 -72t54.5 -21l68 6l4 -40q-47 -10 -78 -10q-58 0 -87 33.5t-29 88.5v344h-81zM130 -124v79h63v-68q0 -55 -22 -80t-47 -25v27q16 0 25 16.5t9 37.5l-1 13h-27z" />
    <glyph glyph-name="Tcaron" unicode="&#x164;" horiz-adv-x="483" 
d="M20 651v49h443v-49h-193v-651h-57v651h-193zM315 900h54l-98 -125h-60l-98 125h54l74 -77z" />
    <glyph glyph-name="tcaron" unicode="&#x165;" horiz-adv-x="321" 
d="M20 456v44h81v120h50v-120h146v-44h-146v-329q0 -51 17.5 -72t54.5 -21l68 6l4 -40q-47 -10 -78 -10q-58 0 -87 33.5t-29 88.5v344h-81zM238 621v79h63v-68q0 -55 -22 -80t-47 -25v27q16 0 25 16.5t9 37.5l-1 13h-27z" />
    <glyph glyph-name="Tbar" unicode="&#x166;" horiz-adv-x="483" 
d="M20 651v49h443v-49h-193v-230h128v-46h-128v-375h-57v375h-128v46h128v230h-193z" />
    <glyph glyph-name="tbar" unicode="&#x167;" horiz-adv-x="317" 
d="M20 456v44h81v120h50v-120h146v-44h-146v-143h146v-46h-146v-140q0 -51 17.5 -72t54.5 -21l68 6l4 -40q-47 -10 -78 -10q-58 0 -87 33.5t-29 88.5v155h-81v46h81v143h-81z" />
    <glyph glyph-name="Utilde" unicode="&#x168;" horiz-adv-x="634" 
d="M502 700h57v-488q0 -94 -66.5 -158t-175.5 -64q-110 0 -176 63.5t-66 158.5v488h57v-488q0 -73 49 -123t136 -50q86 0 135.5 50.5t49.5 122.5v488zM216 783h-45q0 28 23 58.5t57 30.5q29 0 70 -24t58 -24q16 0 26 12.5t12 30.5h45q0 -29 -23 -59t-57 -30q-30 0 -70.5 24
t-57.5 24q-16 0 -26 -12.5t-12 -30.5z" />
    <glyph glyph-name="utilde" unicode="&#x169;" horiz-adv-x="500" 
d="M380 500h50v-500h-46l-4 48l-26.5 -15.5t-59.5 -25t-77 -15.5q-76 0 -114 42.5t-38 111.5v354h50v-348q0 -51 25 -83.5t79 -32.5q35 0 75 15t63 29l23 15v405zM149 583h-45q0 28 23 58.5t57 30.5q30 0 70 -24t58 -24q16 0 26 12.5t12 30.5h45q0 -29 -23 -59t-57 -30
q-30 0 -70.5 24t-57.5 24q-16 0 -26 -12.5t-12 -30.5z" />
    <glyph glyph-name="Umacron" unicode="&#x16a;" horiz-adv-x="634" 
d="M502 700h57v-488q0 -94 -66.5 -158t-175.5 -64q-110 0 -176 63.5t-66 158.5v488h57v-488q0 -73 49 -123t136 -50q86 0 135.5 50.5t49.5 122.5v488zM178 799v46h277v-46h-277z" />
    <glyph glyph-name="umacron" unicode="&#x16b;" horiz-adv-x="500" 
d="M380 500h50v-500h-46l-4 48l-26.5 -15.5t-59.5 -25t-77 -15.5q-76 0 -114 42.5t-38 111.5v354h50v-348q0 -51 25 -83.5t79 -32.5q35 0 75 15t63 29l23 15v405zM111 599v46h277v-46h-277z" />
    <glyph glyph-name="Ubreve" unicode="&#x16c;" horiz-adv-x="634" 
d="M502 700h57v-488q0 -94 -66.5 -158t-175.5 -64q-110 0 -176 63.5t-66 158.5v488h57v-488q0 -73 49 -123t136 -50q86 0 135.5 50.5t49.5 122.5v488zM187 878h50q0 -24 23 -39t57 -15q35 0 57 15t22 39h50q0 -46 -33 -73t-96 -27q-64 0 -97 27.5t-33 72.5z" />
    <glyph glyph-name="ubreve" unicode="&#x16d;" horiz-adv-x="500" 
d="M380 500h50v-500h-46l-4 48l-26.5 -15.5t-59.5 -25t-77 -15.5q-76 0 -114 42.5t-38 111.5v354h50v-348q0 -51 25 -83.5t79 -32.5q35 0 75 15t63 29l23 15v405zM120 678h50q0 -24 23 -39t57 -15q35 0 57 15t22 39h50q0 -46 -33 -73t-96 -27q-64 0 -97 27.5t-33 72.5z" />
    <glyph glyph-name="Uring" unicode="&#x16e;" horiz-adv-x="634" 
d="M502 700h57v-488q0 -94 -66.5 -158t-175.5 -64q-110 0 -176 63.5t-66 158.5v488h57v-488q0 -73 49 -123t136 -50q86 0 135.5 50.5t49.5 122.5v488zM235 836q0 34 23.5 56.5t57.5 22.5q33 0 57.5 -23t24.5 -56t-24.5 -55.5t-57.5 -22.5q-34 0 -57.5 22.5t-23.5 55.5z
M276 837q0 -16 12 -28t28 -12t28.5 12t12.5 28q0 17 -12.5 29t-28.5 12t-28 -12t-12 -29z" />
    <glyph glyph-name="uring" unicode="&#x16f;" horiz-adv-x="500" 
d="M380 500h50v-500h-46l-4 48l-26.5 -15.5t-59.5 -25t-77 -15.5q-76 0 -114 42.5t-38 111.5v354h50v-348q0 -51 25 -83.5t79 -32.5q35 0 75 15t63 29l23 15v405zM168 636q0 34 23.5 56.5t57.5 22.5q33 0 57.5 -23t24.5 -56t-24.5 -55.5t-57.5 -22.5q-34 0 -57.5 22.5
t-23.5 55.5zM209 637q0 -16 12 -28t28 -12t28.5 12t12.5 28q0 17 -12 29t-29 12q-16 0 -28 -12t-12 -29z" />
    <glyph glyph-name="Uhungarumlaut" unicode="&#x170;" horiz-adv-x="634" 
d="M502 700h57v-488q0 -94 -66.5 -158t-175.5 -64q-110 0 -176 63.5t-66 158.5v488h57v-488q0 -73 49 -123t136 -50q86 0 135.5 50.5t49.5 122.5v488zM273 775h-58l108 125h80zM411 775h-58l108 125h80z" />
    <glyph glyph-name="uhungarumlaut" unicode="&#x171;" horiz-adv-x="500" 
d="M380 500h50v-500h-46l-4 48l-26.5 -15.5t-59.5 -25t-77 -15.5q-76 0 -114 42.5t-38 111.5v354h50v-348q0 -51 25 -83.5t79 -32.5q35 0 75 15t63 29l23 15v405zM208 575h-58l108 125h80zM346 575h-58l108 125h80z" />
    <glyph glyph-name="Uogonek" unicode="&#x172;" horiz-adv-x="634" 
d="M502 700h57v-488q0 -76 -44.5 -133.5t-120.5 -78.5q-8 -7 -19.5 -18.5t-31 -40t-19.5 -48.5q0 -19 12.5 -31.5t33.5 -12.5l40 5l5 -34q-35 -10 -64 -10q-38 0 -59.5 23t-21.5 54q0 56 58 103h-11q-110 0 -176 63.5t-66 158.5v488h57v-488q0 -73 49 -123t136 -50
q86 0 135.5 50.5t49.5 122.5v488z" />
    <glyph glyph-name="uogonek" unicode="&#x173;" horiz-adv-x="500" 
d="M380 500h50v-500q-8 -7 -19.5 -18.5t-31 -40t-19.5 -48.5q0 -19 12.5 -31.5t33.5 -12.5l40 5l5 -34q-35 -10 -64 -10q-38 0 -59.5 23t-21.5 54q0 29 19.5 57t38.5 42l20 14l-4 48l-26.5 -15.5t-59.5 -25t-77 -15.5q-76 0 -114 42.5t-38 111.5v354h50v-348q0 -51 25 -83.5
t79 -32.5q35 0 75 15t63 29l23 15v405z" />
    <glyph glyph-name="Wcircumflex" unicode="&#x174;" horiz-adv-x="863" 
d="M640 48l123 652h60l-138 -700h-93l-159 648h-4l-158 -648h-93l-138 700h60l123 -652h6l157 652h91l157 -652h6zM357 775h-54l98 125h60l98 -125h-54l-74 77z" />
    <glyph glyph-name="wcircumflex" unicode="&#x175;" horiz-adv-x="646" 
d="M288 500h70l125 -461h4l79 461h50l-88 -500h-80l-122 443h-6l-122 -443h-80l-88 500h50l79 -461h4zM249 575h-54l98 125h60l98 -125h-54l-74 77z" />
    <glyph glyph-name="Ycircumflex" unicode="&#x176;" horiz-adv-x="555" 
d="M81 700l194 -365h4l195 365h66l-234 -422v-278h-57v278l-234 422h66zM203 775h-54l98 125h60l98 -125h-54l-74 77z" />
    <glyph glyph-name="ycircumflex" unicode="&#x177;" horiz-adv-x="456" 
d="M185 22l-170 478h54l152 -433h4l163 433h53l-260 -680h-52l76 194zM154 575h-54l98 125h60l98 -125h-54l-74 77z" />
    <glyph glyph-name="Ydieresis" unicode="&#x178;" horiz-adv-x="555" 
d="M81 700l194 -365h4l195 365h66l-234 -422v-278h-57v278l-234 422h66zM162 790v80h61v-80h-61zM332 790v80h61v-80h-61z" />
    <glyph glyph-name="Zacute" unicode="&#x179;" horiz-adv-x="562" 
d="M505 643l-394 -590v-4h401v-49h-462v57l391 590v4h-379v49h443v-57zM294 775h-58l108 125h80z" />
    <glyph glyph-name="zacute" unicode="&#x17a;" horiz-adv-x="409" 
d="M365 448l-268 -400v-4h272v-44h-329v52l269 400v4h-258v44h314v-52zM220 575h-58l108 125h80z" />
    <glyph glyph-name="Zdotaccent" unicode="&#x17b;" horiz-adv-x="562" 
d="M505 643l-394 -590v-4h401v-49h-462v57l391 590v4h-379v49h443v-57zM250 790v80h61v-80h-61z" />
    <glyph glyph-name="zdotaccent" unicode="&#x17c;" horiz-adv-x="409" 
d="M365 448l-268 -400v-4h272v-44h-329v52l269 400v4h-258v44h314v-52zM174 590v80h61v-80h-61z" />
    <glyph glyph-name="Zcaron" unicode="&#x17d;" horiz-adv-x="562" 
d="M505 643l-394 -590v-4h401v-49h-462v57l391 590v4h-379v49h443v-57zM355 900h54l-98 -125h-60l-98 125h54l74 -77z" />
    <glyph glyph-name="zcaron" unicode="&#x17e;" horiz-adv-x="409" 
d="M365 448l-268 -400v-4h272v-44h-329v52l269 400v4h-258v44h314v-52zM278 700h54l-98 -125h-60l-98 125h54l74 -77z" />
    <glyph glyph-name="longs" unicode="&#x17f;" horiz-adv-x="239" 
d="M20 456v44h50v80q0 59 32.5 94.5t93.5 35.5l58 -8l-5 -40q-23 6 -54 6q-75 0 -75 -95v-573h-50v456h-50z" />
    <glyph glyph-name="florin" unicode="&#x192;" 
d="M316 376l-47 -441q-6 -54 -40.5 -89t-91.5 -35l-56 6l6 42q26 -4 51 -4q72 0 81 91l46 430h-81l5 44h80l17 157q6 60 44.5 96.5t100.5 36.5l67 -7l-8 -42q-35 6 -68 6q-76 0 -86 -93l-15 -154h144l-5 -44h-144z" />
    <glyph glyph-name="AEacute" unicode="&#x1fc;" horiz-adv-x="944" 
d="M410 700h473v-49h-341v-263h309v-48h-309v-291h352v-49h-409v215h-295l-123 -215h-57zM485 262v390h-47l-221 -390h268zM543 775h-58l108 125h80z" />
    <glyph glyph-name="aeacute" unicode="&#x1fd;" horiz-adv-x="762" 
d="M688 53l7 -43q-67 -21 -156 -21q-34 0 -63.5 8.5t-46 20.5t-28.5 24t-17 20l-4 9q-10 -9 -27.5 -22.5t-66.5 -36.5t-93 -23q-67 0 -105 41.5t-38 108.5q0 65 36 104.5t107 39.5h168q0 38 -1 66q-2 50 -30.5 84t-83.5 34q-27 0 -67.5 -5t-66.5 -10l-27 -5l-6 44
q108 20 171 20q29 0 54.5 -7.5t40 -18t25.5 -21t15 -18.5l4 -7l5.5 8t16.5 17t29 21.5t42.5 17.5t56.5 8q79 0 126 -45t47 -112v-115h-300q0 -60 1 -88q2 -49 35 -83.5t90 -34.5q31 0 68.5 5t59.5 10zM197 34q37 0 79 21t66 43l23 21l-5 120h-162q-53 0 -75 -25t-22 -74
q0 -106 96 -106zM413 349l-1 -66h250q0 46 -1 66q-3 49 -35.5 83.5t-84.5 34.5q-60 0 -93 -33t-35 -85zM416 575h-58l108 125h80z" />
    <glyph glyph-name="Oslashacute" unicode="&#x1fe;" horiz-adv-x="622" 
d="M70 0l46 75q-47 58 -49 137q-3 137 0 276q2 93 69.5 157.5t174.5 64.5q92 0 159 -52l26 42h56l-47 -76q47 -57 50 -136q3 -139 0 -276q-2 -93 -69 -157.5t-175 -64.5q-95 0 -160 51l-25 -41h-56zM311 39q87 0 134.5 50t49.5 123q3 138 0 276q-1 45 -21 84l-296 -486
q50 -47 133 -47zM127 212q0 -44 21 -84l295 485q-51 48 -132 48q-86 0 -134 -50t-50 -123q-3 -138 0 -276zM328 775h-58l108 125h80z" />
    <glyph glyph-name="oslashacute" unicode="&#x1ff;" horiz-adv-x="493" 
d="M62 0l33 51q-31 39 -33 95q-3 104 0 208q2 68 49.5 112t135.5 44q71 0 119 -35l16 25h50l-35 -54q32 -40 34 -92q3 -105 0 -208q-2 -68 -51 -112t-133 -44q-73 0 -121 32l-14 -22h-50zM113 149q0 -25 12 -51l216 338q-35 30 -95 30q-62 0 -96.5 -32.5t-36.5 -82.5
q-3 -100 0 -202zM380 350q-2 27 -12 51l-216 -338q35 -29 95 -29q63 0 97 32t36 83q3 101 0 201zM267 575h-58l108 125h80z" />
    <glyph glyph-name="Scommaaccent" unicode="&#x218;" horiz-adv-x="549" 
d="M213 -124v79h63v-68q0 -55 -22 -80t-47 -25v27q16 0 25 16.5t9 37.5l-1 13h-27zM455 691l-6 -49q-97 19 -180 19q-168 0 -168 -130q0 -44 22 -73.5t58 -44.5t78.5 -26.5t85.5 -25t79 -33.5t58 -58t22 -93q0 -93 -60 -140t-190 -47q-54 0 -103.5 5t-71.5 11l-22 5l3 49
q84 -21 186 -21q109 0 154.5 31t45.5 103q0 44 -22 74t-57.5 46t-78.5 28t-85.5 25.5t-78 33t-57.5 57t-22 91.5q0 91 60.5 136.5t163.5 45.5q45 0 91.5 -5t70.5 -9z" />
    <glyph glyph-name="scommaaccent" unicode="&#x219;" horiz-adv-x="423" 
d="M340 495l-7 -44q-64 15 -127 15q-111 0 -111 -88q0 -39 28.5 -61t69.5 -33t82 -24t69.5 -44.5t28.5 -83.5q0 -71 -41.5 -106.5t-135.5 -35.5q-35 0 -71 5t-55 11l-19 5l7 44q71 -21 133 -21q74 0 102 22t28 71q0 40 -28.5 63t-69 34t-81 23.5t-69 44t-28.5 84.5
q0 68 43 101t118 33q31 0 64.5 -4t51.5 -8zM183 -124v79h63v-68q0 -55 -22 -80t-47 -25v27q16 0 25 16.5t9 37.5l-1 13h-27z" />
    <glyph glyph-name="circumflex" unicode="&#x2c6;" horiz-adv-x="256" 
d="M54 575h-54l98 125h60l98 -125h-54l-74 77z" />
    <glyph glyph-name="caron" unicode="&#x2c7;" horiz-adv-x="256" 
d="M202 700h54l-98 -125h-60l-98 125h54l74 -77z" />
    <glyph glyph-name="breve" unicode="&#x2d8;" horiz-adv-x="259" 
d="M0 678h50q0 -24 23 -39t57 -15q35 0 57 15t22 39h50q0 -46 -33 -73t-96 -27q-64 0 -97 27.5t-33 72.5z" />
    <glyph glyph-name="dotaccent" unicode="&#x2d9;" horiz-adv-x="61" 
d="M0 590v80h61v-80h-61z" />
    <glyph glyph-name="ring" unicode="&#x2da;" horiz-adv-x="163" 
d="M0 636q0 34 23.5 56.5t57.5 22.5q33 0 57.5 -23t24.5 -56t-24.5 -55.5t-57.5 -22.5q-34 0 -57.5 22.5t-23.5 55.5zM41 637q0 -16 12 -28t28 -12t28.5 12t12.5 28q0 17 -12 29t-29 12q-16 0 -28 -12t-12 -29z" />
    <glyph glyph-name="ogonek" unicode="&#x2db;" horiz-adv-x="227" 
d="M184 -146l5 -34q-35 -10 -64 -10q-38 0 -59.5 23t-21.5 54q0 29 18 57t36 42l17 14h53q-8 -7 -19.5 -18.5t-31 -40t-19.5 -48.5q0 -19 12.5 -31.5t33.5 -12.5z" />
    <glyph glyph-name="tilde" unicode="&#x2dc;" horiz-adv-x="291" 
d="M45 583h-45q0 28 23 58.5t57 30.5q30 0 70 -24t58 -24q16 0 26 12.5t12 30.5h45q0 -29 -23 -59t-57 -30q-30 0 -70.5 24t-57.5 24q-16 0 -26 -12.5t-12 -30.5z" />
    <glyph glyph-name="hungarumlaut" unicode="&#x2dd;" horiz-adv-x="326" 
d="M58 575h-58l108 125h80zM196 575h-58l108 125h80z" />
    <glyph glyph-name="afii10023" unicode="&#x401;" horiz-adv-x="551" 
d="M80 700h411v-49h-354v-263h321v-48h-321v-291h364v-49h-421v700zM160 790v80h61v-80h-61zM330 790v80h61v-80h-61z" />
    <glyph glyph-name="afii10051" unicode="&#x402;" horiz-adv-x="596" 
d="M20 650v50h408v-50h-188v-256q74 13 141 13q82 0 125.5 -44.5t47.5 -112.5q3 -52 0 -106q-4 -66 -47.5 -110t-124.5 -44l-47 4l6 46q28 -3 40 -3q55 0 84 31.5t32 77.5q3 51 0 102q-3 47 -34.5 78t-84.5 31q-27 0 -61.5 -3.5t-55.5 -7.5l-21 -3v-343h-57v650h-163z" />
    <glyph glyph-name="afii10052" unicode="&#x403;" horiz-adv-x="474" 
d="M137 0h-57v700h374v-51h-317v-649zM284 775h-58l108 125h80z" />
    <glyph glyph-name="afii10053" unicode="&#x404;" horiz-adv-x="520" 
d="M399 378v-49h-273q0 -78 1 -117q2 -72 52.5 -122t138.5 -50q30 0 68.5 5t61.5 10l24 5l3 -50q-92 -20 -157 -20q-109 0 -179 64.5t-72 157.5q-3 137 0 276q2 92 72.5 157t178.5 65q34 0 72 -4.5t59 -9.5l21 -4l-3 -50q-84 18 -149 18q-87 0 -138 -50t-53 -122
q-1 -37 -1 -110h273z" />
    <glyph glyph-name="afii10054" unicode="&#x405;" horiz-adv-x="549" 
d="M455 691l-6 -49q-97 19 -180 19q-168 0 -168 -130q0 -44 22 -73.5t58 -44.5t78.5 -26.5t85.5 -25t79 -33.5t58 -58t22 -93q0 -93 -60 -140t-190 -47q-54 0 -103.5 5t-71.5 11l-22 5l3 49q84 -21 186 -21q109 0 154.5 31t45.5 103q0 44 -22 74t-57.5 46t-78.5 28
t-85.5 25.5t-78 33t-57.5 57t-22 91.5q0 91 60.5 136.5t163.5 45.5q45 0 91.5 -5t70.5 -9z" />
    <glyph glyph-name="afii10055" unicode="&#x406;" horiz-adv-x="217" 
d="M137 700v-700h-57v700h57z" />
    <glyph glyph-name="afii10056" unicode="&#x407;" horiz-adv-x="217" 
d="M137 700v-700h-57v700h57zM-7 790v80h61v-80h-61zM163 790v80h61v-80h-61z" />
    <glyph glyph-name="afii10057" unicode="&#x408;" horiz-adv-x="275" 
d="M15 -3l1 45q16 -3 47 -3q22 0 37 7t23.5 17t13 28.5t5.5 34t1 40.5v534h57v-554q0 -82 -35.5 -119t-93.5 -37q-15 0 -29 1.5t-20 3.5z" />
    <glyph glyph-name="afii10058" unicode="&#x409;" horiz-adv-x="895" 
d="M434 0v651h-251v-201q0 -137 -33.5 -253.5t-78.5 -196.5h-56q114 200 114 458v242h362v-296h187q81 0 126.5 -42.5t48.5 -106.5q3 -54 0 -107q-3 -63 -48.5 -105.5t-126.5 -42.5h-244zM796 260q-2 42 -30.5 68t-85.5 26h-189v-304h189q57 0 85.5 26t30.5 68q3 57 0 116z
" />
    <glyph glyph-name="afii10059" unicode="&#x40a;" horiz-adv-x="944" 
d="M481 0v344h-344v-344h-57v700h57v-307h344v307h57v-306h189q81 0 126.5 -42.5t48.5 -106.5q3 -49 0 -97q-3 -63 -48.5 -105.5t-126.5 -42.5h-246zM845 250q-2 42 -30.5 68t-85.5 26h-191v-294h191q57 0 85.5 26t30.5 68q3 52 0 106z" />
    <glyph glyph-name="afii10060" unicode="&#x40b;" horiz-adv-x="594" 
d="M20 650v50h408v-50h-188v-256q74 13 141 13q82 0 127.5 -45.5t45.5 -111.5v-250h-57v248q0 46 -32.5 77.5t-86.5 31.5q-27 0 -61.5 -3.5t-55.5 -7.5l-21 -3v-343h-57v650h-163z" />
    <glyph glyph-name="afii10061" unicode="&#x40c;" horiz-adv-x="519" 
d="M481 700l-278 -332l299 -368h-73l-293 367l277 333h68zM137 700v-700h-57v700h57zM300 775h-58l108 125h80z" />
    <glyph glyph-name="afii10062" unicode="&#x40e;" horiz-adv-x="546" 
d="M153 878h58q0 -29 18 -47t51 -18t50.5 17.5t17.5 47.5h58q0 -100 -126 -100q-127 0 -127 100zM97 700l179 -417h8l185 417h62l-315 -700h-63l96 211l-219 489h67z" />
    <glyph glyph-name="afii10145" unicode="&#x40f;" horiz-adv-x="631" 
d="M288 -150l-1 150h-207v700h57v-651h357v651h57v-700h-206l-1 -150h-56z" />
    <glyph glyph-name="afii10017" unicode="&#x410;" horiz-adv-x="575" 
d="M245 700h85l225 -700h-56l-69 217h-284l-69 -217h-57zM415 264l-124 388h-7l-123 -388h254z" />
    <glyph glyph-name="afii10018" unicode="&#x411;" horiz-adv-x="545" 
d="M80 0v700h372v-51h-315v-245h195q82 0 125 -40t46 -104q3 -59 0 -117q-3 -63 -46.5 -103t-124.5 -40h-252zM446 260q-6 94 -112 94h-197v-304h197q105 0 112 94q3 46 0 116z" />
    <glyph glyph-name="afii10019" unicode="&#x412;" horiz-adv-x="569" 
d="M318 700q92 0 140 -46t48 -131q0 -56 -25 -94.5t-49 -49.5l-25 -11q5 -1 12.5 -3t26.5 -13.5t34 -28.5t27 -51t12 -78q0 -194 -224 -194h-215v700h238zM329 651h-192v-262h180q62 0 99 33.5t37 98.5q0 62 -31.5 96t-92.5 34zM137 341v-292h163q93 0 127.5 34t34.5 111
q0 147 -145 147h-180z" />
    <glyph glyph-name="afii10020" unicode="&#x413;" horiz-adv-x="474" 
d="M137 0h-57v700h374v-51h-317v-649z" />
    <glyph glyph-name="afii10021" unicode="&#x414;" horiz-adv-x="597" 
d="M20 -150v199h45q83 179 83 387v264h359v-651h60v-199h-52l-6 150h-432l-5 -150h-52zM202 651v-225q0 -106 -24.5 -208t-53.5 -169h326v602h-248z" />
    <glyph glyph-name="afii10022" unicode="&#x415;" horiz-adv-x="551" 
d="M80 700h411v-49h-354v-263h321v-48h-321v-291h364v-49h-421v700z" />
    <glyph glyph-name="afii10024" unicode="&#x416;" horiz-adv-x="682" 
d="M652 700l-223 -333l233 -367h-69l-224 362v-362h-57v362l-223 -362h-69l233 368l-223 332h67l215 -329v329h57v-329l216 329h67z" />
    <glyph glyph-name="afii10025" unicode="&#x417;" horiz-adv-x="489" 
d="M203 348v50h12q62 0 105 37t43 107q0 65 -35.5 92t-113.5 27q-35 0 -72.5 -4.5t-57.5 -9.5l-20 -5l-2 46q81 21 162 21q99 0 147 -43t48 -121q0 -61 -22.5 -101t-81.5 -67q124 -32 124 -184q0 -96 -58 -149.5t-169 -53.5q-40 0 -82 5.5t-64 10.5l-21 6l4 49
q76 -22 152 -22q102 0 140.5 39t38.5 116q0 85 -41 119.5t-124 34.5h-12z" />
    <glyph glyph-name="afii10026" unicode="&#x418;" horiz-adv-x="629" 
d="M549 0h-56v636l-21 -53l-316 -583h-76v700h56v-635l21 52l316 583h76v-700z" />
    <glyph glyph-name="afii10027" unicode="&#x419;" horiz-adv-x="629" 
d="M188 878h58q0 -29 18 -47t51 -18t50.5 17.5t17.5 47.5h58q0 -100 -126 -100q-127 0 -127 100zM549 0h-56v636l-21 -53l-314 -583h-78v700h56v-635l21 52l314 583h78v-700z" />
    <glyph glyph-name="afii10028" unicode="&#x41a;" horiz-adv-x="519" 
d="M481 700l-278 -332l299 -368h-73l-293 367l277 333h68zM137 700v-700h-57v700h57z" />
    <glyph glyph-name="afii10029" unicode="&#x41b;" horiz-adv-x="588" 
d="M134 700h374v-700h-57v651h-261v-201q0 -246 -114 -450h-56q114 200 114 458v242z" />
    <glyph glyph-name="afii10030" unicode="&#x41c;" horiz-adv-x="737" 
d="M657 700v-700h-56v632l-22 -53l-179 -306h-63l-179 307l-22 52v-632h-56v700h72l217 -379l215 379h73z" />
    <glyph glyph-name="afii10031" unicode="&#x41d;" horiz-adv-x="631" 
d="M494 700h57v-700h-57v340h-357v-340h-57v700h57v-311h357v311z" />
    <glyph glyph-name="afii10032" unicode="&#x41e;" horiz-adv-x="622" 
d="M311 710q107 0 174.5 -64.5t69.5 -157.5q3 -139 0 -276q-2 -93 -69 -157.5t-175 -64.5t-175 64.5t-69 157.5q-3 137 0 276q2 93 69.5 157.5t174.5 64.5zM311 39q87 0 134.5 50t49.5 123q3 138 0 276q-2 73 -50 123t-134 50t-134 -50t-50 -123q-3 -138 0 -276
q2 -73 49.5 -123t134.5 -50z" />
    <glyph glyph-name="afii10033" unicode="&#x41f;" horiz-adv-x="656" 
d="M80 700h471v-700h-57v651h-357v-651h-57v700z" />
    <glyph glyph-name="afii10034" unicode="&#x420;" horiz-adv-x="547" 
d="M80 0v700h254q78 0 123.5 -42t47.5 -106q3 -74 0 -149q-2 -64 -47.5 -106t-123.5 -42h-197v-255h-57zM448 398q3 79 0 158q-5 95 -112 95h-199v-347h199q108 0 112 94z" />
    <glyph glyph-name="afii10035" unicode="&#x421;" horiz-adv-x="520" 
d="M472 60l3 -50q-92 -20 -157 -20q-109 0 -179 64.5t-72 157.5q-3 137 0 276q2 92 72.5 157t178.5 65q34 0 72 -4.5t59 -9.5l21 -4l-3 -50q-84 18 -149 18q-87 0 -138 -50t-53 -122q-3 -138 0 -276q2 -72 52.5 -122t138.5 -50q30 0 68.5 5t61.5 10z" />
    <glyph glyph-name="afii10036" unicode="&#x422;" horiz-adv-x="483" 
d="M20 651v49h443v-49h-193v-651h-57v651h-193z" />
    <glyph glyph-name="afii10037" unicode="&#x423;" horiz-adv-x="546" 
d="M97 700l179 -417h8l185 417h62l-315 -700h-63l96 211l-219 489h67z" />
    <glyph glyph-name="afii10038" unicode="&#x424;" horiz-adv-x="709" 
d="M383 709v-64q115 -1 184.5 -60.5t74.5 -153.5q4 -91 0 -151q-5 -92 -75 -152t-184 -61v-76h-57v76q-115 1 -184.5 61t-74.5 152q-3 75 0 151q4 94 73.5 153.5t185.5 60.5v64h57zM125 278q3 -69 56 -115t145 -46v477q-92 -1 -145 -46.5t-56 -113.5q-3 -79 0 -156zM584 434
q-2 69 -55 114t-146 46v-477q92 0 144.5 45.5t56.5 115.5q4 61 0 156z" />
    <glyph glyph-name="afii10039" unicode="&#x425;" horiz-adv-x="578" 
d="M100 700l189 -297l189 297h64l-220 -338l236 -362h-64l-205 317l-205 -317h-64l236 362l-220 338h64z" />
    <glyph glyph-name="afii10040" unicode="&#x426;" horiz-adv-x="641" 
d="M553 0h-473v700h57v-651h357v651h57v-651h60v-199h-52z" />
    <glyph glyph-name="afii10041" unicode="&#x427;" horiz-adv-x="545" 
d="M409 332v368h56v-700h-56v280q-97 -26 -201 -26q-79 0 -123.5 47t-44.5 122v277h57v-280q0 -53 29 -84.5t86 -31.5q40 0 89 7t79 14z" />
    <glyph glyph-name="afii10042" unicode="&#x428;" horiz-adv-x="816" 
d="M736 0h-656v700h56v-651h244v651h56v-651h244v651h56v-700z" />
    <glyph glyph-name="afii10043" unicode="&#x429;" horiz-adv-x="826" 
d="M738 0h-658v700h56v-651h244v651h56v-651h244v651h56v-651h60v-199h-52z" />
    <glyph glyph-name="afii10044" unicode="&#x42a;" horiz-adv-x="605" 
d="M20 652v48h173v-296h195q81 0 126.5 -42.5t48.5 -106.5q3 -54 0 -107q-3 -63 -48.5 -105.5t-126.5 -42.5h-251v650zM506 260q-2 42 -30.5 68t-85.5 26h-197v-304h197q57 0 85.5 26t30.5 68q3 57 0 116z" />
    <glyph glyph-name="afii10045" unicode="&#x42b;" horiz-adv-x="723" 
d="M80 0v700h56v-296h195q81 0 126.5 -42.5t48.5 -106.5q3 -54 0 -107q-3 -63 -48.5 -105.5t-126.5 -42.5h-251zM449 260q-2 42 -30.5 68t-85.5 26h-197v-304h197q57 0 85.5 26t30.5 68q3 57 0 116zM586 0v700h57v-700h-57z" />
    <glyph glyph-name="afii10046" unicode="&#x42c;" horiz-adv-x="548" 
d="M80 0v700h56v-296h195q81 0 126.5 -42.5t48.5 -106.5q3 -54 0 -107q-3 -63 -48.5 -105.5t-126.5 -42.5h-251zM449 260q-2 42 -30.5 68t-85.5 26h-197v-304h197q57 0 85.5 26t30.5 68q3 57 0 116z" />
    <glyph glyph-name="afii10047" unicode="&#x42d;" horiz-adv-x="520" 
d="M121 329v49h273q0 73 -1 110q-2 72 -53 122t-138 50q-29 0 -66 -4.5t-60 -9.5l-23 -4l-3 50q75 18 152 18q108 0 178.5 -65t72.5 -157q3 -139 0 -276q-2 -93 -72 -157.5t-179 -64.5q-29 0 -68 5t-64 10l-25 5l3 50q87 -20 154 -20q88 0 138.5 50t52.5 122q1 39 1 117
h-273z" />
    <glyph glyph-name="afii10048" unicode="&#x42e;" horiz-adv-x="811" 
d="M744 488q3 -137 0 -276q-2 -93 -69.5 -157.5t-174.5 -64.5q-110 0 -176 63.5t-68 158.5q-2 74 -2 128h-118v-340h-56v700h56v-311h118q0 42 2 98q2 95 68.5 159t175.5 64t175.5 -63.5t68.5 -158.5zM499 39q87 0 134.5 50t49.5 123q3 138 0 276q-2 73 -50 123t-134 50
t-134 -50t-50 -123q-3 -138 0 -276q2 -73 49.5 -123t134.5 -50z" />
    <glyph glyph-name="afii10049" unicode="&#x42f;" horiz-adv-x="578" 
d="M258 266l-143 -266h-65l150 269q-62 12 -95 52t-35 95q-3 68 0 136q3 65 47.5 106.5t123.5 41.5h257v-700h-57v266h-183zM127 411q4 -94 108 -94h206v333h-202q-108 0 -112 -94q-3 -73 0 -145z" />
    <glyph glyph-name="afii10065" unicode="&#x430;" horiz-adv-x="477" 
d="M367 0l-5 59q-9 -8 -25 -19.5t-60.5 -30.5t-82.5 -19q-67 0 -105.5 42t-38.5 109t36.5 111t107.5 44h168v52q0 50 -30 84t-85 34q-34 0 -74.5 -5t-64.5 -9l-23 -5l-5 44q92 19 165 19q82 0 124.5 -44t42.5 -112v-354h-45zM197 34q37 0 78.5 20t64.5 40l22 21v137h-164
q-97 0 -97 -110q0 -48 23 -78t73 -30z" />
    <glyph glyph-name="afii10066" unicode="&#x431;" horiz-adv-x="495" 
d="M382 333q-2 51 -36 84t-94 33q-69 0 -101.5 -38.5t-35.5 -89.5q-5 -95 0 -169q4 -54 40 -87t92 -33q62 0 97.5 32.5t37.5 83.5q3 92 0 184zM113 425l5 7.5t16 16.5t28 21t40 16.5t54 7.5q76 0 125.5 -45.5t51.5 -111.5q3 -95 0 -191q-2 -67 -53.5 -112t-134.5 -45
q-81 0 -128.5 47t-52.5 116q-4 61 -4 163q0 96 10.5 158.5t39.5 112t82 75t136 32.5q16 1 33.5 5t26.5 8l10 3v-46q-32 -13 -62 -16q-113 -12 -163.5 -58t-59.5 -164z" />
    <glyph glyph-name="afii10067" unicode="&#x432;" horiz-adv-x="473" 
d="M254 500q152 0 152 -128q0 -22 -6.5 -41.5t-15 -31t-17.5 -20t-15 -11.5l-7 -4q3 -1 8 -3.5t17.5 -12.5t22 -22.5t17.5 -34.5t8 -48q0 -143 -179 -143h-169v500h184zM262 457h-143v-176h135q105 0 105 92q0 84 -97 84zM119 241v-198h121q72 0 100 21.5t28 75.5
q0 101 -114 101h-135z" />
    <glyph glyph-name="afii10068" unicode="&#x433;" horiz-adv-x="369" 
d="M349 500v-44h-228v-456h-51v500h279z" />
    <glyph glyph-name="afii10069" unicode="&#x434;" horiz-adv-x="487" 
d="M20 -104v148h36q65 120 65 266v190h289v-456h47v-148h-47l-3 104h-337l-4 -104h-46zM169 456v-153q0 -132 -60 -259h250v412h-190z" />
    <glyph glyph-name="afii10070" unicode="&#x435;" horiz-adv-x="462" 
d="M388 54l7 -41q-60 -23 -157 -23q-83 0 -128.5 44t-47.5 112q-3 103 0 208q2 66 49 111t127 45q79 0 126.5 -45t47.5 -111v-120h-300q0 -56 1 -83q2 -50 34 -83.5t93 -33.5q37 0 74 5t56 10zM113 349l-1 -71h250q0 50 -1 71q-2 49 -35.5 83t-85.5 34q-60 0 -92.5 -32.5
t-34.5 -84.5z" />
    <glyph glyph-name="afii10072" unicode="&#x436;" horiz-adv-x="526" 
d="M184 262l-165 238h60l160 -238l-168 -262h-61zM508 500l-165 -238l173 -262h-60l-169 262l161 238h60zM287 500v-500h-48v500h48z" />
    <glyph glyph-name="afii10073" unicode="&#x437;" horiz-adv-x="392" 
d="M148 241v42h8q49 0 82 25t33 74q0 46 -26 64.5t-86 18.5q-31 0 -62.5 -4.5t-47.5 -9.5l-16 -5l-4 44q62 20 135 20q156 0 156 -125q0 -42 -14.5 -70t-56.5 -49q49 -16 68.5 -48.5t19.5 -83.5q0 -144 -184 -144q-36 0 -69.5 5t-48.5 10l-15 5l6 46q62 -22 120 -22
q81 0 110.5 23.5t29.5 77.5q0 60 -32 83t-98 23h-8z" />
    <glyph glyph-name="afii10074" unicode="&#x438;" horiz-adv-x="511" 
d="M70 500h51v-442l14 33l239 409h67v-500h-51v443l-15 -34l-238 -409h-67v500z" />
    <glyph glyph-name="afii10075" unicode="&#x439;" horiz-adv-x="511" 
d="M128 678h58q0 -29 18 -47t51 -18t50.5 17.5t17.5 47.5h58q0 -100 -126 -100q-127 0 -127 100zM70 500h51v-442l14 33l239 409h67v-500h-51v443l-15 -34l-238 -409h-67v500z" />
    <glyph glyph-name="afii10076" unicode="&#x43a;" horiz-adv-x="418" 
d="M70 0v500h50v-500h-50zM344 0l-223 264l209 236h63l-213 -234l228 -266h-64z" />
    <glyph glyph-name="afii10077" unicode="&#x43b;" horiz-adv-x="477" 
d="M109 500h298v-500h-51v456h-201v-137q0 -171 -90 -319h-50q94 153 94 324v176z" />
    <glyph glyph-name="afii10078" unicode="&#x43c;" horiz-adv-x="595" 
d="M525 500v-500h-50v434l-150 -235h-55l-150 235v-434h-50v500h65l163 -260l162 260h65z" />
    <glyph glyph-name="afii10079" unicode="&#x43d;" horiz-adv-x="511" 
d="M390 500h51v-500h-51v240h-269v-240h-51v500h51v-216h269v216z" />
    <glyph glyph-name="afii10080" unicode="&#x43e;" horiz-adv-x="493" 
d="M431 146q-2 -68 -51 -112t-133 -44q-88 0 -135.5 44t-49.5 112q-3 104 0 208q2 68 49.5 112t135.5 44q83 0 132.5 -45t51.5 -111q3 -105 0 -208zM380 350q-2 52 -36 84t-98 32q-62 0 -96.5 -32.5t-36.5 -82.5q-3 -100 0 -202q2 -50 36.5 -82.5t97.5 -32.5t97 32t36 83
q3 101 0 201z" />
    <glyph glyph-name="afii10081" unicode="&#x43f;" horiz-adv-x="511" 
d="M70 500h371v-500h-51v456h-269v-456h-51v500z" />
    <glyph glyph-name="afii10082" unicode="&#x440;" horiz-adv-x="497" 
d="M70 -180v680h46l4 -48l26 16t59.5 26t77.5 16q75 0 112.5 -41.5t39.5 -109.5q3 -105 0 -209q-2 -70 -45.5 -115t-129.5 -45q-32 0 -67 6.5t-54 13.5l-19 6v-196h-50zM384 155q3 100 0 198q-4 113 -103 113q-36 0 -76 -15t-63 -31l-22 -15v-342q50 -29 140 -29
q60 0 91 35.5t33 85.5z" />
    <glyph glyph-name="afii10083" unicode="&#x441;" horiz-adv-x="399" 
d="M362 48l7 -42q-63 -16 -127 -16q-83 0 -130.5 44.5t-49.5 111.5q-3 104 0 208q2 67 50 111.5t131 44.5q24 0 53.5 -3t47.5 -6l17 -3l-5 -43q-67 11 -114 11q-58 0 -92.5 -33.5t-36.5 -82.5q-3 -100 0 -201q2 -48 36.5 -81.5t92.5 -33.5q29 0 59 3.5t45 6.5z" />
    <glyph glyph-name="afii10084" unicode="&#x442;" horiz-adv-x="373" 
d="M10 456v44h353v-44h-151v-456h-51v456h-151z" />
    <glyph glyph-name="afii10085" unicode="&#x443;" horiz-adv-x="456" 
d="M185 22l-170 478h54l152 -433h4l163 433h53l-260 -680h-52l76 194z" />
    <glyph glyph-name="afii10086" unicode="&#x444;" horiz-adv-x="710" 
d="M330 -180v185q-59 -5 -92 -5q-82 0 -127 44t-48 112q-4 93 0 187q2 68 47.5 112.5t128.5 44.5l91 -5v205h50v-205q56 5 91 5q82 0 127.5 -44t48.5 -112q4 -94 0 -188q-3 -68 -48 -112t-127 -44l-92 5v-185h-50zM472 456q-31 0 -92 -7v-398q54 -7 92 -7q58 0 90 33.5
t34 82.5q4 89 0 179q-2 49 -34.5 83t-89.5 34zM238 44q38 0 92 7v398q-61 7 -92 7q-57 0 -89.5 -34t-34.5 -83q-4 -89 0 -179q2 -49 34 -82.5t90 -33.5z" />
    <glyph glyph-name="afii10087" unicode="&#x445;" horiz-adv-x="434" 
d="M90 500l127 -205l127 205h57l-156 -239l169 -261h-57l-140 223l-140 -223h-57l169 261l-156 239h57z" />
    <glyph glyph-name="afii10088" unicode="&#x446;" horiz-adv-x="518" 
d="M438 0h-368v500h51v-456h269v456h51v-456h47v-148h-47z" />
    <glyph glyph-name="afii10089" unicode="&#x447;" horiz-adv-x="460" 
d="M339 249v251h51v-500h-51v205q-80 -27 -153 -27q-67 0 -101.5 33.5t-34.5 93.5v195h51v-197q0 -82 88 -82q28 0 65.5 7t61.5 14z" />
    <glyph glyph-name="afii10090" unicode="&#x448;" horiz-adv-x="666" 
d="M596 0h-526v500h50v-456h188v456h50v-456h188v456h50v-500z" />
    <glyph glyph-name="afii10091" unicode="&#x449;" horiz-adv-x="673" 
d="M593 0h-523v500h50v-456h188v456h50v-456h188v456h50v-456h47v-148h-47z" />
    <glyph glyph-name="afii10092" unicode="&#x44a;" horiz-adv-x="490" 
d="M10 458v42h147v-211h150q67 0 102.5 -29t38.5 -75q4 -40 0 -82q-4 -47 -39 -75t-102 -28h-200v456zM397 183q-5 62 -89 62h-151v-201h151q84 0 89 59q4 39 0 80z" />
    <glyph glyph-name="afii10093" unicode="&#x44b;" horiz-adv-x="590" 
d="M70 0v500h50v-211h150q67 0 102.5 -29t38.5 -75q4 -40 0 -82q-4 -47 -39 -75t-102 -28h-200zM360 183q-5 62 -89 62h-151v-201h151q84 0 89 59q4 39 0 80zM469 0v500h51v-500h-51z" />
    <glyph glyph-name="afii10094" unicode="&#x44c;" horiz-adv-x="453" 
d="M70 0v500h50v-211h150q67 0 102.5 -29t38.5 -75q4 -40 0 -82q-4 -47 -39 -75t-102 -28h-200zM360 183q-5 62 -89 62h-151v-201h151q84 0 89 59q4 39 0 80z" />
    <glyph glyph-name="afii10095" unicode="&#x44d;" horiz-adv-x="399" 
d="M76 226v43h211q0 55 -1 81q-2 49 -36.5 82.5t-92.5 33.5q-21 0 -49.5 -3l-46.5 -5l-18 -3l-5 43q63 12 118 12q83 0 131 -44.5t50 -111.5q3 -104 0 -208q-2 -67 -49.5 -111.5t-130.5 -44.5q-28 0 -60 4t-49 8l-18 4l7 42q54 -14 120 -14q58 0 92.5 33.5t36.5 81.5
q1 25 1 77h-211z" />
    <glyph glyph-name="afii10096" unicode="&#x44e;" horiz-adv-x="644" 
d="M582 352q3 -101 0 -204q-2 -65 -55 -111.5t-138 -46.5q-89 0 -140 46t-53 113l-1 85h-74v-234h-51v500h51v-222h74q-1 14 1 74q2 68 53 113t140 45q88 0 139.5 -45t53.5 -113zM531 147q3 103 0 206q-2 51 -37 82t-105 31q-69 0 -104 -31t-37 -81q-6 -103 0 -208
q2 -50 37 -81t104 -31q68 0 104 31t38 82z" />
    <glyph glyph-name="afii10097" unicode="&#x44f;" horiz-adv-x="458" 
d="M203 189l-114 -189h-54l120 194q-103 16 -107 105q-3 47 0 95q2 46 39 76t101 30h200v-500h-50v189h-135zM99 299q8 -66 88 -66h151v223h-151q-81 0 -88 -63q-3 -48 0 -94z" />
    <glyph glyph-name="afii10071" unicode="&#x451;" horiz-adv-x="462" 
d="M388 54l7 -41q-60 -23 -157 -23q-83 0 -128.5 44t-47.5 112q-3 103 0 208q2 66 49 111t127 45q79 0 126.5 -45t47.5 -111v-120h-300q0 -56 1 -83q2 -50 34 -83.5t93 -33.5q37 0 74 5t56 10zM113 349l-1 -71h250q0 50 -1 71q-2 49 -35.5 83t-85.5 34q-60 0 -92.5 -32.5
t-34.5 -84.5zM122 590v80h61v-80h-61zM292 590v80h61v-80h-61z" />
    <glyph glyph-name="afii10099" unicode="&#x452;" horiz-adv-x="500" 
d="M385 340q0 51 -25 83.5t-79 32.5q-35 0 -75 -15t-63 -29l-23 -15v-397h-50v589h-56v44h56v67h50v-67h171v-44h-171v-145l26.5 15.5t59.5 25t77 15.5q76 0 114 -42.5t38 -111.5v-392q0 -60 -33 -97t-93 -37l-51 6l4 43q24 -5 48 -5q75 0 75 96v380z" />
    <glyph glyph-name="afii10100" unicode="&#x453;" horiz-adv-x="369" 
d="M349 500v-44h-228v-456h-51v500h279zM250 575h-58l108 125h80z" />
    <glyph glyph-name="afii10101" unicode="&#x454;" horiz-adv-x="399" 
d="M323 269v-43h-211q0 -52 1 -77q2 -48 36.5 -81.5t92.5 -33.5q29 0 59 3.5t45 6.5l16 4l7 -42q-63 -16 -127 -16q-83 0 -130.5 44.5t-49.5 111.5q-3 104 0 208q2 67 50 111.5t131 44.5q24 0 53.5 -3t47.5 -6l17 -3l-5 -43q-67 11 -114 11q-58 0 -92.5 -33.5t-36.5 -82.5
q-1 -26 -1 -81h211z" />
    <glyph glyph-name="afii10102" unicode="&#x455;" horiz-adv-x="423" 
d="M340 495l-7 -44q-64 15 -127 15q-111 0 -111 -88q0 -39 28.5 -61t69.5 -33t82 -24t69.5 -44.5t28.5 -83.5q0 -71 -41.5 -106.5t-135.5 -35.5q-35 0 -71 5t-55 11l-19 5l7 44q71 -21 133 -21q74 0 102 22t28 71q0 40 -28.5 63t-69 34t-81 23.5t-69 44t-28.5 84.5
q0 68 43 101t118 33q31 0 64.5 -4t51.5 -8z" />
    <glyph glyph-name="afii10103" unicode="&#x456;" horiz-adv-x="195" 
d="M72 0v500h50v-500h-50zM70 602v98h55v-98h-55z" />
    <glyph glyph-name="afii10104" unicode="&#x457;" horiz-adv-x="195" 
d="M72 0v500h50v-500h-50zM-18 602v98h61v-98h-61zM152 602v98h61v-98h-61z" />
    <glyph glyph-name="afii10105" unicode="&#x458;" horiz-adv-x="210" 
d="M84 602v98h56v-98h-56zM136 500v-556q0 -60 -33 -97t-93 -37l-51 6l4 43q24 -5 48 -5q75 0 75 96v550h50z" />
    <glyph glyph-name="afii10106" unicode="&#x459;" horiz-adv-x="728" 
d="M351 0v456h-201v-137q0 -171 -90 -319h-50q94 153 94 324v176h298v-211h143q67 0 102.5 -29t38.5 -75q4 -40 0 -82q-4 -47 -39 -75t-102 -28h-194zM635 183q-5 62 -89 62h-144v-201h144q84 0 89 59q4 39 0 80z" />
    <glyph glyph-name="afii10107" unicode="&#x45a;" horiz-adv-x="763" 
d="M384 0v243h-263v-243h-51v500h51v-213h263v213h51v-213h145q67 0 102.5 -28t38.5 -74q4 -40 0 -82q-4 -47 -39 -75t-102 -28h-196zM670 183q-5 60 -89 60h-146v-199h146q84 0 89 59q4 39 0 80z" />
    <glyph glyph-name="afii10108" unicode="&#x45b;" horiz-adv-x="500" 
d="M14 589v44h56v67h50v-67h171v-44h-171v-145l26.5 15.5t59.5 25t77 15.5q76 0 114 -42.5t38 -111.5v-346h-50v340q0 51 -25 83.5t-79 32.5q-35 0 -75 -15t-63 -29l-23 -15v-397h-50v589h-56z" />
    <glyph glyph-name="afii10109" unicode="&#x45c;" horiz-adv-x="418" 
d="M70 0v500h50v-500h-50zM344 0l-223 264l209 236h63l-213 -234l228 -266h-64zM252 575h-58l108 125h80z" />
    <glyph glyph-name="afii10110" unicode="&#x45e;" horiz-adv-x="456" 
d="M100 678h58q0 -29 18 -47t51 -18t50.5 17.5t17.5 47.5h58q0 -100 -126 -100q-127 0 -127 100zM185 22l-170 478h54l152 -433h4l163 433h53l-260 -680h-52l76 194z" />
    <glyph glyph-name="afii10193" unicode="&#x45f;" horiz-adv-x="511" 
d="M232 -103l-1 103h-161v500h51v-456h269v456h51v-500h-159l-1 -103h-49z" />
    <glyph glyph-name="afii10146" unicode="&#x462;" horiz-adv-x="620" 
d="M20 652v48h385v-50h-212v-246h195q81 0 126.5 -42.5t48.5 -106.5q3 -54 0 -107q-3 -63 -48.5 -105.5t-126.5 -42.5h-251v650zM506 260q-2 42 -30.5 68t-85.5 26h-197v-304h197q57 0 85.5 26t30.5 68q3 57 0 116z" />
    <glyph glyph-name="afii10194" unicode="&#x463;" horiz-adv-x="453" 
d="M14 589v44h56v67h50v-67h171v-44h-171v-300h150q67 0 102.5 -29t38.5 -75q4 -40 0 -82q-4 -47 -39 -75t-102 -28h-200v589h-56zM360 183q-5 62 -89 62h-151v-201h151q84 0 89 59q4 39 0 80z" />
    <glyph glyph-name="afii10147" unicode="&#x472;" horiz-adv-x="622" 
d="M311 710q107 0 174.5 -64.5t69.5 -157.5q3 -139 0 -276q-2 -93 -69 -157.5t-175 -64.5t-175 64.5t-69 157.5q-3 137 0 276q2 93 69.5 157.5t174.5 64.5zM311 39q87 0 134.5 50t49.5 123q1 44 1 131q-54 -48 -105 -48q-28 0 -81 31.5t-79 31.5q-24 0 -50.5 -16t-40.5 -32
l-15 -16q1 -55 2 -82q2 -73 49.5 -123t134.5 -50zM235 410q28 0 80 -31.5t80 -31.5q24 0 49.5 15t38.5 30l13 15q-1 54 -1 81q-2 73 -50 123t-134 50t-134 -50t-50 -123q-2 -86 -2 -129q57 51 110 51z" />
    <glyph glyph-name="afii10195" unicode="&#x473;" horiz-adv-x="493" 
d="M431 146q-2 -68 -51 -112t-133 -44q-88 0 -135.5 44t-49.5 112q-3 104 0 208q2 68 49.5 112t135.5 44q83 0 132.5 -45t51.5 -111q3 -105 0 -208zM380 149q1 25 1 76q-29 -22 -63 -22q-28 0 -71.5 23.5t-69.5 23.5q-35 0 -66 -34q0 -23 2 -67q2 -50 36.5 -82.5t97.5 -32.5
t97 32t36 83zM180 299q28 0 70.5 -23.5t70.5 -23.5q35 0 60 30q0 12 -0.5 34.5t-0.5 33.5q-2 52 -36 84t-98 32q-62 0 -96.5 -32.5t-36.5 -82.5q-2 -52 -2 -79q34 27 69 27z" />
    <glyph glyph-name="afii10148" unicode="&#x474;" horiz-adv-x="560" 
d="M475 580l-156 -580h-84l-215 700h60l196 -652h4l138 531q17 64 46 97.5t85 33.5q11 0 22 -2t16 -4l5 -1l-4 -48q-21 5 -40 5q-34 0 -47 -15t-26 -65z" />
    <glyph glyph-name="afii10196" unicode="&#x475;" horiz-adv-x="422" 
d="M15 500h51l145 -467l105 383q12 45 35 69.5t68 24.5q9 0 18 -2t13 -4l5 -1l-3 -42q-19 6 -34 6q-23 0 -33 -10.5t-18 -41.5l-117 -415h-78z" />
    <glyph glyph-name="afii10050" unicode="&#x490;" horiz-adv-x="474" 
d="M137 0h-57v700h317l3 130h54v-181h-317v-649z" />
    <glyph glyph-name="afii10098" unicode="&#x491;" horiz-adv-x="369" 
d="M349 604v-148h-228v-456h-51v500h226l5 104h48z" />
    <glyph glyph-name="afii10846" unicode="&#x4d9;" horiz-adv-x="462" 
d="M74 446l-7 41q60 23 157 23q83 0 128.5 -44t47.5 -112q3 -103 0 -208q-2 -66 -49 -111t-127 -45q-79 0 -126.5 45t-47.5 111v120h300q0 56 -1 83q-2 50 -34 83.5t-93 33.5q-37 0 -74 -5t-56 -10zM349 151l1 71h-250q0 -50 1 -71q2 -49 35.5 -83t85.5 -34q60 0 92.5 32.5
t34.5 84.5z" />
    <glyph glyph-name="uni1E02" unicode="&#x1e02;" horiz-adv-x="569" 
d="M318 700q92 0 140 -46t48 -131q0 -56 -25 -94.5t-49 -49.5l-25 -11q5 -1 12.5 -3t26.5 -13.5t34 -28.5t27 -51t12 -78q0 -194 -224 -194h-215v700h238zM329 651h-192v-262h180q62 0 99 33.5t37 98.5q0 62 -31.5 96t-92.5 34zM137 341v-292h163q93 0 127.5 34t34.5 111
q0 147 -145 147h-180zM243 790v80h61v-80h-61z" />
    <glyph glyph-name="uni1E03" unicode="&#x1e03;" horiz-adv-x="498" 
d="M70 14v686h50v-242q79 49 160 49q75 0 114.5 -42.5t41.5 -110.5q3 -103 0 -208q-2 -69 -46 -112.5t-130 -43.5q-48 0 -95.5 6t-70.5 12zM385 151q3 98 0 197q-2 51 -28 83.5t-79 32.5q-35 0 -74.5 -13t-61.5 -26l-22 -13v-362q50 -16 140 -16q60 0 91.5 33.5t33.5 83.5z
M218 790v80h61v-80h-61z" />
    <glyph glyph-name="uni1E0A" unicode="&#x1e0a;" horiz-adv-x="603" 
d="M80 0v700h205q109 0 179 -60.5t72 -151.5q3 -139 0 -276q-2 -92 -71.5 -152t-179.5 -60h-205zM285 651h-148v-602h148q89 0 140 46t53 117q3 138 0 276q-2 71 -53.5 117t-139.5 46zM250 790v80h61v-80h-61z" />
    <glyph glyph-name="uni1E0B" unicode="&#x1e0b;" horiz-adv-x="497" 
d="M427 700v-700h-46l-4 48l-26 -16t-59.5 -26t-77.5 -16q-75 0 -112.5 41.5t-39.5 109.5q-3 105 0 209q2 70 45.5 115t129.5 45q32 0 67 -6.5t54 -13.5l19 -6v216h50zM113 345q-3 -100 0 -198q4 -113 103 -113q36 0 76 15t62 31l23 15v342q-50 29 -140 29q-60 0 -91 -35.5
t-33 -85.5zM218 790v80h61v-80h-61z" />
    <glyph glyph-name="uni1E1E" unicode="&#x1e1e;" horiz-adv-x="501" 
d="M80 700h391v-50h-335v-274h302v-49h-302v-327h-56v700zM252 790v80h61v-80h-61z" />
    <glyph glyph-name="uni1E1F" unicode="&#x1e1f;" horiz-adv-x="323" 
d="M20 456v44h80v80q0 59 32.5 94.5t93.5 35.5l82 -8l-5 -40q-38 6 -78 6q-75 0 -75 -95v-73h143v-44h-143v-456h-50v456h-80zM131 790v80h61v-80h-61z" />
    <glyph glyph-name="uni1E40" unicode="&#x1e40;" horiz-adv-x="737" 
d="M657 700v-700h-56v632l-22 -53l-179 -306h-63l-179 307l-22 52v-632h-56v700h72l217 -379l215 379h73zM338 790v80h61v-80h-61z" />
    <glyph glyph-name="uni1E41" unicode="&#x1e41;" horiz-adv-x="722" 
d="M390 0h-50v363q0 43 -21.5 72t-64.5 29q-28 0 -61.5 -15t-52.5 -31l-20 -15v-403h-50v500h46l4 -48q8 6 22 15.5t50.5 25t64.5 15.5q24 0 44.5 -6.5t33 -15t21.5 -17.5t12 -15l4 -7q7 7 20 17t50.5 27t72.5 17q67 0 104.5 -40.5t37.5 -113.5v-354h-50v346q0 54 -25 86
t-71 32q-28 0 -58.5 -14t-46.5 -28l-16 -15v-407zM330 590v80h61v-80h-61z" />
    <glyph glyph-name="uni1E56" unicode="&#x1e56;" horiz-adv-x="547" 
d="M80 0v700h254q78 0 123.5 -42t47.5 -106q3 -74 0 -149q-2 -64 -47.5 -106t-123.5 -42h-197v-255h-57zM448 398q3 79 0 158q-5 95 -112 95h-199v-347h199q108 0 112 94zM243 790v80h61v-80h-61z" />
    <glyph glyph-name="uni1E57" unicode="&#x1e57;" horiz-adv-x="497" 
d="M70 -180v680h46l4 -48l26 16t59.5 26t77.5 16q75 0 112.5 -41.5t39.5 -109.5q3 -105 0 -209q-2 -70 -45.5 -115t-129.5 -45q-32 0 -67 6.5t-54 13.5l-19 6v-196h-50zM384 155q3 100 0 198q-4 113 -103 113q-36 0 -76 -15t-63 -31l-22 -15v-342q50 -29 140 -29
q60 0 91 35.5t33 85.5zM218 590v80h61v-80h-61z" />
    <glyph glyph-name="uni1E60" unicode="&#x1e60;" horiz-adv-x="549" 
d="M455 691l-6 -49q-97 19 -180 19q-168 0 -168 -130q0 -44 22 -73.5t58 -44.5t78.5 -26.5t85.5 -25t79 -33.5t58 -58t22 -93q0 -93 -60 -140t-190 -47q-54 0 -103.5 5t-71.5 11l-22 5l3 49q84 -21 186 -21q109 0 154.5 31t45.5 103q0 44 -22 74t-57.5 46t-78.5 28
t-85.5 25.5t-78 33t-57.5 57t-22 91.5q0 91 60.5 136.5t163.5 45.5q45 0 91.5 -5t70.5 -9zM244 790v80h61v-80h-61z" />
    <glyph glyph-name="uni1E61" unicode="&#x1e61;" horiz-adv-x="423" 
d="M340 495l-7 -44q-64 15 -127 15q-111 0 -111 -88q0 -39 28.5 -61t69.5 -33t82 -24t69.5 -44.5t28.5 -83.5q0 -71 -41.5 -106.5t-135.5 -35.5q-35 0 -71 5t-55 11l-19 5l7 44q71 -21 133 -21q74 0 102 22t28 71q0 40 -28.5 63t-69 34t-81 23.5t-69 44t-28.5 84.5
q0 68 43 101t118 33q31 0 64.5 -4t51.5 -8zM181 590v80h61v-80h-61z" />
    <glyph glyph-name="uni1E6A" unicode="&#x1e6a;" horiz-adv-x="483" 
d="M20 651v49h443v-49h-193v-651h-57v651h-193zM211 790v80h61v-80h-61z" />
    <glyph glyph-name="uni1E6B" unicode="&#x1e6b;" horiz-adv-x="317" 
d="M20 456v44h81v120h50v-120h146v-44h-146v-329q0 -51 17.5 -72t54.5 -21l68 6l4 -40q-47 -10 -78 -10q-58 0 -87 33.5t-29 88.5v344h-81zM99 790v80h61v-80h-61z" />
    <glyph glyph-name="Wgrave" unicode="&#x1e80;" horiz-adv-x="863" 
d="M640 48l123 652h60l-138 -700h-93l-159 648h-4l-158 -648h-93l-138 700h60l123 -652h6l157 652h91l157 -652h6zM459 775h-58l-130 125h80z" />
    <glyph glyph-name="wgrave" unicode="&#x1e81;" horiz-adv-x="646" 
d="M288 500h70l125 -461h4l79 461h50l-88 -500h-80l-122 443h-6l-122 -443h-80l-88 500h50l79 -461h4zM350 575h-58l-130 125h80z" />
    <glyph glyph-name="Wacute" unicode="&#x1e82;" horiz-adv-x="863" 
d="M640 48l123 652h60l-138 -700h-93l-159 648h-4l-158 -648h-93l-138 700h60l123 -652h6l157 652h91l157 -652h6zM458 775h-58l108 125h80z" />
    <glyph glyph-name="wacute" unicode="&#x1e83;" horiz-adv-x="646" 
d="M288 500h70l125 -461h4l79 461h50l-88 -500h-80l-122 443h-6l-122 -443h-80l-88 500h50l79 -461h4zM347 575h-58l108 125h80z" />
    <glyph glyph-name="Wdieresis" unicode="&#x1e84;" horiz-adv-x="863" 
d="M640 48l123 652h60l-138 -700h-93l-159 648h-4l-158 -648h-93l-138 700h60l123 -652h6l157 652h91l157 -652h6zM316 790v80h61v-80h-61zM486 790v80h61v-80h-61z" />
    <glyph glyph-name="wdieresis" unicode="&#x1e85;" horiz-adv-x="646" 
d="M288 500h70l125 -461h4l79 461h50l-88 -500h-80l-122 443h-6l-122 -443h-80l-88 500h50l79 -461h4zM207 590v80h61v-80h-61zM377 590v80h61v-80h-61z" />
    <glyph glyph-name="Ygrave" unicode="&#x1ef2;" horiz-adv-x="555" 
d="M81 700l194 -365h4l195 365h66l-234 -422v-278h-57v278l-234 422h66zM328 775h-58l-130 125h80z" />
    <glyph glyph-name="ygrave" unicode="&#x1ef3;" horiz-adv-x="456" 
d="M185 22l-170 478h54l152 -433h4l163 433h53l-260 -680h-52l76 194zM271 575h-58l-130 125h80z" />
    <glyph glyph-name="endash" unicode="&#x2013;" horiz-adv-x="368" 
d="M368 319v-48h-368v48h368z" />
    <glyph glyph-name="emdash" unicode="&#x2014;" horiz-adv-x="735" 
d="M735 319v-48h-735v48h735z" />
    <glyph glyph-name="quoteleft" unicode="&#x2018;" horiz-adv-x="135" 
d="M83 616v-79h-63v68q0 55 22 80t47 25v-27q-16 0 -25 -16.5t-9 -37.5l1 -13h27z" />
    <glyph glyph-name="quoteright" unicode="&#x2019;" horiz-adv-x="135" 
d="M51 621v79h63v-68q0 -55 -22 -80t-47 -25v27q16 0 25 16.5t9 37.5l-1 13h-27z" />
    <glyph glyph-name="quotesinglbase" unicode="&#x201a;" horiz-adv-x="180" 
d="M51 0v79h63v-68q0 -55 -22 -80t-47 -25v27q16 0 25 16.5t9 37.5l-1 13h-27z" />
    <glyph glyph-name="quotedblleft" unicode="&#x201c;" horiz-adv-x="250" 
d="M199 616v-79h-63v68q0 55 22 80t47 25v-27q-16 0 -25 -16.5t-9 -37.5l1 -13h27zM83 616v-79h-63v68q0 55 22 80t47 25v-27q-16 0 -25 -16.5t-9 -37.5l1 -13h27z" />
    <glyph glyph-name="quotedblright" unicode="&#x201d;" horiz-adv-x="250" 
d="M51 621v79h63v-68q0 -55 -22 -80t-47 -25v27q16 0 25 16.5t9 37.5l-1 13h-27zM167 621v79h63v-68q0 -55 -22 -80t-47 -25v27q16 0 25 16.5t9 37.5l-1 13h-27z" />
    <glyph glyph-name="quotedblbase" unicode="&#x201e;" horiz-adv-x="295" 
d="M51 0v79h63v-68q0 -55 -22 -80t-47 -25v27q16 0 25 16.5t9 37.5l-1 13h-27zM167 0v79h63v-68q0 -55 -22 -80t-47 -25v27q16 0 25 16.5t9 37.5l-1 13h-27z" />
    <glyph glyph-name="dagger" unicode="&#x2020;" horiz-adv-x="531" 
d="M291 443v-623h-51v623h-180v44h180v213h51v-213h180v-44h-180z" />
    <glyph glyph-name="daggerdbl" unicode="&#x2021;" horiz-adv-x="532" 
d="M472 77v-44h-180v-213h-51v213h-181v44h181v366h-181v44h181v213h51v-213h180v-44h-180v-366h180z" />
    <glyph glyph-name="bullet" unicode="&#x2022;" horiz-adv-x="425" 
d="M75 360q0 57 40 97.5t97 40.5t97.5 -40.5t40.5 -97.5q0 -58 -40.5 -98t-97.5 -40q-58 0 -97.5 40t-39.5 98z" />
    <glyph glyph-name="ellipsis" unicode="&#x2026;" horiz-adv-x="663" 
d="M80 0v79h61v-79h-61zM301 0v79h61v-79h-61zM522 0v79h61v-79h-61z" />
    <glyph glyph-name="perthousand" unicode="&#x2030;" horiz-adv-x="1182" 
d="M369 574v-94q0 -60 -42 -97t-103 -37q-60 0 -102 38t-42 96v94q0 59 41.5 96.5t102.5 37.5t103 -37t42 -97zM319 475v103q0 43 -26 66t-69 23q-44 0 -69.5 -23t-25.5 -66v-102q0 -43 25.5 -65.5t69.5 -22.5q43 0 69 22.5t26 64.5zM237 0l315 700h50l-316 -700h-49z
M759 218v-94q0 -60 -42 -97t-103 -37t-102.5 38t-41.5 96v94q0 60 41.5 97t102.5 37t103 -37t42 -97zM709 119v103q0 43 -26 66t-69 23q-44 0 -69.5 -23t-25.5 -66v-102q0 -43 25.5 -65.5t69.5 -22.5q43 0 69 22.5t26 64.5zM1102 218v-94q0 -60 -42 -97t-103 -37t-102.5 38
t-41.5 96v94q0 60 41.5 97t102.5 37t103 -37t42 -97zM1052 119v103q0 43 -26 66t-69 23q-44 0 -69.5 -23t-25.5 -66v-102q0 -43 25.5 -65.5t69.5 -22.5q43 0 69 22.5t26 64.5z" />
    <glyph glyph-name="guilsinglleft" unicode="&#x2039;" horiz-adv-x="315" 
d="M245 137h-60l-120 154l120 153h60l-120 -153z" />
    <glyph glyph-name="guilsinglright" unicode="&#x203a;" horiz-adv-x="315" 
d="M130 137h-60l120 154l-120 153h60l120 -153z" />
    <glyph glyph-name="fraction" unicode="&#x2044;" horiz-adv-x="272" 
d="M-48 0l315 700h50l-316 -700h-49z" />
    <glyph glyph-name="Euro" unicode="&#x20ac;" 
d="M412 303v-45h-220q0 -6 0.5 -23t0.5 -23q2 -72 52.5 -122t138.5 -50q29 0 60 3.5t48 6.5l17 4l3 -49q-67 -15 -128 -15q-109 0 -179 64.5t-72 157.5q0 6 -0.5 23t-0.5 23h-65v45h64v89h-64v45h65q0 39 1 51q2 92 72.5 157t178.5 65q25 0 55.5 -3.5t48.5 -6.5l18 -4
l-3 -50q-65 14 -119 14q-87 0 -138 -50t-53 -122q-1 -12 -1 -51h245v-45h-246v-89h221z" />
    <glyph glyph-name="litre" unicode="&#x2113;" horiz-adv-x="407" 
d="M76 175l-19 34l53 42v332q0 53 35 90t88 37q57 0 90.5 -40.5t33.5 -111.5q0 -83 -60.5 -171t-138.5 -153v-144q0 -28 18.5 -43.5t46.5 -15.5q26 0 45 19t19 47v11h45v-10q0 -45 -31.5 -76.5t-78.5 -31.5t-79.5 31.5t-32.5 76.5v103zM158 585v-298q62 57 106.5 131.5
t44.5 137.5q0 55 -21.5 81t-55.5 26q-33 0 -53.5 -23.5t-20.5 -54.5z" />
    <glyph glyph-name="trademark" unicode="&#x2122;" horiz-adv-x="679" 
d="M60 661v39h209v-39h-84v-282h-41v282h-84zM599 700v-321h-41v253l-74 -118h-41l-71 118v-253h-42v321h49l85 -146l86 146h49z" />
    <glyph glyph-name="estimated" unicode="&#x212e;" horiz-adv-x="796" 
d="M756 329h-577v-206q94 -89 219 -89q121 0 214 83l32 -30q-106 -96 -246 -96q-149 0 -254 105t-105 254t105 254t254 105t254 -105t105 -254q0 -13 -1 -21zM398 666q-125 0 -219 -89v0v0v0v-1v0v0v-1v0v-1v-1v0v-1v-1v-1v-1v-1v-1v-1v-1v-1v-1v-1v-1v-1v-1v-1v-1v-1v-1v-1
v-1v-1v-1v-1v-1v-1v-1v-1v-1v-1v-1v-1v-1v-1v-1v-1v-1v-2v-1v-1v-1v-1v-1v-1v-1v-2v-1v-1v-1v-1v-2v-1v-1v-1v-2v-1v-1v-1v-2v-1v-1v-2v-1v-1v-2v-1v-1v-2v-1v-2v-1v-1v-2v-1v-2v-1v-1v-2v-1v-2v-1v-2v-1v-2v-1v-2v-1v-2v-1v-2v-1v-2v-1v-2v-2v-1v-2v-1v-2v-1v-2v-2v-1v-2
v-2v-1v-2v-2v-1v-2v-2v-1v-2v-2v-1v-2v-2v-1v-2v-2v-2v-1v-2v-2v-2v-1v-2v-2v-2v-1v-2v-2v-2v-2v-1v-2v-2v-2v-2v-2v-9h439v204q-93 90 -220 90z" />
    <glyph glyph-name="minus" unicode="&#x2212;" 
d="M75 306h429v-48h-429v48z" />
    <glyph glyph-name="commaaccent.small" unicode="&#xf635;" horiz-adv-x="63" 
d="M0 -124v79h63v-68q0 -55 -22 -80t-47 -25v27q16 0 25 16.5t9 37.5l-1 13h-27z" />
    <glyph glyph-name="zero.slash" unicode="&#xf638;" horiz-adv-x="581" 
d="M519 495q3 -144 0 -290q-2 -93 -65 -154.5t-163 -61.5q-102 0 -164.5 61t-64.5 155q-3 145 0 290q2 94 65 155t164 61t163.5 -60.5t64.5 -155.5zM118 205q0 -33 13 -67l287 470q-46 53 -127 53q-78 0 -124.5 -47.5t-48.5 -118.5q-3 -143 0 -290zM460 205q3 143 0 290
q-2 39 -12 63l-286 -468q49 -51 129 -51q78 0 122.5 47t46.5 119z" />
    <glyph glyph-name="zero.fitted" unicode="&#xf639;" horiz-adv-x="581" 
d="M519 495q3 -144 0 -290q-2 -93 -65 -154.5t-163 -61.5q-102 0 -164.5 61t-64.5 155q-3 145 0 290q2 94 65 155t164 61t163.5 -60.5t64.5 -155.5zM460 205q3 143 0 290q-2 71 -46.5 118.5t-122.5 47.5t-124.5 -47.5t-48.5 -118.5q-3 -143 0 -290q2 -71 48 -118.5
t125 -47.5q78 0 122.5 47t46.5 119z" />
    <glyph glyph-name="two.fitted" unicode="&#xf63a;" horiz-adv-x="508" 
d="M61 638l-3 48q78 25 177 25q215 0 215 -196q0 -71 -20.5 -109t-75.5 -92l-262 -260v-5h361v-49h-423v64l269 271q56 57 74.5 91t18.5 92q0 143 -166 143q-32 0 -73.5 -5.5t-66.5 -11.5z" />
    <glyph glyph-name="three.fitted" unicode="&#xf63b;" horiz-adv-x="505" 
d="M39 651v49h381v-55l-184 -228q214 -5 214 -200q0 -54 -16 -95.5t-40 -66t-57 -39.5t-63.5 -20.5t-62.5 -5.5q-49 0 -93 6t-64 12l-19 7l3 48q79 -24 168 -24q100 0 143 46.5t43 134.5q0 42 -12.5 72t-28 44.5t-44.5 22t-46.5 8.5t-49.5 1h-33v54l177 225v4h-316z" />
    <glyph glyph-name="four.fitted" unicode="&#xf63c;" horiz-adv-x="512" 
d="M20 159v61l255 480h61l-262 -492h294v195h57v-195h72v-49h-72v-159h-57v159h-348z" />
    <glyph glyph-name="five.fitted" unicode="&#xf63d;" horiz-adv-x="535" 
d="M64 11l3 49q83 -21 165 -21q111 0 151 42t40 140q0 85 -35.5 124.5t-132.5 39.5q-36 0 -77 -9.5t-64 -18.5l-23 -9l-31 42l24 310h359v-49h-310l-20 -246q62 29 155 29q212 0 212 -212q0 -232 -241 -232q-48 0 -91.5 5t-63.5 11z" />
    <glyph glyph-name="six.fitted" unicode="&#xf63e;" horiz-adv-x="569" 
d="M458 691l-4 -48q-75 18 -159 18q-85 0 -129.5 -49.5t-46.5 -125.5l-1 -101q9 5 25.5 13t65.5 21.5t95 13.5q210 0 210 -214q0 -108 -61.5 -169t-162.5 -61q-107 0 -166.5 63.5t-61.5 163.5q-3 132 0 269q2 96 62.5 160.5t170.5 64.5q38 0 78.5 -5t62.5 -9zM297 384
q-43 0 -87.5 -12.5t-67.5 -25.5l-24 -12q0 -77 1 -118q2 -77 43.5 -127t126.5 -50t126.5 44t41.5 136q0 88 -38 126.5t-122 38.5z" />
    <glyph glyph-name="seven.fitted" unicode="&#xf63f;" horiz-adv-x="427" 
d="M20 651v49h387v-51l-279 -649h-55l278 646v5h-331z" />
    <glyph glyph-name="eight.fitted" unicode="&#xf640;" horiz-adv-x="585" 
d="M513 524q0 -35 -11 -64.5t-26.5 -47t-30.5 -29.5t-26 -17l-11 -5q5 -2 13 -5.5t29 -17.5t37.5 -32t29.5 -50t13 -69q0 -95 -68 -146t-168 -51q-103 0 -171 50.5t-68 146.5q0 37 12.5 68.5t30.5 50.5t35.5 32t30.5 18l12 5q-4 2 -11 5t-25 16.5t-32 30.5t-25 46.5
t-11 64.5q0 80 60.5 132.5t161.5 52.5q98 0 158.5 -53.5t60.5 -131.5zM294 39q75 0 127 38t52 112q0 73 -53 110t-126 37q-74 0 -128 -37t-54 -110q0 -74 52.5 -112t129.5 -38zM458 524q0 60 -45.5 97.5t-118.5 37.5q-77 0 -122 -37.5t-45 -97.5q0 -66 44 -102.5t123 -36.5
q75 0 119.5 37t44.5 102z" />
    <glyph glyph-name="nine.fitted" unicode="&#xf641;" horiz-adv-x="569" 
d="M111 8l4 48q75 -18 159 -18q85 0 129.5 49.5t46.5 125.5l1 101q-9 -5 -25.5 -13t-65.5 -21.5t-95 -13.5q-210 0 -210 214q0 108 61.5 169t162.5 61q107 0 166.5 -63.5t61.5 -163.5q3 -132 0 -269q-2 -96 -62.5 -160.5t-170.5 -64.5q-38 0 -78.5 4.5t-62.5 9.5zM272 315
q43 0 87.5 12.5t68.5 24.5l23 13q0 77 -1 118q-2 77 -43.5 127t-126.5 50t-126.5 -44t-41.5 -136q0 -88 38 -126.5t122 -38.5z" />
    <glyph glyph-name="percent.oldstyle" unicode="&#xf642;" horiz-adv-x="729" 
d="M325 439v-72q0 -46 -37 -75.5t-91 -29.5q-53 0 -90 29.5t-37 75.5v72q0 46 37 75.5t90 29.5q54 0 91 -29.5t37 -75.5zM274 363v79q0 30 -21 46.5t-56 16.5q-36 0 -56.5 -16.5t-20.5 -46.5v-78q0 -30 20.5 -46.5t56.5 -16.5q34 0 55.5 16.5t21.5 45.5zM202 0l273 538h52
l-274 -538h-51zM659 169v-72q0 -46 -37 -75.5t-91 -29.5q-53 0 -90.5 29.5t-37.5 75.5v72q0 46 37 76t91 30t91 -30t37 -76zM608 94v78q0 31 -21 47t-56 16q-36 0 -56.5 -16t-20.5 -47v-77q0 -31 20.5 -47t56.5 -16q35 0 56 16t21 46z" />
    <glyph glyph-name="zero.taboldstyle" unicode="&#xf643;" 
d="M290 546q86 0 141 -48t59 -119q6 -111 0 -221q-4 -70 -59 -118.5t-141 -48.5t-141 48.5t-59 118.5q-6 110 0 221q4 71 59 119t141 48zM290 36q64 0 103.5 36t41.5 86q6 110 0 221q-2 51 -41.5 86t-103.5 35t-103.5 -35t-41.5 -86q-6 -110 0 -221q2 -50 41.5 -86
t103.5 -36z" />
    <glyph glyph-name="one.taboldstyle" unicode="&#xf644;" 
d="M110 0v45h176v444l-163 -63v48l158 63h61v-492h155v-45h-387z" />
    <glyph glyph-name="two.taboldstyle" unicode="&#xf645;" 
d="M133 484l-4 42q74 20 156 20q185 0 185 -151q0 -51 -21.5 -86.5t-61.5 -70.5l-222 -193h310v-45h-370v54l231 207q42 37 61 67t19 69q0 104 -138 104q-73 0 -145 -17z" />
    <glyph glyph-name="three.taboldstyle" unicode="&#xf646;" 
d="M97 491v46h362v-52l-175 -216q203 -5 203 -190q0 -51 -15 -91t-38 -63t-54.5 -37.5t-60 -19.5t-59.5 -5q-46 0 -88 6t-60 12l-19 6l3 45q75 -22 159 -22q95 0 136 44t41 127q0 29 -6 52t-14.5 37.5t-24.5 25t-28 15.5t-33 7.5t-32.5 3t-33.5 0.5h-31v51l168 214v4h-300z
" />
    <glyph glyph-name="four.taboldstyle" unicode="&#xf647;" 
d="M59 13v54l253 470h55l-259 -479h284v186h53v-186h75v-45h-75v-141h-53v141h-333z" />
    <glyph glyph-name="five.taboldstyle" unicode="&#xf648;" 
d="M94 -117l3 46q78 -19 156 -19q105 0 143.5 39.5t38.5 132.5q0 81 -34 118.5t-126 37.5q-35 0 -74 -9t-61 -17l-21 -9l-29 40l23 294h341v-46h-295l-19 -234q59 28 148 28q201 0 201 -202q0 -220 -229 -220q-45 0 -86.5 5t-60.5 10z" />
    <glyph glyph-name="six.taboldstyle" unicode="&#xf649;" 
d="M452 657l-4 -46q-71 17 -151 17q-81 0 -123 -47t-44 -119l-1 -96q9 5 24.5 12.5t62 20.5t90.5 13q199 0 199 -204q0 -102 -58.5 -160t-154.5 -58q-101 0 -157.5 60.5t-58.5 155.5q-3 125 0 255q2 92 59.5 153t161.5 61q36 0 75 -4.5t60 -8.5zM299 365q-40 0 -82.5 -11.5
t-64.5 -23.5l-23 -12q0 -73 1 -112q2 -73 41.5 -121t120.5 -48q159 0 159 171q0 84 -36 120.5t-116 36.5z" />
    <glyph glyph-name="seven.taboldstyle" unicode="&#xf64a;" 
d="M100 490v47h387v-48l-265 -617h-53l264 614v4h-333z" />
    <glyph glyph-name="eight.taboldstyle" unicode="&#xf64b;" 
d="M499 497q0 -33 -10.5 -61t-25 -44.5t-29 -28.5t-24.5 -17l-11 -4l12.5 -5t27.5 -16.5t35.5 -30.5t28 -47.5t12.5 -65.5q0 -91 -64 -139t-160 -48q-98 0 -162.5 48t-64.5 139q0 35 12 65t29 47.5t33.5 30t28.5 17.5l12 5l-10.5 5t-24 15.5t-30.5 28.5t-23.5 44.5
t-10.5 61.5q0 76 57.5 126t153.5 50q93 0 150.5 -51t57.5 -125zM291 37q72 0 121 36t49 106q0 69 -50.5 104.5t-119.5 35.5q-71 0 -122 -35.5t-51 -104.5q0 -70 50 -106t123 -36zM447 497q0 57 -43.5 93t-112.5 36q-74 0 -116.5 -36t-42.5 -93q0 -62 42 -97t117 -35
q71 0 113.5 35.5t42.5 96.5z" />
    <glyph glyph-name="nine.taboldstyle" unicode="&#xf64c;" 
d="M127 -120l4 46q71 -17 151 -17q81 0 123 47t44 119l1 96q-9 -5 -24.5 -12.5t-62 -20.5t-90.5 -13q-199 0 -199 203q0 103 58.5 161t154.5 58q101 0 157.5 -60.5t58.5 -155.5q3 -125 0 -255q-2 -91 -59.5 -152.5t-161.5 -61.5q-36 0 -75 4.5t-59 9.5zM280 172
q40 0 82.5 12t65.5 24l22 11q0 73 -1 112q-2 73 -41 120.5t-120 47.5t-120.5 -42t-39.5 -129q0 -84 36.5 -120t115.5 -36z" />
    <glyph glyph-name="Euro.taboldstyle" unicode="&#xf64e;" 
d="M93 300v40h55q0 23 1 35q4 72 61.5 121.5t146.5 49.5q30 0 60.5 -3t46.5 -6l15 -3l-6 -45q-59 12 -116 12q-68 0 -110 -39t-45 -93q-1 -10 -1 -29h214v-40h-215v-69h193v-40h-192q0 -4 0.5 -11.5t0.5 -11.5q2 -54 43.5 -93.5t111.5 -39.5q26 0 57 3.5t48 7.5l18 4l6 -45
q-72 -15 -129 -15q-90 0 -146.5 50.5t-61.5 121.5q-1 10 -1 29h-55v40h54v69h-54z" />
    <glyph glyph-name="florin.taboldstyle" unicode="&#xf64f;" 
d="M315 271l-39 -312q-5 -42 -35.5 -69t-81.5 -27l-52 6l5 39q30 -4 48 -4q57 0 65 65l39 302h-69l4 41h69q10 78 14 116q5 47 39 75.5t89 28.5l63 -6l-9 -40q-36 6 -61 6q-63 0 -70 -66l-13 -114h123l-3 -41h-125z" />
    <glyph glyph-name="numbersign.taboldstyle" unicode="&#xf650;" 
d="M334 0l23 160h-159l-23 -160h-45l23 160h-96v48h103l17 122h-92v48h99l24 159h45l-24 -159h159l24 159h45l-24 -159h89v-48h-96l-17 -122h85v-48h-92l-23 -160h-45zM222 330l-17 -122h159l17 122h-159z" />
    <glyph glyph-name="sterling.taboldstyle" unicode="&#xf651;" 
d="M113 255v42h47q-19 59 -19 107q0 142 194 142q22 0 50 -3t45 -6l18 -3l-3 -43q-63 11 -110 11q-140 0 -140 -97q0 -56 19 -108h213v-42h-201q11 -36 11 -78q0 -29 -14.5 -62t-29.5 -51l-15 -19h289v-45h-351v49q3 2 7.5 6.5t16.5 18t21 28t16.5 36t7.5 42.5q0 28 -15 75
h-57z" />
    <glyph glyph-name="yen.taboldstyle" unicode="&#xf652;" 
d="M126 246v42h77l-128 249h60l156 -308l152 308h61l-129 -249h78v-42h-100l-30 -58h130v-41h-135v-147h-58v147h-134v41h130l-30 58h-100z" />
    <glyph glyph-name="dollar.taboldstyle" unicode="&#xf653;" 
d="M262 -50v49q-32 1 -64.5 6t-49.5 10l-16 5l7 44q71 -21 133 -21q74 0 102 22t28 71q0 40 -28.5 63t-69 34t-81 23.5t-69 44t-28.5 84.5q0 121 136 133v52h52v-52q26 -1 52.5 -4.5t40.5 -6.5l14 -3l-7 -44q-64 15 -127 15q-111 0 -111 -88q0 -39 28.5 -61t69.5 -33t82 -24
t69.5 -44.5t28.5 -83.5q0 -129 -140 -141v-50h-52z" />
    <glyph glyph-name="cent.taboldstyle" unicode="&#xf654;" 
d="M294 570h52v-51l90 -11l-5 -43q-67 11 -114 11q-58 0 -92.5 -33.5t-36.5 -82.5q-3 -101 0 -201q2 -48 36.5 -81.5t92.5 -33.5q29 0 59 3.5t46 6.5l15 4l7 -42q-46 -12 -98 -15v-51h-52v51q-73 6 -114 49t-43 106q-3 104 0 208q2 62 43 105t114 50v51z" />
    <glyph glyph-name="Abreve.small" unicode="&#xf66d;" horiz-adv-x="490" 
d="M209 537h72l194 -537h-52l-58 163h-240l-58 -163h-52zM349 208l-101 285h-6l-101 -285h208zM112 708h50q0 -24 23 -39t57 -15q35 0 57 15t22 39h50q0 -46 -33 -73t-96 -27q-64 0 -97 27.5t-33 72.5z" />
    <glyph glyph-name="Amacron.small" unicode="&#xf66e;" horiz-adv-x="490" 
d="M209 537h72l194 -537h-52l-58 163h-240l-58 -163h-52zM349 208l-101 285h-6l-101 -285h208zM106 629v46h277v-46h-277z" />
    <glyph glyph-name="Aogonek.small" unicode="&#xf66f;" horiz-adv-x="490" 
d="M492 -146l5 -34q-35 -10 -64 -10q-38 0 -59.5 23t-21.5 54q0 29 18 57t36 42l17 14l-58 163h-240l-58 -163h-52l194 537h72l194 -537q-8 -7 -19.5 -18.5t-30.5 -40t-19 -48.5q0 -19 12.5 -31.5t33.5 -12.5zM349 208l-101 285h-6l-101 -285h208z" />
    <glyph glyph-name="AEacute.small" unicode="&#xf670;" horiz-adv-x="814" 
d="M356 537h398v-44h-284v-192h257v-44h-257v-213h294v-44h-344v161h-256l-104 -161h-50zM420 204v289h-43l-185 -289h228zM483 605h-58l108 125h80z" />
    <glyph glyph-name="Cacute.small" unicode="&#xf671;" horiz-adv-x="429" 
d="M393 50l6 -45q-72 -15 -129 -15q-91 0 -148.5 51t-59.5 121q-3 106 0 213q2 71 60 121t148 50q30 0 60.5 -3t45.5 -6l16 -3l-6 -45q-59 12 -116 12q-69 0 -111.5 -39.5t-43.5 -92.5q-3 -101 0 -201q1 -54 43 -93.5t112 -39.5q26 0 57 3.5t49 7.5zM284 605h-58l108 125h80
z" />
    <glyph glyph-name="Ccaron.small" unicode="&#xf672;" horiz-adv-x="429" 
d="M393 50l6 -45q-72 -15 -129 -15q-91 0 -148.5 51t-59.5 121q-3 106 0 213q2 71 60 121t148 50q30 0 60.5 -3t45.5 -6l16 -3l-6 -45q-59 12 -116 12q-69 0 -111.5 -39.5t-43.5 -92.5q-3 -101 0 -201q1 -54 43 -93.5t112 -39.5q26 0 57 3.5t49 7.5zM339 730h54l-98 -125
h-60l-98 125h54l74 -77z" />
    <glyph glyph-name="Ccircumflex.small" unicode="&#xf673;" horiz-adv-x="429" 
d="M393 50l6 -45q-72 -15 -129 -15q-91 0 -148.5 51t-59.5 121q-3 106 0 213q2 71 60 121t148 50q30 0 60.5 -3t45.5 -6l16 -3l-6 -45q-59 12 -116 12q-69 0 -111.5 -39.5t-43.5 -92.5q-3 -101 0 -201q1 -54 43 -93.5t112 -39.5q26 0 57 3.5t49 7.5zM197 605h-54l98 125h60
l98 -125h-54l-74 77z" />
    <glyph glyph-name="Cdotaccent.small" unicode="&#xf674;" horiz-adv-x="429" 
d="M393 50l6 -45q-72 -15 -129 -15q-91 0 -148.5 51t-59.5 121q-3 106 0 213q2 71 60 121t148 50q30 0 60.5 -3t45.5 -6l16 -3l-6 -45q-59 12 -116 12q-69 0 -111.5 -39.5t-43.5 -92.5q-3 -101 0 -201q1 -54 43 -93.5t112 -39.5q26 0 57 3.5t49 7.5zM237 620v80h61v-80h-61z
" />
    <glyph glyph-name="Dcaron.small" unicode="&#xf675;" horiz-adv-x="510" 
d="M70 0v537h172q93 0 147.5 -45.5t57.5 -117.5q4 -106 0 -210q-3 -72 -57.5 -118t-147.5 -46h-172zM242 493h-121v-449h121q74 0 113 33.5t40 86.5q3 104 0 210q-1 52 -40.5 85.5t-112.5 33.5zM303 730h54l-98 -125h-60l-98 125h54l74 -77z" />
    <glyph glyph-name="Dcroat.small" unicode="&#xf676;" horiz-adv-x="510" 
d="M12 250v46h58v241h172q93 0 147.5 -45.5t57.5 -117.5q4 -106 0 -210q-3 -72 -57.5 -118t-147.5 -46h-172v250h-58zM242 493h-121v-197h111v-46h-111v-206h121q74 0 113 33.5t40 86.5q3 104 0 210q-1 52 -40.5 85.5t-112.5 33.5z" />
    <glyph glyph-name="Ebreve.small" unicode="&#xf677;" horiz-adv-x="475" 
d="M70 537h346v-44h-295v-192h267v-44h-267v-213h304v-44h-355v537zM119 708h50q0 -24 23 -39t57 -15q35 0 57 15t22 39h50q0 -46 -33 -73t-96 -27q-64 0 -97 27.5t-33 72.5z" />
    <glyph glyph-name="Ecaron.small" unicode="&#xf678;" horiz-adv-x="475" 
d="M70 537h346v-44h-295v-192h267v-44h-267v-213h304v-44h-355v537zM313 730h54l-98 -125h-60l-98 125h54l74 -77z" />
    <glyph glyph-name="Edotaccent.small" unicode="&#xf679;" horiz-adv-x="475" 
d="M70 537h346v-44h-295v-192h267v-44h-267v-213h304v-44h-355v537zM213 620v80h61v-80h-61z" />
    <glyph glyph-name="Emacron.small" unicode="&#xf67a;" horiz-adv-x="475" 
d="M70 537h346v-44h-295v-192h267v-44h-267v-213h304v-44h-355v537zM101 629v46h277v-46h-277z" />
    <glyph glyph-name="Eng.small" unicode="&#xf67b;" horiz-adv-x="535" 
d="M310 -146l1 42q13 -3 40 -3q30 0 44.5 14.5t16.5 30t2 48.5v9l-278 448l-16 36v-479h-50v537h67l262 -421l15 -38v459h51v-566q0 -122 -106 -122z" />
    <glyph glyph-name="Eogonek.small" unicode="&#xf67c;" horiz-adv-x="475" 
d="M441 -146l5 -34q-35 -10 -64 -10q-38 0 -59.5 23t-21.5 54q0 29 17.5 57t35.5 42l18 14h-302v537h346v-44h-295v-192h267v-44h-267v-213h304v-44q-8 -7 -19.5 -18.5t-31 -40t-19.5 -48.5q0 -19 12.5 -31.5t33.5 -12.5z" />
    <glyph glyph-name="Gbreve.small" unicode="&#xf67d;" horiz-adv-x="498" 
d="M276 221v46h162v-252q-72 -25 -165 -25t-151 50t-60 122q-3 104 0 213q2 73 60 122t151 49q42 0 80.5 -4t56.5 -8l17 -3l-6 -45q-75 14 -148 14q-72 0 -114.5 -39t-43.5 -93q-3 -101 0 -201q1 -54 44 -93t115 -39q31 0 59.5 4t41.5 8l13 4v170h-112zM139 708h50
q0 -24 23 -39t57 -15q35 0 57 15t22 39h50q0 -46 -33 -73t-96 -27q-64 0 -97 27.5t-33 72.5z" />
    <glyph glyph-name="Gcircumflex.small" unicode="&#xf67e;" horiz-adv-x="498" 
d="M276 221v46h162v-252q-72 -25 -165 -25t-151 50t-60 122q-3 104 0 213q2 73 60 122t151 49q42 0 80.5 -4t56.5 -8l17 -3l-6 -45q-75 14 -148 14q-72 0 -114.5 -39t-43.5 -93q-3 -101 0 -201q1 -54 44 -93t115 -39q31 0 59.5 4t41.5 8l13 4v170h-112zM197 605h-54l98 125
h60l98 -125h-54l-74 77z" />
    <glyph glyph-name="Gcommaaccent.small" unicode="&#xf67f;" horiz-adv-x="498" 
d="M276 221v46h162v-252q-72 -25 -165 -25t-151 50t-60 122q-3 104 0 213q2 73 60 122t151 49q42 0 80.5 -4t56.5 -8l17 -3l-6 -45q-75 14 -148 14q-72 0 -114.5 -39t-43.5 -93q-3 -101 0 -201q1 -54 44 -93t115 -39q31 0 59.5 4t41.5 8l13 4v170h-112zM244 -124v79h63v-68
q0 -55 -22 -80t-47 -25v27q16 0 25 16.5t9 37.5l-1 13h-27z" />
    <glyph glyph-name="Gdotaccent.small" unicode="&#xf680;" horiz-adv-x="498" 
d="M276 221v46h162v-252q-72 -25 -165 -25t-151 50t-60 122q-3 104 0 213q2 73 60 122t151 49q42 0 80.5 -4t56.5 -8l17 -3l-6 -45q-75 14 -148 14q-72 0 -114.5 -39t-43.5 -93q-3 -101 0 -201q1 -54 44 -93t115 -39q31 0 59.5 4t41.5 8l13 4v170h-112zM238 620v80h61v-80
h-61z" />
    <glyph glyph-name="Hbar.small" unicode="&#xf681;" horiz-adv-x="532" 
d="M35 404v45h35v88h51v-88h289v88h52v-88h35v-45h-35v-404h-52v257h-289v-257h-51v404h-35zM121 302h289v102h-289v-102z" />
    <glyph glyph-name="Hcircumflex.small" unicode="&#xf682;" horiz-adv-x="532" 
d="M410 537h52v-537h-52v257h-289v-257h-51v537h51v-235h289v235zM191 605h-54l98 125h60l98 -125h-54l-74 77z" />
    <glyph glyph-name="Ibreve.small" unicode="&#xf683;" horiz-adv-x="191" 
d="M121 537v-537h-51v537h51zM-37 708h50q0 -24 23 -39t57 -15q35 0 57 15t22 39h50q0 -46 -33 -73t-96 -27q-64 0 -97 27.5t-33 72.5z" />
    <glyph glyph-name="IJ.small" unicode="&#xf684;" horiz-adv-x="400" 
d="M121 537v-537h-51v537h51zM175 -5l1 42q13 -3 40 -3q30 0 44.5 14.5t16.5 30t2 48.5v410h51v-425q0 -122 -106 -122z" />
    <glyph glyph-name="Imacron.small" unicode="&#xf685;" horiz-adv-x="191" 
d="M121 537v-537h-51v537h51zM-45 629v46h277v-46h-277z" />
    <glyph glyph-name="Iogonek.small" unicode="&#xf686;" horiz-adv-x="191" 
d="M139 -146l5 -34q-35 -10 -64 -10q-38 0 -59.5 23t-21.5 54q0 29 17.5 57t35.5 42l18 14v537h51v-537q-8 -7 -19 -18.5t-30 -40t-19 -48.5q0 -19 12.5 -31.5t33.5 -12.5z" />
    <glyph glyph-name="Itilde.small" unicode="&#xf687;" horiz-adv-x="191" 
d="M121 537v-537h-51v537h51zM-5 613h-45q0 28 23 58.5t57 30.5q29 0 69.5 -24t58.5 -24q16 0 26 12.5t12 30.5h45q0 -29 -23 -59t-57 -30q-30 0 -70.5 24t-57.5 24q-16 0 -26 -12.5t-12 -30.5z" />
    <glyph glyph-name="Jcircumflex.small" unicode="&#xf688;" horiz-adv-x="240" 
d="M15 -5l1 42q13 -3 40 -3q30 0 44.5 14.5t16.5 30t2 48.5v410h51v-425q0 -122 -106 -122zM66 605h-54l98 125h60l98 -125h-54l-74 77z" />
    <glyph glyph-name="Kcommaaccent.small" unicode="&#xf689;" horiz-adv-x="440" 
d="M121 537v-254l223 254h67l-228 -256l242 -281h-67l-237 278v-278h-51v537h51zM185 -124v79h63v-68q0 -55 -22 -80t-47 -25v27q16 0 25 16.5t9 37.5l-1 13h-27z" />
    <glyph glyph-name="Lacute.small" unicode="&#xf68a;" horiz-adv-x="399" 
d="M70 537h51v-493h258v-44h-309v537zM126 605h-58l108 125h80z" />
    <glyph glyph-name="Lcaron.small" unicode="&#xf68b;" horiz-adv-x="399" 
d="M70 537h51v-493h258v-44h-309v537zM276 458v79h63v-68q0 -55 -22 -80t-47 -25v27q16 0 25 16.5t9 37.5l-1 13h-27z" />
    <glyph glyph-name="Lcommaaccent.small" unicode="&#xf68c;" horiz-adv-x="399" 
d="M70 537h51v-493h258v-44h-309v537zM187 -124v79h63v-68q0 -55 -22 -80t-47 -25v27q16 0 25 16.5t9 37.5l-1 13h-27z" />
    <glyph glyph-name="Ldot.small" unicode="&#xf68d;" horiz-adv-x="399" 
d="M70 537h51v-493h258v-44h-309v537zM271 254v79h61v-79h-61z" />
    <glyph glyph-name="Nacute.small" unicode="&#xf68e;" horiz-adv-x="535" 
d="M414 537h51v-537h-67l-262 443l-16 36v-479h-50v537h67l262 -441l15 -38v479zM287 605h-58l108 125h80z" />
    <glyph glyph-name="Ncaron.small" unicode="&#xf68f;" horiz-adv-x="535" 
d="M414 537h51v-537h-67l-262 443l-16 36v-479h-50v537h67l262 -441l15 -38v479zM340 730h54l-98 -125h-60l-98 125h54l74 -77z" />
    <glyph glyph-name="Ncommaaccent.small" unicode="&#xf690;" horiz-adv-x="535" 
d="M414 537h51v-537h-67l-262 443l-16 36v-479h-50v537h67l262 -441l15 -38v479zM226 -124v79h63v-68q0 -55 -22 -80t-47 -25v27q16 0 25 16.5t9 37.5l-1 13h-27z" />
    <glyph glyph-name="Obreve.small" unicode="&#xf691;" horiz-adv-x="537" 
d="M270 547q90 0 146.5 -50t58.5 -121q3 -108 0 -214q-2 -71 -58.5 -121.5t-146.5 -50.5q-91 0 -148 50.5t-59 121.5q-5 107 0 214q2 72 59 121.5t148 49.5zM270 34q72 0 111.5 37t41.5 91q5 108 0 214q-2 53 -41.5 90t-111.5 37q-73 0 -113 -36.5t-41 -90.5q-3 -108 0 -214
q1 -54 40.5 -91t113.5 -37zM138 708h50q0 -24 23 -39t57 -15q35 0 57 15t22 39h50q0 -46 -33 -73t-96 -27q-64 0 -97 27.5t-33 72.5z" />
    <glyph glyph-name="Ohungarumlaut.small" unicode="&#xf692;" horiz-adv-x="537" 
d="M270 547q90 0 146.5 -50t58.5 -121q3 -108 0 -214q-2 -71 -58.5 -121.5t-146.5 -50.5q-91 0 -148 50.5t-59 121.5q-5 107 0 214q2 72 59 121.5t148 49.5zM270 34q72 0 111.5 37t41.5 91q5 108 0 214q-2 53 -41.5 90t-111.5 37q-73 0 -113 -36.5t-41 -90.5q-3 -108 0 -214
q1 -54 40.5 -91t113.5 -37zM220 605h-58l108 125h80zM358 605h-58l108 125h80z" />
    <glyph glyph-name="Omacron.small" unicode="&#xf693;" horiz-adv-x="537" 
d="M270 547q90 0 146.5 -50t58.5 -121q3 -108 0 -214q-2 -71 -58.5 -121.5t-146.5 -50.5q-91 0 -148 50.5t-59 121.5q-5 107 0 214q2 72 59 121.5t148 49.5zM270 34q72 0 111.5 37t41.5 91q5 108 0 214q-2 53 -41.5 90t-111.5 37q-73 0 -113 -36.5t-41 -90.5q-3 -108 0 -214
q1 -54 40.5 -91t113.5 -37zM130 629v46h277v-46h-277z" />
    <glyph glyph-name="Oslashacute.small" unicode="&#xf694;" horiz-adv-x="537" 
d="M69 0l37 57q-41 45 -43 105q-5 107 0 214q2 72 59 121.5t148 49.5q76 0 130 -38l18 28h54l-38 -58q39 -46 41 -103q3 -108 0 -214q-2 -71 -58.5 -121.5t-146.5 -50.5q-74 0 -130 36l-17 -26h-54zM116 162q0 -37 17 -64l242 373q-42 32 -105 32q-73 0 -113 -36.5
t-41 -90.5q-3 -108 0 -214zM270 34q72 0 111.5 37t41.5 91q5 108 0 214q-1 31 -17 59l-241 -371q39 -30 105 -30zM296 605h-58l108 125h80z" />
    <glyph glyph-name="Racute.small" unicode="&#xf695;" horiz-adv-x="480" 
d="M378 0l-116 203h-141v-203h-51v537h208q67 0 105.5 -32.5t40.5 -82.5q3 -52 0 -104q-2 -41 -28.5 -71.5t-78.5 -40.5l123 -206h-62zM375 314q3 56 0 111q-2 68 -95 68h-159v-246h162q88 0 92 67zM247 605h-58l108 125h80z" />
    <glyph glyph-name="Rcaron.small" unicode="&#xf696;" horiz-adv-x="480" 
d="M378 0l-116 203h-141v-203h-51v537h208q67 0 105.5 -32.5t40.5 -82.5q3 -52 0 -104q-2 -41 -28.5 -71.5t-78.5 -40.5l123 -206h-62zM375 314q3 56 0 111q-2 68 -95 68h-159v-246h162q88 0 92 67zM305 730h54l-98 -125h-60l-98 125h54l74 -77z" />
    <glyph glyph-name="Rcommaaccent.small" unicode="&#xf697;" horiz-adv-x="480" 
d="M378 0l-116 203h-141v-203h-51v537h208q67 0 105.5 -32.5t40.5 -82.5q3 -52 0 -104q-2 -41 -28.5 -71.5t-78.5 -40.5l123 -206h-62zM375 314q3 56 0 111q-2 68 -95 68h-159v-246h162q88 0 92 67zM202 -124v79h63v-68q0 -55 -22 -80t-47 -25v27q16 0 25 16.5t9 37.5l-1 13
h-27z" />
    <glyph glyph-name="Sacute.small" unicode="&#xf698;" horiz-adv-x="472" 
d="M387 532l-4 -45q-77 16 -150 16q-133 0 -133 -100q0 -32 18 -53t47 -31.5t64 -19t69.5 -18t63.5 -24.5t47 -44t18 -71q0 -74 -48 -113t-159 -39q-46 0 -85.5 4.5t-56.5 9.5l-17 4l2 46q63 -20 151 -20q89 0 126 26t37 79q0 43 -33.5 67.5t-81.5 35t-96.5 23.5t-82 46
t-33.5 90q0 72 48 109t135 37q40 0 78.5 -3.5t56.5 -7.5zM250 605h-58l108 125h80z" />
    <glyph glyph-name="Scedilla.small" unicode="&#xf699;" horiz-adv-x="472" 
d="M309 -110q0 -78 -82 -78q-13 0 -31 2t-30 4l-12 3l3 34q35 -7 57 -7q46 0 46 42q0 35 -46 35h-37l15 66q-38 1 -70.5 5.5t-46.5 7.5l-14 4l2 46q63 -20 151 -20q89 0 126 26t37 79q0 43 -33.5 67.5t-81.5 35t-96.5 23.5t-82 46t-33.5 90q0 72 48 109t135 37
q40 0 78.5 -3.5t56.5 -7.5l19 -4l-4 -45q-77 16 -150 16q-133 0 -133 -100q0 -32 18 -53t47 -31.5t64 -19t69.5 -18t63.5 -24.5t47 -44t18 -71q0 -71 -44.5 -109.5t-145.5 -41.5l-7 -36q38 0 58.5 -14t20.5 -51z" />
    <glyph glyph-name="Scircumflex.small" unicode="&#xf69a;" horiz-adv-x="472" 
d="M387 532l-4 -45q-77 16 -150 16q-133 0 -133 -100q0 -32 18 -53t47 -31.5t64 -19t69.5 -18t63.5 -24.5t47 -44t18 -71q0 -74 -48 -113t-159 -39q-46 0 -85.5 4.5t-56.5 9.5l-17 4l2 46q63 -20 151 -20q89 0 126 26t37 79q0 43 -33.5 67.5t-81.5 35t-96.5 23.5t-82 46
t-33.5 90q0 72 48 109t135 37q40 0 78.5 -3.5t56.5 -7.5zM160 605h-54l98 125h60l98 -125h-54l-74 77z" />
    <glyph glyph-name="Scommaaccent.small" unicode="&#xf69b;" horiz-adv-x="472" 
d="M387 532l-4 -45q-77 16 -150 16q-133 0 -133 -100q0 -32 18 -53t47 -31.5t64 -19t69.5 -18t63.5 -24.5t47 -44t18 -71q0 -74 -48 -113t-159 -39q-46 0 -85.5 4.5t-56.5 9.5l-17 4l2 46q63 -20 151 -20q89 0 126 26t37 79q0 43 -33.5 67.5t-81.5 35t-96.5 23.5t-82 46
t-33.5 90q0 72 48 109t135 37q40 0 78.5 -3.5t56.5 -7.5zM190 -124v79h63v-68q0 -55 -22 -80t-47 -25v27q16 0 25 16.5t9 37.5l-1 13h-27z" />
    <glyph glyph-name="Tbar.small" unicode="&#xf69c;" horiz-adv-x="394" 
d="M66 271v43h106v179h-157v44h364v-44h-156v-179h105v-43h-105v-271h-51v271h-106z" />
    <glyph glyph-name="Tcaron.small" unicode="&#xf69d;" horiz-adv-x="394" 
d="M15 493v44h364v-44h-156v-493h-51v493h-157zM270 730h54l-98 -125h-60l-98 125h54l74 -77z" />
    <glyph glyph-name="Tcommaaccent.small" unicode="&#xf69e;" horiz-adv-x="394" 
d="M15 493v44h364v-44h-156v-493h-51v493h-157zM166 -124v79h63v-68q0 -55 -22 -80t-47 -25v27q16 0 25 16.5t9 37.5l-1 13h-27z" />
    <glyph glyph-name="Ubreve.small" unicode="&#xf69f;" horiz-adv-x="533" 
d="M418 537h50v-375q0 -73 -54 -122.5t-146 -49.5q-94 0 -148.5 49.5t-54.5 122.5v375h51v-375q0 -54 39 -91t113 -37q71 0 110.5 37t39.5 91v375zM138 708h50q0 -24 23 -39t57 -15q35 0 57 15t22 39h50q0 -46 -33 -73t-96 -27q-64 0 -97 27.5t-33 72.5z" />
    <glyph glyph-name="Uhungarumlaut.small" unicode="&#xf6a0;" horiz-adv-x="533" 
d="M418 537h50v-375q0 -73 -54 -122.5t-146 -49.5q-94 0 -148.5 49.5t-54.5 122.5v375h51v-375q0 -54 39 -91t113 -37q71 0 110.5 37t39.5 91v375zM219 605h-58l108 125h80zM357 605h-58l108 125h80z" />
    <glyph glyph-name="Umacron.small" unicode="&#xf6a1;" horiz-adv-x="533" 
d="M418 537h50v-375q0 -73 -54 -122.5t-146 -49.5q-94 0 -148.5 49.5t-54.5 122.5v375h51v-375q0 -54 39 -91t113 -37q71 0 110.5 37t39.5 91v375zM127 629v46h277v-46h-277z" />
    <glyph glyph-name="Uogonek.small" unicode="&#xf6a2;" horiz-adv-x="533" 
d="M358 -146l5 -34q-35 -10 -64 -10q-38 0 -59.5 23t-21.5 54q0 56 58 103h-8q-94 0 -148.5 49.5t-54.5 122.5v375h51v-375q0 -54 39 -91t113 -37q71 0 110.5 37t39.5 91v375h50v-375q0 -57 -33 -100.5t-93 -61.5q-8 -7 -19.5 -18.5t-31 -40t-19.5 -48.5q0 -19 12.5 -31.5
t33.5 -12.5z" />
    <glyph glyph-name="Uring.small" unicode="&#xf6a3;" horiz-adv-x="533" 
d="M418 537h50v-375q0 -73 -54 -122.5t-146 -49.5q-94 0 -148.5 49.5t-54.5 122.5v375h51v-375q0 -54 39 -91t113 -37q71 0 110.5 37t39.5 91v375zM190 671q0 34 22 57t56 23q33 0 56.5 -23t23.5 -57q0 -33 -23.5 -56t-56.5 -23t-55.5 23t-22.5 56zM228 672q0 -16 12 -28
t28 -12t28.5 12t12.5 28t-12.5 28.5t-28.5 12.5t-28 -12t-12 -29z" />
    <glyph glyph-name="Utilde.small" unicode="&#xf6a4;" horiz-adv-x="533" 
d="M418 537h50v-375q0 -73 -54 -122.5t-146 -49.5q-94 0 -148.5 49.5t-54.5 122.5v375h51v-375q0 -54 39 -91t113 -37q71 0 110.5 37t39.5 91v375zM173 613h-45q0 28 23 58.5t57 30.5q30 0 70 -24t58 -24q16 0 26 12.5t12 30.5h45q0 -29 -23 -59t-57 -30q-30 0 -70.5 24
t-57.5 24q-16 0 -26 -12.5t-12 -30.5z" />
    <glyph glyph-name="Wacute.small" unicode="&#xf6a5;" horiz-adv-x="709" 
d="M523 41l102 496h54l-117 -537h-79l-129 491l-127 -491h-80l-117 537h54l102 -496h5l127 496h73l127 -496h5zM389 605h-58l108 125h80z" />
    <glyph glyph-name="Wcircumflex.small" unicode="&#xf6a6;" horiz-adv-x="709" 
d="M523 41l102 496h54l-117 -537h-79l-129 491l-127 -491h-80l-117 537h54l102 -496h5l127 496h73l127 -496h5zM278 605h-54l98 125h60l98 -125h-54l-74 77z" />
    <glyph glyph-name="Wdieresis.small" unicode="&#xf6a7;" horiz-adv-x="709" 
d="M523 41l102 496h54l-117 -537h-79l-129 491l-127 -491h-80l-117 537h54l102 -496h5l127 496h73l127 -496h5zM238 620v80h61v-80h-61zM408 620v80h61v-80h-61z" />
    <glyph glyph-name="Wgrave.small" unicode="&#xf6a8;" horiz-adv-x="709" 
d="M523 41l102 496h54l-117 -537h-79l-129 491l-127 -491h-80l-117 537h54l102 -496h5l127 496h73l127 -496h5zM384 605h-58l-130 125h80z" />
    <glyph glyph-name="Ycircumflex.small" unicode="&#xf6a9;" horiz-adv-x="461" 
d="M76 537l155 -275l153 275h62l-190 -325v-212h-51v212l-190 325h61zM156 605h-54l98 125h60l98 -125h-54l-74 77z" />
    <glyph glyph-name="Ygrave.small" unicode="&#xf6aa;" horiz-adv-x="461" 
d="M76 537l155 -275l153 275h62l-190 -325v-212h-51v212l-190 325h61zM257 605h-58l-130 125h80z" />
    <glyph glyph-name="Zacute.small" unicode="&#xf6ab;" horiz-adv-x="469" 
d="M422 491l-324 -447h331v-44h-389v46l322 447h-311v44h371v-46zM258 605h-58l108 125h80z" />
    <glyph glyph-name="Zdotaccent.small" unicode="&#xf6ac;" horiz-adv-x="469" 
d="M422 491l-324 -447h331v-44h-389v46l322 447h-311v44h371v-46zM194 620v80h61v-80h-61z" />
    <glyph glyph-name="Idotaccent.small" unicode="&#xf6ad;" horiz-adv-x="191" 
d="M121 537v-537h-51v537h51zM65 620v80h61v-80h-61z" />
    <glyph glyph-name="commaaccent" unicode="&#xf6c3;" horiz-adv-x="63" 
d="M0 -124v79h63v-68q0 -55 -22 -80t-47 -25v27q16 0 25 16.5t9 37.5l-1 13h-27z" />
    <glyph glyph-name="dblgrave" unicode="&#xf6d3;" horiz-adv-x="326" 
d="M188 575h-58l-130 125h80zM326 575h-58l-130 125h80z" />
    <glyph glyph-name="cyrbreve" unicode="&#xf6d4;" horiz-adv-x="252" 
d="M-1 678h58q0 -29 18 -47t51 -18t50.5 17.5t17.5 47.5h58q0 -100 -126 -100q-127 0 -127 100z" />
    <glyph glyph-name="one.fitted" unicode="&#xf6dc;" horiz-adv-x="292" 
d="M25 594v53l110 53h66v-700h-57v649z" />
    <glyph glyph-name="Brevesmall" unicode="&#xf6f4;" horiz-adv-x="259" 
d="M0 708h50q0 -24 23 -39t57 -15q35 0 57 15t22 39h50q0 -46 -33 -73t-96 -27q-64 0 -97 27.5t-33 72.5z" />
    <glyph glyph-name="Caronsmall" unicode="&#xf6f5;" horiz-adv-x="256" 
d="M202 730h54l-98 -125h-60l-98 125h54l74 -77z" />
    <glyph glyph-name="Circumflexsmall" unicode="&#xf6f6;" horiz-adv-x="256" 
d="M54 605h-54l98 125h60l98 -125h-54l-74 77z" />
    <glyph glyph-name="Dotaccentsmall" unicode="&#xf6f7;" horiz-adv-x="61" 
d="M0 620v80h61v-80h-61z" />
    <glyph glyph-name="Hungarumlautsmall" unicode="&#xf6f8;" horiz-adv-x="326" 
d="M58 605h-58l108 125h80zM196 605h-58l108 125h80z" />
    <glyph glyph-name="Lslashsmall" unicode="&#xf6f9;" horiz-adv-x="399" 
d="M283 324l-162 -88v-192h258v-44h-309v208l-50 -27v46l50 27v283h51v-256l162 88v-45z" />
    <glyph glyph-name="OEsmall" unicode="&#xf6fa;" horiz-adv-x="811" 
d="M419 537h333v-44h-282v-192h254v-44h-254v-213h291v-44h-342v54q-2 -3 -5.5 -7t-16.5 -15t-29 -19.5t-43 -15.5t-57 -7q-91 0 -147 50.5t-58 121.5q-5 107 0 214q2 72 58 121.5t147 49.5q48 0 85.5 -16t51.5 -32l14 -16v54zM268 34q72 0 109 37t39 91q5 108 0 214
q-2 54 -39.5 90.5t-108.5 36.5q-73 0 -112 -36.5t-40 -90.5q-3 -108 0 -214q1 -55 39.5 -91.5t112.5 -36.5z" />
    <glyph glyph-name="Ogoneksmall" unicode="&#xf6fb;" horiz-adv-x="227" 
d="M184 -146l5 -34q-35 -10 -64 -10q-38 0 -59.5 23t-21.5 54q0 29 18 57t36 42l17 14h53q-8 -7 -19.5 -18.5t-31 -40t-19.5 -48.5q0 -19 12.5 -31.5t33.5 -12.5z" />
    <glyph glyph-name="Ringsmall" unicode="&#xf6fc;" horiz-adv-x="158" 
d="M0 671q0 34 22 57t56 23q33 0 56.5 -23t23.5 -57q0 -33 -23.5 -56t-56.5 -23t-55.5 23t-22.5 56zM38 672q0 -16 12 -28t28 -12t28.5 12t12.5 28t-12.5 28.5t-28.5 12.5t-28 -12t-12 -29z" />
    <glyph glyph-name="Scaronsmall" unicode="&#xf6fd;" horiz-adv-x="472" 
d="M387 532l-4 -45q-77 16 -150 16q-133 0 -133 -100q0 -32 18 -53t47 -31.5t64 -19t69.5 -18t63.5 -24.5t47 -44t18 -71q0 -74 -48 -113t-159 -39q-46 0 -85.5 4.5t-56.5 9.5l-17 4l2 46q63 -20 151 -20q89 0 126 26t37 79q0 43 -33.5 67.5t-81.5 35t-96.5 23.5t-82 46
t-33.5 90q0 72 48 109t135 37q40 0 78.5 -3.5t56.5 -7.5zM303 730h54l-98 -125h-60l-98 125h54l74 -77z" />
    <glyph glyph-name="Tildesmall" unicode="&#xf6fe;" horiz-adv-x="291" 
d="M45 613h-45q0 28 23 58.5t57 30.5q30 0 70 -24t58 -24q16 0 26 12.5t12 30.5h45q0 -29 -23 -59t-57 -30q-30 0 -70.5 24t-57.5 24q-16 0 -26 -12.5t-12 -30.5z" />
    <glyph glyph-name="Zcaronsmall" unicode="&#xf6ff;" horiz-adv-x="469" 
d="M422 491l-324 -447h331v-44h-389v46l322 447h-311v44h371v-46zM306 730h54l-98 -125h-60l-98 125h54l74 -77z" />
    <glyph glyph-name="exclamsmall" unicode="&#xf721;" horiz-adv-x="231" 
d="M146 537l-7 -393h-46l-8 393h61zM86 0v68h60v-68h-60z" />
    <glyph glyph-name="dollaroldstyle" unicode="&#xf724;" horiz-adv-x="458" 
d="M201 -50v49q-32 1 -64.5 6t-48.5 10l-17 5l7 44q71 -21 133 -21q74 0 102 22t28 71q0 40 -28.5 63t-69 34t-81 23.5t-69 44t-28.5 84.5q0 121 136 133v52h52v-52q26 -1 52.5 -4.5t40.5 -6.5l14 -3l-7 -44q-64 15 -127 15q-111 0 -111 -88q0 -39 28.5 -61t69.5 -33t82 -24
t69.5 -44.5t28.5 -83.5q0 -129 -140 -141v-50h-52z" />
    <glyph glyph-name="ampersandsmall" unicode="&#xf726;" horiz-adv-x="505" 
d="M394 174v70h51v-73q0 -36 -10 -67t-20 -44l-10 -13l28 -47h-58l-9 15q-48 -24 -117 -24q-35 0 -66 8.5t-60 27.5t-46 56t-17 88q0 66 34 107t91 54l-90 159v46h317v-44h-261l229 -403q14 25 14 84zM251 36q27 0 50.5 4t33.5 8l10 5l-137 237q-93 -13 -93 -116
q0 -67 30 -102.5t106 -35.5z" />
    <glyph glyph-name="zerooldstyle" unicode="&#xf730;" horiz-adv-x="526" 
d="M263 546q86 0 141 -48t59 -119q6 -111 0 -221q-4 -70 -59 -118.5t-141 -48.5t-141 48.5t-59 118.5q-6 110 0 221q4 71 59 119t141 48zM263 36q64 0 103.5 36t41.5 86q6 110 0 221q-2 51 -41.5 86t-103.5 35t-103.5 -35t-41.5 -86q-6 -110 0 -221q2 -50 41.5 -86
t103.5 -36z" />
    <glyph glyph-name="oneoldstyle" unicode="&#xf731;" horiz-adv-x="268" 
d="M20 447v48l97 42h61v-537h-56v489z" />
    <glyph glyph-name="twooldstyle" unicode="&#xf732;" horiz-adv-x="449" 
d="M55 484l-4 42q74 20 156 20q185 0 185 -151q0 -51 -21.5 -86.5t-61.5 -70.5l-222 -193h310v-45h-370v54l231 207q42 37 61 67t19 69q0 104 -138 104q-73 0 -145 -17z" />
    <glyph glyph-name="threeoldstyle" unicode="&#xf733;" horiz-adv-x="469" 
d="M24 491v46h362v-52l-175 -216q203 -5 203 -190q0 -51 -15 -91t-38 -63t-54.5 -37.5t-60 -19.5t-59.5 -5q-46 0 -88 6t-61 12l-18 6l3 45q75 -22 159 -22q95 0 136 44t41 127q0 29 -6 52t-14.5 37.5t-24.5 25t-28 15.5t-33 7.5t-32.5 3t-33.5 0.5h-31v51l168 214v4h-300z
" />
    <glyph glyph-name="fouroldstyle" unicode="&#xf734;" horiz-adv-x="496" 
d="M20 13v54l253 470h55l-259 -479h284v186h53v-186h75v-45h-75v-141h-53v141h-333z" />
    <glyph glyph-name="fiveoldstyle" unicode="&#xf735;" horiz-adv-x="514" 
d="M64 -117l3 46q78 -19 156 -19q105 0 143.5 39.5t38.5 132.5q0 81 -34 118.5t-126 37.5q-35 0 -74 -9t-61 -17l-21 -9l-29 40l23 294h341v-46h-295l-19 -234q59 28 148 28q201 0 201 -202q0 -220 -229 -220q-45 0 -86.5 5t-60.5 10z" />
    <glyph glyph-name="sixoldstyle" unicode="&#xf736;" horiz-adv-x="546" 
d="M438 657l-4 -46q-71 17 -151 17q-81 0 -123 -47t-44 -119l-1 -96q9 5 24.5 12.5t62 20.5t90.5 13q199 0 199 -204q0 -102 -58.5 -160t-154.5 -58q-101 0 -157.5 60.5t-58.5 155.5q-3 125 0 255q2 92 59.5 153t161.5 61q36 0 75 -4.5t60 -8.5zM285 365q-40 0 -82.5 -11.5
t-64.5 -23.5l-23 -12q0 -73 1 -112q2 -73 41.5 -121t120.5 -48q159 0 159 171q0 84 -36 120.5t-116 36.5z" />
    <glyph glyph-name="sevenoldstyle" unicode="&#xf737;" horiz-adv-x="398" 
d="M10 490v47h368v-48l-265 -617h-53l264 614v4h-314z" />
    <glyph glyph-name="eightoldstyle" unicode="&#xf738;" horiz-adv-x="571" 
d="M495 497q0 -33 -10.5 -61t-25 -44.5t-29 -28.5t-24.5 -17l-11 -4l12.5 -5t27.5 -16.5t35.5 -30.5t28 -47.5t12.5 -65.5q0 -91 -64 -139t-160 -48q-98 0 -162.5 48t-64.5 139q0 35 12 65t29 47.5t33.5 30t28.5 17.5l12 5l-10.5 5t-24 15.5t-30.5 28.5t-23.5 44.5
t-10.5 61.5q0 76 57.5 126t153.5 50q93 0 150.5 -51t57.5 -125zM287 37q72 0 121 36t49 106q0 69 -50.5 104.5t-119.5 35.5q-71 0 -122 -35.5t-51 -104.5q0 -70 50 -106t123 -36zM443 497q0 57 -43.5 93t-112.5 36q-74 0 -116.5 -36t-42.5 -93q0 -62 42 -97t117 -35
q71 0 113.5 35.5t42.5 96.5z" />
    <glyph glyph-name="nineoldstyle" unicode="&#xf739;" horiz-adv-x="546" 
d="M108 -120l4 46q71 -17 151 -17q81 0 123 47t44 119l1 96q-9 -5 -24.5 -12.5t-62 -20.5t-90.5 -13q-199 0 -199 203q0 103 58.5 161t154.5 58q101 0 157.5 -60.5t58.5 -155.5q3 -125 0 -255q-2 -91 -59.5 -152.5t-161.5 -61.5q-36 0 -75 4.5t-60 9.5zM261 172
q40 0 82.5 12t64.5 24l23 11q0 73 -1 112q-2 73 -41 120.5t-120 47.5t-120.5 -42t-39.5 -129q0 -84 36.5 -120t115.5 -36z" />
    <glyph glyph-name="questionsmall" unicode="&#xf73f;" horiz-adv-x="440" 
d="M48 482l-3 44q67 20 156 20q88 0 141 -35t53 -106q0 -53 -21.5 -84t-52 -43l-61 -23t-52 -38t-21.5 -74h-50q0 49 15 81.5t37 46t48.5 25l48.5 20.5t37 31t15 57q0 97 -141 97q-32 0 -69.5 -4.5t-58.5 -9.5zM133 0v68h60v-68h-60z" />
    <glyph glyph-name="Gravesmall" unicode="&#xf760;" horiz-adv-x="188" 
d="M188 605h-58l-130 125h80z" />
    <glyph glyph-name="Asmall" unicode="&#xf761;" horiz-adv-x="500" 
d="M214 537h72l194 -537h-52l-58 163h-240l-58 -163h-52zM354 208l-101 285h-6l-101 -285h208z" />
    <glyph glyph-name="Bsmall" unicode="&#xf762;" horiz-adv-x="480" 
d="M263 537q79 0 120 -36t41 -102q0 -27 -7.5 -48.5t-18 -33.5t-20.5 -20.5t-18 -10.5l-7 -3q18 -6 34 -17.5t32 -42t16 -73.5q0 -150 -191 -150h-174v537h193zM272 493h-151v-191h142q52 0 82 24.5t30 71.5q0 45 -26 70t-77 25zM121 258v-214h127q77 0 106 25t29 81
q0 108 -120 108h-142z" />
    <glyph glyph-name="Csmall" unicode="&#xf763;" horiz-adv-x="429" 
d="M393 50l6 -45q-72 -15 -129 -15q-91 0 -148.5 51t-59.5 121q-3 106 0 213q2 71 60 121t148 50q30 0 60.5 -3t45.5 -6l16 -3l-6 -45q-59 12 -116 12q-69 0 -111.5 -39.5t-43.5 -92.5q-3 -101 0 -201q1 -54 43 -93.5t112 -39.5q26 0 57 3.5t49 7.5z" />
    <glyph glyph-name="Dsmall" unicode="&#xf764;" horiz-adv-x="510" 
d="M70 0v537h172q93 0 147.5 -45.5t57.5 -117.5q4 -106 0 -210q-3 -72 -57.5 -118t-147.5 -46h-172zM242 493h-121v-449h121q74 0 113 33.5t40 86.5q3 104 0 210q-1 52 -40.5 85.5t-112.5 33.5z" />
    <glyph glyph-name="Esmall" unicode="&#xf765;" horiz-adv-x="475" 
d="M70 537h346v-44h-295v-192h267v-44h-267v-213h304v-44h-355v537z" />
    <glyph glyph-name="Fsmall" unicode="&#xf766;" horiz-adv-x="435" 
d="M70 537h335v-44h-284v-201h256v-44h-256v-248h-51v537z" />
    <glyph glyph-name="Gsmall" unicode="&#xf767;" horiz-adv-x="498" 
d="M276 221v46h162v-252q-72 -25 -165 -25t-151 50t-60 122q-3 104 0 213q2 73 60 122t151 49q42 0 80.5 -4t56.5 -8l17 -3l-6 -45q-75 14 -148 14q-72 0 -114.5 -39t-43.5 -93q-3 -101 0 -201q1 -54 44 -93t115 -39q31 0 59.5 4t41.5 8l13 4v170h-112z" />
    <glyph glyph-name="Hsmall" unicode="&#xf768;" horiz-adv-x="532" 
d="M410 537h52v-537h-52v257h-289v-257h-51v537h51v-235h289v235z" />
    <glyph glyph-name="Ismall" unicode="&#xf769;" horiz-adv-x="191" 
d="M121 537v-537h-51v537h51z" />
    <glyph glyph-name="Jsmall" unicode="&#xf76a;" horiz-adv-x="240" 
d="M15 -5l1 42q13 -3 40 -3q30 0 44.5 14.5t16.5 30t2 48.5v410h51v-425q0 -122 -106 -122z" />
    <glyph glyph-name="Ksmall" unicode="&#xf76b;" horiz-adv-x="440" 
d="M121 537v-254l223 254h67l-228 -256l242 -281h-67l-237 278v-278h-51v537h51z" />
    <glyph glyph-name="Lsmall" unicode="&#xf76c;" horiz-adv-x="399" 
d="M70 537h51v-493h258v-44h-309v537z" />
    <glyph glyph-name="Msmall" unicode="&#xf76d;" horiz-adv-x="618" 
d="M548 537v-537h-51v471l-16 -34l-145 -231h-54l-146 232l-15 33v-471h-51v537h64l175 -288l175 288h64z" />
    <glyph glyph-name="Nsmall" unicode="&#xf76e;" horiz-adv-x="535" 
d="M414 537h51v-537h-67l-262 443l-16 36v-479h-50v537h67l262 -441l15 -38v479z" />
    <glyph glyph-name="Osmall" unicode="&#xf76f;" horiz-adv-x="537" 
d="M270 547q90 0 146.5 -50t58.5 -121q3 -108 0 -214q-2 -71 -58.5 -121.5t-146.5 -50.5q-91 0 -148 50.5t-59 121.5q-5 107 0 214q2 72 59 121.5t148 49.5zM270 34q72 0 111.5 37t41.5 91q5 108 0 214q-2 53 -41.5 90t-111.5 37q-73 0 -113 -36.5t-41 -90.5q-3 -108 0 -214
q1 -54 40.5 -91t113.5 -37z" />
    <glyph glyph-name="Psmall" unicode="&#xf770;" horiz-adv-x="459" 
d="M70 0v537h205q67 0 106 -33t41 -82q3 -57 0 -114q-2 -50 -41 -82.5t-106 -32.5h-154v-193h-51zM372 304q4 73 0 121q-4 68 -95 68h-156v-256h156q91 0 95 67z" />
    <glyph glyph-name="Qsmall" unicode="&#xf771;" horiz-adv-x="549" 
d="M270 547q90 0 146.5 -50t58.5 -121q5 -108 0 -214q-1 -51 -33 -93l47 -44l-35 -33l-46 42q-59 -44 -138 -44q-91 0 -148 50.5t-59 121.5q-5 107 0 214q2 72 59 121.5t148 49.5zM116 162q0 -17 4.5 -33t9.5 -23l4 -8l18.5 13t47 21.5t70.5 13.5t69 -11.5t50 -22.5l16 -12
q16 25 18 62q5 108 0 214q-2 53 -41.5 89.5t-111.5 36.5q-73 0 -112.5 -36t-41.5 -90q-3 -106 0 -214zM270 34q31 0 57 8t37 16l10 7q-48 36 -103 36q-26 0 -53 -8.5t-42 -17.5l-14 -9q36 -32 108 -32z" />
    <glyph glyph-name="Rsmall" unicode="&#xf772;" horiz-adv-x="480" 
d="M378 0l-116 203h-141v-203h-51v537h208q67 0 105.5 -32.5t40.5 -82.5q3 -52 0 -104q-2 -41 -28.5 -71.5t-78.5 -40.5l123 -206h-62zM375 314q3 56 0 111q-2 68 -95 68h-159v-246h162q88 0 92 67z" />
    <glyph glyph-name="Ssmall" unicode="&#xf773;" horiz-adv-x="472" 
d="M387 532l-4 -45q-77 16 -150 16q-133 0 -133 -100q0 -32 18 -53t47 -31.5t64 -19t69.5 -18t63.5 -24.5t47 -44t18 -71q0 -74 -48 -113t-159 -39q-46 0 -85.5 4.5t-56.5 9.5l-17 4l2 46q63 -20 151 -20q89 0 126 26t37 79q0 43 -33.5 67.5t-81.5 35t-96.5 23.5t-82 46
t-33.5 90q0 72 48 109t135 37q40 0 78.5 -3.5t56.5 -7.5z" />
    <glyph glyph-name="Tsmall" unicode="&#xf774;" horiz-adv-x="394" 
d="M15 493v44h364v-44h-156v-493h-51v493h-157z" />
    <glyph glyph-name="Usmall" unicode="&#xf775;" horiz-adv-x="533" 
d="M418 537h50v-375q0 -73 -54 -122.5t-146 -49.5q-94 0 -148.5 49.5t-54.5 122.5v375h51v-375q0 -54 39 -91t113 -37q71 0 110.5 37t39.5 91v375z" />
    <glyph glyph-name="Vsmall" unicode="&#xf776;" horiz-adv-x="463" 
d="M68 537l161 -494h5l161 494h53l-180 -537h-73l-180 537h53z" />
    <glyph glyph-name="Wsmall" unicode="&#xf777;" horiz-adv-x="709" 
d="M523 41l102 496h54l-117 -537h-79l-129 491l-127 -491h-80l-117 537h54l102 -496h5l127 496h73l127 -496h5z" />
    <glyph glyph-name="Xsmall" unicode="&#xf778;" horiz-adv-x="493" 
d="M93 537l153 -220l154 220h60l-183 -259l196 -278h-59l-168 240l-167 -240h-59l196 278l-183 259h60z" />
    <glyph glyph-name="Ysmall" unicode="&#xf779;" horiz-adv-x="461" 
d="M76 537l155 -275l153 275h62l-190 -325v-212h-51v212l-190 325h61z" />
    <glyph glyph-name="Zsmall" unicode="&#xf77a;" horiz-adv-x="469" 
d="M422 491l-324 -447h331v-44h-389v46l322 447h-311v44h371v-46z" />
    <glyph glyph-name="exclamdownsmall" unicode="&#xf7a1;" horiz-adv-x="231" 
d="M85 0l7 393h46l8 -393h-61zM145 537v-68h-60v68h60z" />
    <glyph glyph-name="centoldstyle" unicode="&#xf7a2;" horiz-adv-x="439" 
d="M224 570h52v-51l90 -11l-5 -43q-67 11 -114 11q-58 0 -92.5 -33.5t-36.5 -82.5q-3 -101 0 -201q2 -48 36.5 -81.5t92.5 -33.5q29 0 59 3.5t46 6.5l15 4l7 -42q-46 -12 -98 -15v-51h-52v51q-73 6 -114 49t-43 106q-3 104 0 208q2 62 43 105t114 50v51z" />
    <glyph glyph-name="Dieresissmall" unicode="&#xf7a8;" horiz-adv-x="231" 
d="M0 620v80h61v-80h-61zM170 620v80h61v-80h-61z" />
    <glyph glyph-name="Macronsmall" unicode="&#xf7af;" horiz-adv-x="277" 
d="M0 629v46h277v-46h-277z" />
    <glyph glyph-name="Acutesmall" unicode="&#xf7b4;" horiz-adv-x="188" 
d="M58 605h-58l108 125h80z" />
    <glyph glyph-name="Cedillasmall" unicode="&#xf7b8;" horiz-adv-x="220" 
d="M220 -110q0 -78 -82 -78q-13 0 -31 2t-30 4l-12 3l3 34q35 -7 57 -7q46 0 46 42q0 35 -46 35h-37l17 75h45l-9 -45q38 0 58.5 -14t20.5 -51z" />
    <glyph glyph-name="questiondownsmall" unicode="&#xf7bf;" horiz-adv-x="440" 
d="M395 11l-3 44q-77 -19 -149 -19q-141 0 -141 97q0 35 15 57t37 31l48.5 20.5t48.5 25t37 46t15 81.5h-50q0 -47 -21.5 -74t-52 -38l-61 -23t-52 -43t-21.5 -84q0 -71 53 -106t141 -35q40 0 79 5t58 10zM307 537v-68h-60v68h60z" />
    <glyph glyph-name="Agravesmall" unicode="&#xf7e0;" horiz-adv-x="490" 
d="M209 537h72l194 -537h-52l-58 163h-240l-58 -163h-52zM349 208l-101 285h-6l-101 -285h208zM269 605h-58l-130 125h80z" />
    <glyph glyph-name="Aacutesmall" unicode="&#xf7e1;" horiz-adv-x="490" 
d="M209 537h72l194 -537h-52l-58 163h-240l-58 -163h-52zM349 208l-101 285h-6l-101 -285h208zM275 605h-58l108 125h80z" />
    <glyph glyph-name="Acircumflexsmall" unicode="&#xf7e2;" horiz-adv-x="490" 
d="M209 537h72l194 -537h-52l-58 163h-240l-58 -163h-52zM349 208l-101 285h-6l-101 -285h208zM170 605h-54l98 125h60l98 -125h-54l-74 77z" />
    <glyph glyph-name="Atildesmall" unicode="&#xf7e3;" horiz-adv-x="490" 
d="M209 537h72l194 -537h-52l-58 163h-240l-58 -163h-52zM349 208l-101 285h-6l-101 -285h208zM145 613h-45q0 28 23 58.5t57 30.5q30 0 70 -24t58 -24q16 0 26 12.5t12 30.5h45q0 -29 -23 -59t-57 -30q-30 0 -70.5 24t-57.5 24q-16 0 -26 -12.5t-12 -30.5z" />
    <glyph glyph-name="Adieresissmall" unicode="&#xf7e4;" horiz-adv-x="490" 
d="M209 537h72l194 -537h-52l-58 163h-240l-58 -163h-52zM349 208l-101 285h-6l-101 -285h208zM129 620v80h61v-80h-61zM299 620v80h61v-80h-61z" />
    <glyph glyph-name="Aringsmall" unicode="&#xf7e5;" horiz-adv-x="490" 
d="M209 537h72l194 -537h-52l-58 163h-240l-58 -163h-52zM349 208l-101 285h-6l-101 -285h208zM165 671q0 34 22 57t56 23q33 0 56.5 -23t23.5 -57q0 -33 -23.5 -56t-56.5 -23t-55.5 23t-22.5 56zM203 672q0 -16 12 -28t28 -12t28.5 12t12.5 28t-12 28.5t-29 12.5
q-16 0 -28 -12t-12 -29z" />
    <glyph glyph-name="AEsmall" unicode="&#xf7e6;" horiz-adv-x="814" 
d="M356 537h398v-44h-284v-192h257v-44h-257v-213h294v-44h-344v161h-256l-104 -161h-50zM420 204v289h-43l-185 -289h228z" />
    <glyph glyph-name="Ccedillasmall" unicode="&#xf7e7;" horiz-adv-x="429" 
d="M357 -110q0 -78 -82 -78q-13 0 -31 2t-30 4l-12 3l3 34q35 -7 57 -7q46 0 46 42q0 35 -46 35h-37l15 67q-79 9 -127.5 57.5t-50.5 112.5q-3 106 0 213q2 71 60 121t148 50q30 0 60.5 -3t45.5 -6l16 -3l-6 -45q-59 12 -116 12q-69 0 -111.5 -39.5t-43.5 -92.5
q-3 -101 0 -201q1 -54 43 -93.5t112 -39.5q26 0 57 3.5t49 7.5l17 4l6 -45q-60 -13 -114 -15l-7 -35q38 0 58.5 -14t20.5 -51z" />
    <glyph glyph-name="Egravesmall" unicode="&#xf7e8;" horiz-adv-x="475" 
d="M70 537h346v-44h-295v-192h267v-44h-267v-213h304v-44h-355v537zM278 605h-58l-130 125h80z" />
    <glyph glyph-name="Eacutesmall" unicode="&#xf7e9;" horiz-adv-x="475" 
d="M70 537h346v-44h-295v-192h267v-44h-267v-213h304v-44h-355v537zM271 605h-58l108 125h80z" />
    <glyph glyph-name="Ecircumflexsmall" unicode="&#xf7ea;" horiz-adv-x="475" 
d="M70 537h346v-44h-295v-192h267v-44h-267v-213h304v-44h-355v537zM175 605h-54l98 125h60l98 -125h-54l-74 77z" />
    <glyph glyph-name="Edieresissmall" unicode="&#xf7eb;" horiz-adv-x="475" 
d="M70 537h346v-44h-295v-192h267v-44h-267v-213h304v-44h-355v537zM127 620v80h61v-80h-61zM297 620v80h61v-80h-61z" />
    <glyph glyph-name="Igravesmall" unicode="&#xf7ec;" horiz-adv-x="191" 
d="M121 537v-537h-51v537h51zM128 605h-58l-130 125h80z" />
    <glyph glyph-name="Iacutesmall" unicode="&#xf7ed;" horiz-adv-x="191" 
d="M121 537v-537h-51v537h51zM124 605h-58l108 125h80z" />
    <glyph glyph-name="Icircumflexsmall" unicode="&#xf7ee;" horiz-adv-x="191" 
d="M121 537v-537h-51v537h51zM21 605h-54l98 125h60l98 -125h-54l-74 77z" />
    <glyph glyph-name="Idieresissmall" unicode="&#xf7ef;" horiz-adv-x="191" 
d="M121 537v-537h-51v537h51zM-22 620v80h61v-80h-61zM148 620v80h61v-80h-61z" />
    <glyph glyph-name="Ethsmall" unicode="&#xf7f0;" horiz-adv-x="510" 
d="M12 250v46h58v241h172q93 0 147.5 -45.5t57.5 -117.5q4 -106 0 -210q-3 -72 -57.5 -118t-147.5 -46h-172v250h-58zM242 493h-121v-197h111v-46h-111v-206h121q74 0 113 33.5t40 86.5q3 104 0 210q-1 52 -40.5 85.5t-112.5 33.5z" />
    <glyph glyph-name="Ntildesmall" unicode="&#xf7f1;" horiz-adv-x="535" 
d="M414 537h51v-537h-67l-262 443l-16 36v-479h-50v537h67l262 -441l15 -38v479zM163 613h-45q0 28 23 58.5t57 30.5q30 0 70 -24t58 -24q16 0 26 12.5t12 30.5h45q0 -29 -23 -59t-57 -30q-30 0 -70.5 24t-57.5 24q-16 0 -26 -12.5t-12 -30.5z" />
    <glyph glyph-name="Ogravesmall" unicode="&#xf7f2;" horiz-adv-x="537" 
d="M270 547q90 0 146.5 -50t58.5 -121q3 -108 0 -214q-2 -71 -58.5 -121.5t-146.5 -50.5q-91 0 -148 50.5t-59 121.5q-5 107 0 214q2 72 59 121.5t148 49.5zM270 34q72 0 111.5 37t41.5 91q5 108 0 214q-2 53 -41.5 90t-111.5 37q-73 0 -113 -36.5t-41 -90.5q-3 -108 0 -214
q1 -54 40.5 -91t113.5 -37zM295 605h-58l-130 125h80z" />
    <glyph glyph-name="Oacutesmall" unicode="&#xf7f3;" horiz-adv-x="537" 
d="M270 547q90 0 146.5 -50t58.5 -121q3 -108 0 -214q-2 -71 -58.5 -121.5t-146.5 -50.5q-91 0 -148 50.5t-59 121.5q-5 107 0 214q2 72 59 121.5t148 49.5zM270 34q72 0 111.5 37t41.5 91q5 108 0 214q-2 53 -41.5 90t-111.5 37q-73 0 -113 -36.5t-41 -90.5q-3 -108 0 -214
q1 -54 40.5 -91t113.5 -37zM291 605h-58l108 125h80z" />
    <glyph glyph-name="Ocircumflexsmall" unicode="&#xf7f4;" horiz-adv-x="537" 
d="M270 547q90 0 146.5 -50t58.5 -121q3 -108 0 -214q-2 -71 -58.5 -121.5t-146.5 -50.5q-91 0 -148 50.5t-59 121.5q-5 107 0 214q2 72 59 121.5t148 49.5zM270 34q72 0 111.5 37t41.5 91q5 108 0 214q-2 53 -41.5 90t-111.5 37q-73 0 -113 -36.5t-41 -90.5q-3 -108 0 -214
q1 -54 40.5 -91t113.5 -37zM195 605h-54l98 125h60l98 -125h-54l-74 77z" />
    <glyph glyph-name="Otildesmall" unicode="&#xf7f5;" horiz-adv-x="537" 
d="M270 547q90 0 146.5 -50t58.5 -121q3 -108 0 -214q-2 -71 -58.5 -121.5t-146.5 -50.5q-91 0 -148 50.5t-59 121.5q-5 107 0 214q2 72 59 121.5t148 49.5zM270 34q72 0 111.5 37t41.5 91q5 108 0 214q-2 53 -41.5 90t-111.5 37q-73 0 -113 -36.5t-41 -90.5q-3 -108 0 -214
q1 -54 40.5 -91t113.5 -37zM172 613h-45q0 28 23 58.5t57 30.5q29 0 70 -24t58 -24q16 0 26 12.5t12 30.5h45q0 -29 -23 -59t-57 -30q-30 0 -70.5 24t-57.5 24q-16 0 -26 -12.5t-12 -30.5z" />
    <glyph glyph-name="Odieresissmall" unicode="&#xf7f6;" horiz-adv-x="537" 
d="M270 547q90 0 146.5 -50t58.5 -121q3 -108 0 -214q-2 -71 -58.5 -121.5t-146.5 -50.5q-91 0 -148 50.5t-59 121.5q-5 107 0 214q2 72 59 121.5t148 49.5zM270 34q72 0 111.5 37t41.5 91q5 108 0 214q-2 53 -41.5 90t-111.5 37q-73 0 -113 -36.5t-41 -90.5q-3 -108 0 -214
q1 -54 40.5 -91t113.5 -37zM153 620v80h61v-80h-61zM323 620v80h61v-80h-61z" />
    <glyph glyph-name="Oslashsmall" unicode="&#xf7f8;" horiz-adv-x="537" 
d="M69 0l37 57q-41 45 -43 105q-5 107 0 214q2 72 59 121.5t148 49.5q76 0 130 -38l18 28h54l-38 -58q39 -46 41 -103q3 -108 0 -214q-2 -71 -58.5 -121.5t-146.5 -50.5q-74 0 -130 36l-17 -26h-54zM116 162q0 -37 17 -64l242 373q-42 32 -105 32q-73 0 -113 -36.5
t-41 -90.5q-3 -108 0 -214zM270 34q72 0 111.5 37t41.5 91q5 108 0 214q-1 31 -17 59l-241 -371q39 -30 105 -30z" />
    <glyph glyph-name="Ugravesmall" unicode="&#xf7f9;" horiz-adv-x="533" 
d="M418 537h50v-375q0 -73 -54 -122.5t-146 -49.5q-94 0 -148.5 49.5t-54.5 122.5v375h51v-375q0 -54 39 -91t113 -37q71 0 110.5 37t39.5 91v375zM298 605h-58l-130 125h80z" />
    <glyph glyph-name="Uacutesmall" unicode="&#xf7fa;" horiz-adv-x="533" 
d="M418 537h50v-375q0 -73 -54 -122.5t-146 -49.5q-94 0 -148.5 49.5t-54.5 122.5v375h51v-375q0 -54 39 -91t113 -37q71 0 110.5 37t39.5 91v375zM295 605h-58l108 125h80z" />
    <glyph glyph-name="Ucircumflexsmall" unicode="&#xf7fb;" horiz-adv-x="533" 
d="M418 537h50v-375q0 -73 -54 -122.5t-146 -49.5q-94 0 -148.5 49.5t-54.5 122.5v375h51v-375q0 -54 39 -91t113 -37q71 0 110.5 37t39.5 91v375zM192 605h-54l98 125h60l98 -125h-54l-74 77z" />
    <glyph glyph-name="Udieresissmall" unicode="&#xf7fc;" horiz-adv-x="533" 
d="M418 537h50v-375q0 -73 -54 -122.5t-146 -49.5q-94 0 -148.5 49.5t-54.5 122.5v375h51v-375q0 -54 39 -91t113 -37q71 0 110.5 37t39.5 91v375zM155 620v80h61v-80h-61zM325 620v80h61v-80h-61z" />
    <glyph glyph-name="Yacutesmall" unicode="&#xf7fd;" horiz-adv-x="461" 
d="M76 537l155 -275l153 275h62l-190 -325v-212h-51v212l-190 325h61zM256 605h-58l108 125h80z" />
    <glyph glyph-name="Thornsmall" unicode="&#xf7fe;" horiz-adv-x="459" 
d="M70 0v537h51v-80h154q67 0 106 -33t41 -82q3 -57 0 -114q-2 -50 -41 -82.5t-106 -32.5h-154v-113h-51zM372 224q4 73 0 121q-4 68 -95 68h-156v-256h156q91 0 95 67z" />
    <glyph glyph-name="Ydieresissmall" unicode="&#xf7ff;" horiz-adv-x="461" 
d="M76 537l155 -275l153 275h62l-190 -325v-212h-51v212l-190 325h61zM116 620v80h61v-80h-61zM286 620v80h61v-80h-61z" />
    <glyph glyph-name="f_f" unicode="&#xfb00;" horiz-adv-x="614" 
d="M20 456v44h80v80q0 59 32.5 94.5t93.5 35.5l82 -8l-5 -40q-38 6 -78 6q-75 0 -75 -95v-73h241v80q0 59 32.5 94.5t93.5 35.5l82 -8l-5 -40q-38 6 -78 6q-75 0 -75 -95v-73h143v-44h-143v-456h-50v456h-241v-456h-50v456h-80z" />
    <glyph glyph-name="f_f_i" unicode="&#xfb03;" horiz-adv-x="803" 
d="M20 456v44h80v80q0 59 32.5 94.5t93.5 35.5l82 -8l-5 -40q-38 6 -78 6q-75 0 -75 -95v-73h240v80q0 59 32.5 94.5t93.5 35.5l82 -8l-5 -40q-38 6 -78 6q-75 0 -75 -95v-73h290v-500h-50v456h-240v-456h-50v456h-240v-456h-50v456h-80zM678 602v98h55v-98h-55z" />
    <glyph glyph-name="f_f_l" unicode="&#xfb04;" horiz-adv-x="799" 
d="M20 456v44h80v80q0 59 32.5 94.5t93.5 35.5l82 -8l-5 -40q-38 6 -78 6q-75 0 -75 -95v-73h241v80q0 59 32.5 94.5t93.5 35.5q36 0 89 -2.5t88 -5.5l35 -2v-700h-50v662q-91 6 -163 6q-75 0 -75 -95v-73h143v-44h-143v-456h-50v456h-241v-456h-50v456h-80z" />
    <glyph glyph-name="longs_t" unicode="&#xfb05;" horiz-adv-x="510" 
d="M20 456v44h50v80q0 59 32.5 94.5t93.5 35.5q19 0 56 -3t64 -7l28 -3v-197h146v-44h-146v-329q0 -51 17.5 -72t54.5 -21l68 6l4 -40q-47 -10 -78 -10q-58 0 -87 33.5t-29 88.5v344h-81v44h81v161q-59 7 -99 7q-75 0 -75 -95v-573h-50v456h-50z" />
    <glyph glyph-name="s_t" unicode="&#xfb06;" horiz-adv-x="695" 
d="M277 506q-5 4 -12 11t-18.5 33t-11.5 55q0 64 41 105.5t107 41.5q64 0 105 -41t41 -105v-106h146v-44h-146v-329q0 -51 17.5 -72t54.5 -21l68 6l4 -40q-47 -10 -78 -10q-58 0 -87 33.5t-29 88.5v491q0 43 -27 72.5t-70 29.5q-44 0 -73 -30t-29 -73q0 -20 6 -37.5t15 -28
t18 -18.5t15 -11l6 -3l-5 -49q-66 11 -129 11q-111 0 -111 -88q0 -39 28.5 -61t69.5 -33t82 -24t69.5 -44.5t28.5 -83.5q0 -71 -41.5 -106.5t-135.5 -35.5q-35 0 -71 5t-55 11l-19 5l7 44q71 -21 133 -21q74 0 102 22t28 71q0 40 -28.5 63t-69 34t-81 23.5t-69 44
t-28.5 84.5q0 68 43 101t118 33z" />
    <glyph glyph-name="s_p" unicode="&#xfb07;" horiz-adv-x="906" 
d="M276 506q-5 4 -12 11t-18.5 33t-11.5 55q0 64 41 105.5t107 41.5q64 0 105.5 -41t41.5 -105v-154l26 16t59.5 26t77.5 16q75 0 112.5 -41.5t39.5 -109.5q3 -105 0 -209q-2 -70 -45.5 -115t-129.5 -45q-32 0 -67 6.5t-54 13.5l-19 6v-196h-50v783q0 43 -27.5 72.5
t-70.5 29.5q-44 0 -73 -30t-29 -73q0 -20 6 -37.5t15 -28t18 -18.5t15 -11l6 -3l-5 -49q-65 11 -128 11q-111 0 -111 -88q0 -39 28.5 -61t69.5 -33t82 -24t69.5 -44.5t28.5 -83.5q0 -71 -41.5 -106.5t-135.5 -35.5q-35 0 -71 5t-55 11l-19 5l7 44q71 -21 133 -21
q74 0 102 22t28 71q0 40 -28.5 63t-69 34t-81 23.5t-69 44t-28.5 84.5q0 68 43 101t118 33zM793 155q3 100 0 198q-4 113 -103 113q-36 0 -76 -15t-62 -31l-23 -15v-342q50 -29 140 -29q60 0 91 35.5t33 85.5z" />
    <glyph glyph-name="c_t" unicode="&#xfb0a;" horiz-adv-x="716" 
d="M298 506q-5 4 -12 11t-18.5 33t-11.5 55q0 64 41 105.5t107 41.5q64 0 105 -41t41 -105v-106h146v-44h-146v-329q0 -51 17.5 -72t54.5 -21l68 6l4 -40q-47 -10 -78 -10q-58 0 -87 33.5t-29 88.5v491q0 43 -27 72.5t-70 29.5q-44 0 -73 -30t-29 -73q0 -20 6 -37.5t15 -28
t18 -18.5t15 -11l6 -3l-5 -49q-67 11 -114 11q-58 0 -92.5 -33.5t-36.5 -82.5q-3 -100 0 -201q2 -48 36.5 -81.5t92.5 -33.5q29 0 59 3.5t45 6.5l16 4l7 -42q-63 -16 -127 -16q-83 0 -130.5 44.5t-49.5 111.5q-3 104 0 208q2 67 50 111.5t131 44.5z" />
    <glyph glyph-name="t_y" unicode="&#xfb12;" horiz-adv-x="717" 
d="M446 22l-155 434h-140v-329q0 -51 17.5 -72t54.5 -21l68 6l4 -40q-47 -10 -78 -10q-58 0 -87 33.5t-29 88.5v344h-81v44h81v120h50v-120h179l152 -433h4l163 433h53l-260 -680h-52l76 194z" />
    <glyph glyph-name="perthousand.oldstyle" horiz-adv-x="1028" 
d="M325 439v-72q0 -46 -37 -75.5t-91 -29.5q-53 0 -90 29.5t-37 75.5v72q0 46 37 75.5t90 29.5q54 0 91 -29.5t37 -75.5zM274 363v79q0 30 -21 46.5t-56 16.5q-36 0 -56.5 -16.5t-20.5 -46.5v-78q0 -30 20.5 -46.5t56.5 -16.5q34 0 55.5 16.5t21.5 45.5zM202 0l273 538h52
l-274 -538h-51zM659 169v-72q0 -46 -37 -75.5t-91 -29.5q-53 0 -90.5 29.5t-37.5 75.5v72q0 46 37 76t91 30t91 -30t37 -76zM608 94v78q0 31 -21 47t-56 16q-36 0 -56.5 -16t-20.5 -47v-77q0 -31 20.5 -47t56.5 -16q35 0 56 16t21 46zM963 169v-72q0 -46 -37 -75.5
t-91 -29.5q-53 0 -90.5 29.5t-37.5 75.5v72q0 46 37 76t91 30t91 -30t37 -76zM912 94v78q0 31 -21 47t-56 16q-36 0 -56.5 -16t-20.5 -47v-77q0 -31 20.5 -47t56.5 -16q35 0 56 16t21 46z" />
    </font>
</defs>
</svg>
